# Blender 4.0.2
# www.blender.org
mtllib four.mtl
o four.001
v -0.327550 0.318240 0.000000
v -0.325857 0.315277 0.000000
v -0.319086 0.317393 0.000000
v -0.319086 0.321625 0.000000
v -0.325011 0.322471 0.000000
v -0.364791 0.294541 0.000000
v -0.363944 0.288616 0.000000
v -0.357173 0.282691 0.000000
v -0.347440 0.282691 0.000000
v -0.342361 0.283538 0.000000
v -0.332628 0.282691 0.000000
v -0.325857 0.278036 0.000000
v -0.320779 0.274651 0.000000
v -0.317393 0.272112 0.000000
v -0.299196 0.266187 0.000000
v -0.282691 0.262802 0.000000
v -0.267033 0.258993 0.000000
v -0.249683 0.256454 0.000000
v -0.239103 0.255607 0.000000
v -0.234871 0.247143 0.000000
v -0.234871 0.170546 0.000000
v -0.236564 0.151502 0.000000
v -0.230639 0.142192 0.000000
v -0.219213 0.136267 0.000000
v -0.216674 0.134152 0.000000
v -0.217520 0.126534 0.000000
v -0.221752 0.114262 0.000000
v -0.221752 0.098603 0.000000
v -0.210749 0.090140 0.000000
v -0.210749 0.077867 0.000000
v -0.214135 0.062209 0.000000
v -0.217520 0.040626 0.000000
v -0.220906 0.030470 0.000000
v -0.219213 0.020736 0.000000
v -0.219213 0.010580 0.000000
v -0.216674 -0.001693 0.000000
v -0.214981 -0.011426 0.000000
v -0.213288 -0.016504 0.000000
v -0.206940 -0.016504 0.000000
v -0.202708 -0.015658 0.000000
v -0.201016 -0.011426 0.000000
v -0.195091 0.003386 0.000000
v -0.195091 0.018197 0.000000
v -0.201016 0.031316 0.000000
v -0.197630 0.047821 0.000000
v -0.196784 0.063479 0.000000
v -0.193398 0.076174 0.000000
v -0.194245 0.092679 0.000000
v -0.193398 0.114262 0.000000
v -0.188743 0.128227 0.000000
v -0.188743 0.147270 0.000000
v -0.187050 0.168007 0.000000
v -0.186204 0.190859 0.000000
v -0.187050 0.212442 0.000000
v -0.188743 0.232332 0.000000
v -0.184511 0.243335 0.000000
v -0.182818 0.250529 0.000000
v -0.174355 0.251375 0.000000
v -0.164621 0.254761 0.000000
v -0.144731 0.255607 0.000000
v -0.129920 0.258146 0.000000
v -0.109183 0.255607 0.000000
v -0.092679 0.254761 0.000000
v -0.083369 0.248836 0.000000
v -0.072789 0.242488 0.000000
v -0.061363 0.235717 0.000000
v -0.046974 0.228946 0.000000
v -0.038934 0.227253 0.000000
v -0.033855 0.230639 0.000000
v -0.026661 0.232332 0.000000
v -0.021583 0.239103 0.000000
v -0.022429 0.250529 0.000000
v -0.020736 0.263648 0.000000
v -0.024968 0.276344 0.000000
v -0.031316 0.290309 0.000000
v -0.033855 0.300889 0.000000
v -0.040626 0.317393 0.000000
v -0.046974 0.327550 0.000000
v -0.057977 0.347440 0.000000
v -0.063479 0.367330 0.000000
v -0.069403 0.385527 0.000000
v -0.070250 0.399492 0.000000
v -0.070250 0.413457 0.000000
v -0.073635 0.425730 0.000000
v -0.082522 0.437579 0.000000
v -0.089293 0.443927 0.000000
v -0.095218 0.454084 0.000000
v -0.105798 0.471435 0.000000
v -0.112569 0.483707 0.000000
v -0.116801 0.498519 0.000000
v -0.124841 0.522641 0.000000
v -0.129920 0.533220 0.000000
v -0.129073 0.543377 0.000000
v -0.130766 0.545916 0.000000
v -0.132459 0.554803 0.000000
v -0.134152 0.566653 0.000000
v -0.143039 0.575540 0.000000
v -0.155311 0.582311 0.000000
v -0.162928 0.583157 0.000000
v -0.169700 0.582311 0.000000
v -0.176894 0.582311 0.000000
v -0.186204 0.578079 0.000000
v -0.199323 0.571308 0.000000
v -0.214981 0.559035 0.000000
v -0.221752 0.545916 0.000000
v -0.219213 0.538299 0.000000
v -0.216674 0.529412 0.000000
v -0.213288 0.525180 0.000000
v -0.209903 0.517562 0.000000
v -0.199323 0.506983 0.000000
v -0.190013 0.493864 0.000000
v -0.181126 0.481168 0.000000
v -0.169700 0.469742 0.000000
v -0.161236 0.454930 0.000000
v -0.152349 0.440965 0.000000
v -0.145578 0.433347 0.000000
v -0.141346 0.431655 0.000000
v -0.138807 0.421075 0.000000
v -0.134152 0.410918 0.000000
v -0.130766 0.397799 0.000000
v -0.129073 0.387220 0.000000
v -0.115108 0.365637 0.000000
v -0.110876 0.353788 0.000000
v -0.103259 0.341515 0.000000
v -0.095218 0.330935 0.000000
v -0.089293 0.322471 0.000000
v -0.085908 0.311045 0.000000
v -0.083369 0.303428 0.000000
v -0.085061 0.298350 0.000000
v -0.090140 0.295387 0.000000
v -0.100719 0.292002 0.000000
v -0.113415 0.290309 0.000000
v -0.125688 0.290309 0.000000
v -0.137960 0.288616 0.000000
v -0.149810 0.290309 0.000000
v -0.162082 0.291155 0.000000
v -0.170546 0.292002 0.000000
v -0.175201 0.295387 0.000000
v -0.175201 0.310199 0.000000
v -0.170546 0.321625 0.000000
v -0.173508 0.342361 0.000000
v -0.181972 0.357173 0.000000
v -0.181126 0.371985 0.000000
v -0.181126 0.391875 0.000000
v -0.181972 0.398646 0.000000
v -0.181972 0.411765 0.000000
v -0.184511 0.421921 0.000000
v -0.190859 0.426576 0.000000
v -0.197630 0.426576 0.000000
v -0.204401 0.421921 0.000000
v -0.210749 0.413457 0.000000
v -0.219213 0.406686 0.000000
v -0.225138 0.398646 0.000000
v -0.227253 0.386373 0.000000
v -0.227253 0.359712 0.000000
v -0.226407 0.349132 0.000000
v -0.226407 0.337283 0.000000
v -0.227253 0.327550 0.000000
v -0.227253 0.318240 0.000000
v -0.226407 0.311045 0.000000
v -0.229793 0.306813 0.000000
v -0.234871 0.298350 0.000000
v -0.241642 0.296234 0.000000
v -0.251375 0.298350 0.000000
v -0.261532 0.300889 0.000000
v -0.327550 0.300889 0.000000
v -0.332628 0.305121 0.000000
v -0.345747 0.302581 0.000000
v -0.357173 0.306813 0.000000
v -0.357173 0.300889 0.000000
v -0.363944 0.298350 0.000000
vn -0.0000 -0.0000 -1.0000
vt 0.570588 0.000000
vt 0.582353 0.000000
vt 0.576471 0.000000
vt 0.564706 0.000000
vt 0.588235 0.000000
vt 0.594118 0.000000
vt 0.600000 0.000000
vt 0.558824 0.000000
vt 0.605882 0.000000
vt 0.552941 0.000000
vt 0.611765 0.000000
vt 0.547059 0.000000
vt 0.541176 0.000000
vt 0.617647 0.000000
vt 0.535294 0.000000
vt 0.623529 0.000000
vt 0.529412 0.000000
vt 0.629412 0.000000
vt 0.635294 0.000000
vt 0.523529 0.000000
vt 0.641176 0.000000
vt 0.647059 0.000000
vt 0.517647 0.000000
vt 0.652941 0.000000
vt 0.511765 0.000000
vt 0.658824 0.000000
vt 0.505882 0.000000
vt 0.664706 0.000000
vt 0.670588 0.000000
vt 0.500000 0.000000
vt 0.494118 0.000000
vt 0.676471 0.000000
vt 0.488235 0.000000
vt 0.682353 0.000000
vt 0.688235 0.000000
vt 0.858824 0.000000
vt 0.870588 0.000000
vt 0.864706 0.000000
vt 0.876471 0.000000
vt 0.482353 0.000000
vt 0.852941 0.000000
vt 0.882353 0.000000
vt 0.694118 0.000000
vt 0.476471 0.000000
vt 0.888235 0.000000
vt 0.847059 0.000000
vt 0.700000 0.000000
vt 0.894118 0.000000
vt 0.470588 0.000000
vt 0.841176 0.000000
vt 0.900000 0.000000
vt 0.705882 0.000000
vt 0.835294 0.000000
vt 0.711765 0.000000
vt 0.905882 0.000000
vt 0.464706 0.000000
vt 0.829412 0.000000
vt 0.458824 0.000000
vt 0.717647 0.000000
vt 0.911765 0.000000
vt 0.823529 0.000000
vt 0.723529 0.000000
vt 0.917647 0.000000
vt 0.452941 0.000000
vt 0.817647 0.000000
vt 0.729412 0.000000
vt 0.923529 0.000000
vt 0.735294 0.000000
vt 0.447059 0.000000
vt 0.929412 0.000000
vt 0.741176 0.000000
vt 0.017647 0.000000
vt 0.000000 0.000000
vt 0.023529 0.000000
vt 0.811765 0.000000
vt 0.011765 0.000000
vt 0.935294 0.000000
vt 0.005882 0.000000
vt 0.441176 0.000000
vt 0.747059 0.000000
vt 0.941176 0.000000
vt 0.805882 0.000000
vt 0.947059 0.000000
vt 0.982353 0.000000
vt 0.994118 0.000000
vt 0.988235 0.000000
vt 0.970588 0.000000
vt 0.976471 0.000000
vt 0.752941 0.000000
vt 0.435294 0.000000
vt 0.958824 0.000000
vt 0.964706 0.000000
vt 1.000000 0.000000
vt 0.758824 0.000000
vt 0.952941 0.000000
vt 0.029412 0.000000
vt 0.764706 0.000000
vt 0.800000 0.000000
vt 0.035294 0.000000
vt 0.770588 0.000000
vt 0.794118 0.000000
vt 0.788235 0.000000
vt 0.429412 0.000000
vt 0.776471 0.000000
vt 0.782353 0.000000
vt 0.052941 0.000000
vt 0.041176 0.000000
vt 0.058824 0.000000
vt 0.047059 0.000000
vt 0.064706 0.000000
vt 0.070588 0.000000
vt 0.423529 0.000000
vt 0.076471 0.000000
vt 0.082353 0.000000
vt 0.088235 0.000000
vt 0.417647 0.000000
vt 0.352941 0.000000
vt 0.094118 0.000000
vt 0.100000 0.000000
vt 0.364706 0.000000
vt 0.358824 0.000000
vt 0.347059 0.000000
vt 0.105882 0.000000
vt 0.341176 0.000000
vt 0.111765 0.000000
vt 0.370588 0.000000
vt 0.335294 0.000000
vt 0.329412 0.000000
vt 0.411765 0.000000
vt 0.323529 0.000000
vt 0.376471 0.000000
vt 0.117647 0.000000
vt 0.317647 0.000000
vt 0.382353 0.000000
vt 0.405882 0.000000
vt 0.388235 0.000000
vt 0.400000 0.000000
vt 0.311765 0.000000
vt 0.394118 0.000000
vt 0.305882 0.000000
vt 0.300000 0.000000
vt 0.123529 0.000000
vt 0.294118 0.000000
vt 0.129412 0.000000
vt 0.288235 0.000000
vt 0.135294 0.000000
vt 0.141176 0.000000
vt 0.147059 0.000000
vt 0.282353 0.000000
vt 0.152941 0.000000
vt 0.276471 0.000000
vt 0.158824 0.000000
vt 0.164706 0.000000
vt 0.270588 0.000000
vt 0.170588 0.000000
vt 0.176471 0.000000
vt 0.264706 0.000000
vt 0.258824 0.000000
vt 0.182353 0.000000
vt 0.252941 0.000000
vt 0.188235 0.000000
vt 0.247059 0.000000
vt 0.194118 0.000000
vt 0.200000 0.000000
vt 0.241176 0.000000
vt 0.205882 0.000000
vt 0.235294 0.000000
vt 0.211765 0.000000
vt 0.229412 0.000000
vt 0.217647 0.000000
vt 0.223529 0.000000
s 0
usemtl text
f 98/1/1 100/2/1 99/3/1
f 97/4/1 100/2/1 98/1/1
f 97/4/1 101/5/1 100/2/1
f 97/4/1 102/6/1 101/5/1
f 97/4/1 103/7/1 102/6/1
f 96/8/1 103/7/1 97/4/1
f 96/8/1 104/9/1 103/7/1
f 95/10/1 104/9/1 96/8/1
f 95/10/1 105/11/1 104/9/1
f 94/12/1 105/11/1 95/10/1
f 93/13/1 105/11/1 94/12/1
f 93/13/1 106/14/1 105/11/1
f 92/15/1 106/14/1 93/13/1
f 92/15/1 107/16/1 106/14/1
f 91/17/1 107/16/1 92/15/1
f 91/17/1 108/18/1 107/16/1
f 91/17/1 109/19/1 108/18/1
f 90/20/1 109/19/1 91/17/1
f 90/20/1 110/21/1 109/19/1
f 90/20/1 111/22/1 110/21/1
f 89/23/1 111/22/1 90/20/1
f 89/23/1 112/24/1 111/22/1
f 88/25/1 112/24/1 89/23/1
f 88/25/1 113/26/1 112/24/1
f 87/27/1 113/26/1 88/25/1
f 87/27/1 114/28/1 113/26/1
f 87/27/1 115/29/1 114/28/1
f 86/30/1 115/29/1 87/27/1
f 85/31/1 115/29/1 86/30/1
f 85/31/1 116/32/1 115/29/1
f 84/33/1 116/32/1 85/31/1
f 84/33/1 117/34/1 116/32/1
f 84/33/1 118/35/1 117/34/1
f 147/36/1 149/37/1 148/38/1
f 147/36/1 150/39/1 149/37/1
f 83/40/1 118/35/1 84/33/1
f 146/41/1 150/39/1 147/36/1
f 146/41/1 151/42/1 150/39/1
f 83/40/1 119/43/1 118/35/1
f 82/44/1 119/43/1 83/40/1
f 146/41/1 152/45/1 151/42/1
f 145/46/1 152/45/1 146/41/1
f 82/44/1 120/47/1 119/43/1
f 145/46/1 153/48/1 152/45/1
f 81/49/1 120/47/1 82/44/1
f 144/50/1 153/48/1 145/46/1
f 144/50/1 154/51/1 153/48/1
f 81/49/1 121/52/1 120/47/1
f 143/53/1 154/51/1 144/50/1
f 81/49/1 122/54/1 121/52/1
f 143/53/1 155/55/1 154/51/1
f 80/56/1 122/54/1 81/49/1
f 142/57/1 155/55/1 143/53/1
f 79/58/1 122/54/1 80/56/1
f 79/58/1 123/59/1 122/54/1
f 142/57/1 156/60/1 155/55/1
f 141/61/1 156/60/1 142/57/1
f 79/58/1 124/62/1 123/59/1
f 141/61/1 157/63/1 156/60/1
f 78/64/1 124/62/1 79/58/1
f 140/65/1 157/63/1 141/61/1
f 78/64/1 125/66/1 124/62/1
f 140/65/1 158/67/1 157/63/1
f 78/64/1 126/68/1 125/66/1
f 77/69/1 126/68/1 78/64/1
f 140/65/1 159/70/1 158/67/1
f 77/69/1 127/71/1 126/68/1
f 4/72/1 1/73/1 5/74/1
f 139/75/1 159/70/1 140/65/1
f 3/76/1 1/73/1 4/72/1
f 139/75/1 160/77/1 159/70/1
f 3/76/1 2/78/1 1/73/1
f 76/79/1 127/71/1 77/69/1
f 76/79/1 128/80/1 127/71/1
f 139/75/1 161/81/1 160/77/1
f 138/82/1 161/81/1 139/75/1
f 138/82/1 162/83/1 161/81/1
f 168/84/1 170/85/1 169/86/1
f 166/87/1 168/84/1 167/88/1
f 76/79/1 129/89/1 128/80/1
f 166/87/1 170/85/1 168/84/1
f 75/90/1 129/89/1 76/79/1
f 164/91/1 166/87/1 165/92/1
f 164/91/1 170/85/1 166/87/1
f 164/91/1 171/93/1 170/85/1
f 75/90/1 130/94/1 129/89/1
f 138/82/1 163/95/1 162/83/1
f 163/95/1 171/93/1 164/91/1
f 163/95/1 6/96/1 171/93/1
f 138/82/1 6/96/1 163/95/1
f 75/90/1 131/97/1 130/94/1
f 137/98/1 6/96/1 138/82/1
f 137/98/1 7/99/1 6/96/1
f 75/90/1 132/100/1 131/97/1
f 136/101/1 7/99/1 137/98/1
f 135/102/1 7/99/1 136/101/1
f 74/103/1 132/100/1 75/90/1
f 74/103/1 133/104/1 132/100/1
f 74/103/1 134/105/1 133/104/1
f 134/105/1 7/99/1 135/102/1
f 74/103/1 7/99/1 134/105/1
f 74/103/1 10/106/1 7/99/1
f 10/106/1 8/107/1 7/99/1
f 74/103/1 11/108/1 10/106/1
f 9/109/1 8/107/1 10/106/1
f 74/103/1 12/110/1 11/108/1
f 74/103/1 13/111/1 12/110/1
f 73/112/1 13/111/1 74/103/1
f 73/112/1 14/113/1 13/111/1
f 73/112/1 15/114/1 14/113/1
f 73/112/1 16/115/1 15/114/1
f 72/116/1 61/117/1 73/112/1
f 61/117/1 16/115/1 73/112/1
f 61/117/1 17/118/1 16/115/1
f 61/117/1 18/119/1 17/118/1
f 72/116/1 63/120/1 61/117/1
f 63/120/1 62/121/1 61/117/1
f 60/122/1 18/119/1 61/117/1
f 60/122/1 19/123/1 18/119/1
f 59/124/1 19/123/1 60/122/1
f 59/124/1 20/125/1 19/123/1
f 72/116/1 64/126/1 63/120/1
f 58/127/1 20/125/1 59/124/1
f 57/128/1 20/125/1 58/127/1
f 71/129/1 64/126/1 72/116/1
f 56/130/1 20/125/1 57/128/1
f 71/129/1 65/131/1 64/126/1
f 56/130/1 21/132/1 20/125/1
f 55/133/1 21/132/1 56/130/1
f 71/129/1 66/134/1 65/131/1
f 70/135/1 66/134/1 71/129/1
f 70/135/1 67/136/1 66/134/1
f 69/137/1 67/136/1 70/135/1
f 54/138/1 21/132/1 55/133/1
f 68/139/1 67/136/1 69/137/1
f 53/140/1 21/132/1 54/138/1
f 52/141/1 21/132/1 53/140/1
f 52/141/1 22/142/1 21/132/1
f 51/143/1 22/142/1 52/141/1
f 51/143/1 23/144/1 22/142/1
f 50/145/1 23/144/1 51/143/1
f 50/145/1 24/146/1 23/144/1
f 50/145/1 25/147/1 24/146/1
f 50/145/1 26/148/1 25/147/1
f 49/149/1 26/148/1 50/145/1
f 49/149/1 27/150/1 26/148/1
f 48/151/1 27/150/1 49/149/1
f 48/151/1 28/152/1 27/150/1
f 48/151/1 29/153/1 28/152/1
f 47/154/1 29/153/1 48/151/1
f 47/154/1 30/155/1 29/153/1
f 47/154/1 31/156/1 30/155/1
f 46/157/1 31/156/1 47/154/1
f 45/158/1 31/156/1 46/157/1
f 45/158/1 32/159/1 31/156/1
f 44/160/1 32/159/1 45/158/1
f 44/160/1 33/161/1 32/159/1
f 43/162/1 33/161/1 44/160/1
f 43/162/1 34/163/1 33/161/1
f 43/162/1 35/164/1 34/163/1
f 42/165/1 35/164/1 43/162/1
f 42/165/1 36/166/1 35/164/1
f 41/167/1 36/166/1 42/165/1
f 41/167/1 37/168/1 36/166/1
f 40/169/1 37/168/1 41/167/1
f 40/169/1 38/170/1 37/168/1
f 39/171/1 38/170/1 40/169/1
