# Blender 4.0.2
# www.blender.org
mtllib Column.mtl
o Column
v 0.540727 0.508889 0.453752
v 0.540727 0.508889 -0.453752
v -0.540727 0.508889 0.453752
v -0.540727 0.508889 -0.453752
v -0.453752 0.290631 -0.540727
v -0.540727 0.290631 -0.453752
v -0.540727 0.290631 0.453752
v -0.453752 0.290631 0.540727
v 0.453752 0.290631 0.540727
v 0.540727 0.290631 0.453752
v 0.540727 0.290631 -0.453752
v 0.453752 0.290631 -0.540727
v 0.556261 0.008336 -0.652060
v 0.652059 0.008336 -0.556261
v 0.652060 0.008336 0.556261
v 0.556261 0.008336 0.652059
v -0.652060 0.008336 -0.556261
v -0.556261 0.008336 -0.652059
v -0.556261 0.008336 0.652060
v -0.652059 0.008336 0.556261
v 0.595587 0.277396 -0.499788
v 0.499788 0.277396 -0.595587
v 0.641206 0.231777 -0.545407
v 0.545407 0.231777 -0.641206
v 0.499788 0.277396 0.595587
v 0.595587 0.277396 0.499788
v 0.545407 0.231777 0.641206
v 0.641206 0.231777 0.545407
v -0.499788 0.277396 -0.595587
v -0.595587 0.277396 -0.499788
v -0.545407 0.231777 -0.641206
v -0.641206 0.231777 -0.545407
v -0.595587 0.277396 0.499788
v -0.499788 0.277396 0.595587
v -0.641206 0.231777 0.545407
v -0.545407 0.231777 0.641206
v 0.453752 0.508889 -0.540727
v -0.453752 0.508889 -0.540727
v -0.453752 0.508889 0.540727
v 0.453752 0.508889 0.540727
v -0.416093 0.795179 -0.495850
v -0.495850 0.795179 -0.416093
v -0.495850 0.795179 0.416093
v -0.416093 0.795179 0.495850
v 0.416093 0.933696 -0.495850
v -0.416093 0.933696 -0.495850
v 0.495850 0.933696 0.416093
v 0.495850 0.933696 -0.416093
v -0.495850 0.933696 0.416093
v -0.495850 0.933696 -0.416093
v 0.416093 0.933696 0.495850
v -0.416093 0.933696 0.495850
v 0.487219 0.431889 -0.571127
v 0.571127 0.431889 -0.487219
v 0.571127 0.431889 0.487219
v 0.487219 0.431889 0.571127
v -0.571127 0.431889 -0.487219
v -0.487219 0.431889 -0.571127
v -0.487219 0.431889 0.571127
v -0.571127 0.431889 0.487219
v 0.521663 0.795179 -0.437755
v 0.437755 0.795179 -0.521663
v 0.561621 0.685332 -0.477712
v 0.477712 0.685332 -0.561621
v 0.437755 0.795179 0.521663
v 0.521663 0.795179 0.437755
v 0.477712 0.729337 0.561621
v 0.561621 0.729337 0.477712
v -0.437755 0.795179 -0.521663
v -0.521663 0.795179 -0.437755
v -0.477712 0.729337 -0.561621
v -0.561621 0.729337 -0.477712
v -0.521663 0.795179 0.437755
v -0.437755 0.795179 0.521663
v -0.561621 0.729337 0.477712
v -0.477712 0.729337 0.561621
v 0.416093 0.795179 0.495850
v 0.495850 0.795179 0.416093
v 0.495850 0.795179 -0.416093
v 0.416093 0.795179 -0.495850
v 0.399143 0.933696 -0.475651
v 0.475651 0.933696 -0.399143
v 0.475651 0.933696 0.399143
v 0.399143 0.933696 0.475651
v -0.399143 0.933696 0.475651
v -0.475651 0.933696 0.399143
v -0.475651 0.933696 -0.399143
v -0.399143 0.933696 -0.475651
v 0.399143 1.695571 -0.475651
v 0.475651 1.695571 -0.399143
v 0.475651 1.695571 0.399143
v 0.399143 1.695571 0.475651
v -0.399143 1.695571 0.475651
v -0.475651 1.695571 0.399143
v -0.475651 1.695571 -0.399143
v -0.399143 1.695571 -0.475651
v 0.370189 1.732767 -0.441146
v 0.441146 1.732767 -0.370189
v 0.441146 1.732767 0.370189
v 0.370189 1.732767 0.441146
v -0.370189 1.732767 0.441146
v -0.441146 1.732767 0.370189
v -0.441146 1.732767 -0.370189
v -0.370189 1.732767 -0.441146
v 0.370189 1.753485 -0.441146
v 0.441146 1.753485 -0.370189
v 0.441146 1.753485 0.370189
v 0.370189 1.753485 0.441146
v -0.370189 1.753485 0.441146
v -0.441146 1.753485 0.370189
v -0.441146 1.753485 -0.370189
v -0.370189 1.753485 -0.441146
v 0.399212 1.785116 -0.475733
v 0.475733 1.785116 -0.399212
v 0.475733 1.785116 0.399212
v 0.399212 1.785116 0.475733
v -0.399212 1.785116 0.475733
v -0.475733 1.785116 0.399212
v -0.475733 1.785116 -0.399212
v -0.399212 1.785116 -0.475733
v 0.399212 2.769651 -0.475733
v 0.475733 2.769651 -0.399212
v 0.475733 2.769651 0.399212
v 0.399212 2.769651 0.475733
v -0.399212 2.769651 0.475733
v -0.475733 2.769651 0.399212
v -0.475733 2.769651 -0.399212
v -0.399212 2.769651 -0.475733
v 0.376851 2.801282 -0.449085
v 0.449085 2.801282 -0.376851
v 0.449085 2.801282 0.376851
v 0.376851 2.801282 0.449085
v -0.376851 2.801282 0.449085
v -0.449085 2.801282 0.376851
v -0.449085 2.801282 -0.376851
v -0.376851 2.801282 -0.449085
v 0.376851 2.817876 -0.449085
v 0.449085 2.817876 -0.376851
v 0.449085 2.817876 0.376851
v 0.376851 2.817876 0.449085
v -0.376851 2.817876 0.449085
v -0.449085 2.817876 0.376851
v -0.449085 2.817876 -0.376851
v -0.376851 2.817876 -0.449085
v 0.394568 2.850443 -0.470199
v 0.470199 2.850443 -0.394568
v 0.470199 2.850443 0.394568
v 0.394568 2.850443 0.470199
v -0.394568 2.850443 0.470199
v -0.470199 2.850443 0.394568
v -0.470199 2.850443 -0.394568
v -0.394568 2.850443 -0.470199
v 0.394568 3.753236 -0.470199
v 0.470199 3.753236 -0.394568
v 0.470199 3.753236 0.394568
v 0.394568 3.753236 0.470199
v -0.394568 3.753236 0.470199
v -0.470199 3.753236 0.394568
v -0.470199 3.753236 -0.394568
v -0.394568 3.753236 -0.470199
v 0.472947 3.753236 -0.563601
v 0.563601 3.753236 -0.472947
v 0.563601 3.753236 0.472947
v 0.472947 3.753236 0.563601
v -0.472947 3.753236 0.563601
v -0.563601 3.753236 0.472947
v -0.563601 3.753236 -0.472947
v -0.472947 3.753236 -0.563601
v 0.472947 4.027846 -0.563601
v 0.462182 4.073401 -0.537612
v 0.537612 4.073401 -0.462182
v 0.563601 4.027846 -0.472947
v 0.563601 4.027846 0.472947
v 0.537612 4.073401 0.462182
v 0.462182 4.073401 0.537612
v 0.472947 4.027846 0.563601
v -0.472947 4.027846 0.563601
v -0.462182 4.073401 0.537612
v -0.537612 4.073401 0.462182
v -0.563601 4.027846 0.472947
v -0.563601 4.027846 -0.472947
v -0.537612 4.073401 -0.462182
v -0.462182 4.073401 -0.537612
v -0.472947 4.027846 -0.563601
v -0.475651 1.467008 0.399143
v -0.475651 1.467008 -0.399143
v -0.362009 1.467008 -0.475651
v 0.370039 1.452456 -0.475651
v -0.356765 1.467008 0.475651
v 0.475651 1.467008 -0.399143
v 0.399143 1.467008 0.475651
v 0.475651 1.467008 0.399143
v -0.475733 2.487265 0.339182
v -0.475733 2.487265 -0.399212
v -0.399212 2.487265 -0.475733
v 0.399212 2.293447 -0.475733
v -0.399212 2.487265 0.475733
v 0.475733 2.293447 -0.399212
v 0.399212 2.293447 0.475733
v 0.475733 2.293447 0.399212
v -0.475733 2.628458 0.339182
v -0.355345 2.628458 -0.475733
v -0.399212 2.628458 0.475733
v 0.399212 2.434640 0.475733
v -0.475733 2.628458 -0.399212
v 0.399212 2.434640 -0.475733
v 0.475733 2.434640 -0.326282
v 0.475733 2.434640 0.399212
v -0.470199 3.053960 0.394568
v -0.470199 3.053960 -0.394568
v -0.355338 3.053960 -0.470199
v 0.394568 3.053960 -0.470199
v -0.336658 3.053960 0.470199
v 0.470199 3.053960 -0.394568
v 0.394568 3.053960 0.470199
v 0.470199 3.053960 0.394568
v -0.475651 1.275275 -0.399143
v 0.380502 1.265955 -0.475651
v 0.475651 1.275275 -0.399143
v 0.475651 1.275275 0.399143
v -0.475651 1.275275 0.399143
v -0.417411 1.275275 -0.475651
v -0.372000 1.275275 0.475651
v 0.399143 1.275275 0.475651
vn -0.0000 0.7071 0.7071
vn -0.0000 0.7071 -0.7071
vn -0.0000 0.0485 0.9988
vn -0.0000 0.0485 -0.9988
vn -0.9988 0.0485 -0.0000
vn -0.2345 0.9721 -0.0000
vn -0.7071 0.7071 -0.0000
vn 0.7071 0.7071 -0.0000
vn 0.9988 0.0485 -0.0000
vn 0.4082 0.8165 -0.4082
vn 0.4082 0.8165 0.4082
vn -0.4082 0.8165 0.4082
vn -0.4082 0.8165 -0.4082
vn -0.7054 0.0685 -0.7054
vn 0.7054 0.0685 -0.7054
vn 0.7054 0.0685 0.7054
vn -0.7054 0.0685 0.7054
vn -0.0000 -1.0000 -0.0000
vn -0.0000 0.9721 -0.2345
vn -0.1290 0.9832 -0.1290
vn -0.1290 0.9832 0.1290
vn -0.0000 0.9721 0.2345
vn 0.2345 0.9721 -0.0000
vn 0.1290 0.9832 0.1290
vn 0.1290 0.9832 -0.1290
vn -0.0000 1.0000 -0.0000
vn -0.0000 0.5188 0.8549
vn 0.0220 0.4984 -0.8666
vn 0.0017 0.3541 -0.9352
vn 0.0234 0.5082 -0.8609
vn -0.0000 0.0319 0.9995
vn 0.0012 0.0328 -0.9995
vn 0.0003 0.0365 -0.9993
vn -0.0000 0.0375 -0.9993
vn -0.9995 0.0319 -0.0000
vn -0.8549 0.5188 -0.0000
vn 0.8666 0.4984 -0.0220
vn 0.9352 0.3541 -0.0017
vn 0.9398 0.3418 -0.0000
vn 0.9993 0.0365 -0.0003
vn 0.9995 0.0328 -0.0012
vn 0.9993 0.0375 -0.0000
vn 0.6288 0.4574 -0.6288
vn 0.5366 0.6513 0.5366
vn -0.5366 0.6513 0.5366
vn -0.5366 0.6513 -0.5366
vn -0.7064 0.0452 -0.7064
vn 0.7061 0.0530 -0.7061
vn 0.7064 0.0452 0.7064
vn -0.7064 0.0452 0.7064
vn -1.0000 -0.0000 -0.0000
vn 0.4513 0.7699 0.4513
vn -0.0000 -0.0000 -1.0000
vn -0.5889 -0.0723 0.8050
vn -0.6536 -0.0343 0.7561
vn -0.7071 -0.0000 0.7071
vn 0.6235 -0.0524 -0.7801
vn 0.6721 -0.0228 -0.7401
vn 0.7071 -0.0000 -0.7071
vn -0.0000 -0.0000 1.0000
vn 1.0000 -0.0000 -0.0000
vn -0.6012 -0.0654 -0.7964
vn -0.6600 -0.0304 -0.7507
vn -0.5562 -0.0904 -0.8261
vn 0.7071 -0.0000 0.7071
vn -0.7331 0.6801 -0.0000
vn -0.0000 0.6801 -0.7331
vn -0.4513 0.7699 0.4513
vn 0.4513 0.7699 -0.4513
vn -0.0000 0.6801 0.7331
vn 0.7331 0.6801 -0.0000
vn -0.4513 0.7699 -0.4513
vn -0.4068 -0.8180 0.4068
vn 0.4068 -0.8180 -0.4068
vn -0.0000 -0.7379 0.6749
vn 0.6749 -0.7379 -0.0000
vn -0.4068 -0.8180 -0.4068
vn 0.4068 -0.8180 0.4068
vn -0.6749 -0.7379 -0.0000
vn -0.0000 -0.7379 -0.6749
vn -0.4767 0.7386 -0.4767
vn -0.8053 -0.1220 0.5802
vn -0.7943 -0.1064 0.5981
vn -0.8541 -0.2035 0.4786
vn 0.8578 -0.0800 -0.5077
vn 0.7652 -0.0279 -0.6432
vn 0.8858 -0.0987 -0.4535
vn -0.6079 -0.0976 -0.7880
vn -0.6253 -0.0817 -0.7761
vn -0.5291 -0.1644 -0.8325
vn 0.4767 0.7386 0.4767
vn -0.7648 0.6443 -0.0000
vn -0.0000 0.6443 -0.7648
vn -0.4767 0.7386 0.4767
vn 0.4767 0.7386 -0.4767
vn -0.0000 0.6443 0.7648
vn 0.7648 0.6443 -0.0000
vn -0.0000 -0.5440 -0.8391
vn -0.5406 -0.6446 0.5406
vn 0.5406 -0.6446 -0.5406
vn -0.0000 -0.5440 0.8391
vn 0.8391 -0.5440 -0.0000
vn -0.5406 -0.6446 -0.5406
vn 0.5406 -0.6446 0.5406
vn -0.8391 -0.5440 -0.0000
vn -0.5147 -0.0370 0.8566
vn -0.6814 -0.0055 0.7319
vn -0.5659 -0.0279 -0.8240
vn -0.6896 -0.0037 -0.7242
vn -0.5497 -0.0308 -0.8348
vn -0.7145 0.0611 -0.6970
vn -0.6310 0.1145 -0.7673
vn -0.5513 0.1593 -0.8189
vn 0.6100 0.0215 -0.7921
vn 0.6004 0.0126 -0.7996
vn 0.5867 -0.0000 -0.8098
vn -0.5729 0.0173 0.8194
vn -0.5611 0.0268 0.8273
vn -0.5939 -0.0000 0.8046
vn -0.7071 -0.0000 -0.7071
vn -0.7326 0.0057 0.6806
vn -0.8585 0.0378 0.5114
vn -0.8716 0.0418 0.4884
vn -0.6253 0.0817 -0.7761
vn -0.6079 0.0976 -0.7880
vn -0.5291 0.1644 -0.8325
vn 0.8066 0.1240 -0.5779
vn 0.8162 0.1384 -0.5609
vn 0.8664 0.2291 -0.4436
vn -0.8724 -0.0000 0.4889
vn -0.6522 0.0390 -0.7571
vn -0.5992 0.0736 -0.7972
vn -0.5469 0.1054 -0.8305
vn -0.6278 0.0553 0.7764
vn -0.5601 0.0975 0.8226
vn -0.6829 0.0106 0.7304
vn -0.6166 0.0380 0.7864
vn 0.6895 0.0308 -0.7237
vn 0.6428 0.0077 -0.7660
vn 0.6266 -0.0000 -0.7793
vn -0.7232 -0.0312 -0.6900
vn -0.7797 -0.0073 -0.6261
vn -0.7066 -0.0378 -0.7066
vn 0.6142 0.4955 -0.6142
vn 0.6142 0.4955 0.6142
vn -0.6142 0.4955 0.6142
vn -0.6142 0.4955 -0.6142
vn -0.0000 0.4955 -0.8686
vn 0.8686 0.4955 -0.0000
vn -0.8686 0.4955 -0.0000
vn -0.0000 0.4955 0.8686
vn -0.0000 0.3418 -0.9398
vn 0.0015 0.0319 -0.9995
vn 0.8609 0.5082 -0.0234
vn 0.9995 0.0319 -0.0015
vn -0.5385 -0.0998 0.8367
vn 0.5916 -0.0708 -0.8031
vn -0.4924 -0.0408 0.8694
vn -0.7957 -0.0000 -0.6057
vn 0.6242 0.0350 -0.7805
vn -0.5407 0.0430 0.8401
vn -0.4880 0.1389 0.8617
vn -0.5932 0.0471 0.8037
vn 0.7066 0.0396 -0.7066
s 1
usemtl Grey_Floor.001
f 34//1 27//1 25//1
f 22//2 31//2 29//2
f 27//3 19//3 16//3
f 31//4 13//4 18//4
f 35//5 17//5 20//5
f 30//6 7//6 6//6
f 30//7 35//7 33//7
f 26//8 23//8 21//8
f 23//9 15//9 14//9
f 22//10 23//10 24//10
f 27//11 26//11 25//11
f 35//12 34//12 33//12
f 31//13 30//13 29//13
f 32//14 18//14 17//14
f 14//15 24//15 23//15
f 16//16 28//16 27//16
f 20//17 36//17 35//17
f 20//18 18//18 14//18
f 29//19 12//19 22//19
f 30//20 5//20 29//20
f 33//21 8//21 7//21
f 25//22 8//22 34//22
f 26//23 11//23 10//23
f 26//24 9//24 25//24
f 21//25 12//25 11//25
f 1//26 37//26 4//26
f 74//27 67//27 65//27
f 69//28 64//29 71//30
f 67//31 59//31 56//31
f 58//32 64//33 53//34
f 75//35 57//35 60//35
f 70//36 75//36 73//36
f 66//37 63//38 61//39
f 63//40 55//41 54//42
f 64//43 61//43 63//43
f 65//44 68//44 66//44
f 75//45 74//45 73//45
f 69//46 72//46 70//46
f 72//47 58//47 57//47
f 54//48 64//48 63//48
f 56//49 68//49 67//49
f 60//50 76//50 75//50
f 60//18 58//18 54//18
f 73//26 42//26 70//26
f 69//26 80//26 62//26
f 62//26 79//26 61//26
f 66//26 77//26 65//26
f 61//26 78//26 66//26
f 65//26 44//26 74//26
f 74//26 43//26 73//26
f 70//26 41//26 69//26
f 185//51 95//51 186//51
f 91//52 100//52 92//52
f 187//53 89//53 188//53
f 185//54 93//55 94//56
f 190//57 89//58 90//59
f 189//60 92//60 93//60
f 190//61 91//61 192//61
f 186//62 96//63 187//64
f 192//65 92//65 191//65
f 94//66 103//66 95//66
f 96//67 97//67 89//67
f 94//68 101//68 102//68
f 90//69 97//69 98//69
f 92//70 101//70 93//70
f 90//71 99//71 91//71
f 95//72 104//72 96//72
f 110//73 117//73 118//73
f 201//51 127//51 205//51
f 106//74 113//74 114//74
f 108//75 117//75 109//75
f 106//76 115//76 107//76
f 111//77 120//77 112//77
f 107//78 116//78 108//78
f 110//79 119//79 111//79
f 112//80 113//80 105//80
f 128//81 135//81 136//81
f 202//53 121//53 206//53
f 203//82 126//83 201//84
f 206//85 122//86 207//87
f 203//60 124//60 125//60
f 207//61 123//61 208//61
f 205//88 128//89 202//90
f 208//65 124//65 204//65
f 124//91 131//91 132//91
f 126//92 135//92 127//92
f 128//93 129//93 121//93
f 125//94 134//94 126//94
f 121//95 130//95 122//95
f 124//96 133//96 125//96
f 122//97 131//97 123//97
f 144//98 145//98 137//98
f 209//51 159//51 210//51
f 141//99 150//99 142//99
f 137//100 146//100 138//100
f 140//101 149//101 141//101
f 138//102 147//102 139//102
f 144//103 151//103 152//103
f 140//104 147//104 148//104
f 142//105 151//105 143//105
f 211//53 153//53 212//53
f 209//106 157//107 158//56
f 212//59 154//59 214//59
f 213//60 156//60 157//60
f 214//61 155//61 216//61
f 210//108 160//109 211//110
f 216//65 156//65 215//65
f 220//65 191//65 224//65
f 222//111 186//112 187//113
f 219//61 192//61 220//61
f 224//60 189//60 223//60
f 219//114 188//115 190//116
f 223//117 185//118 221//119
f 218//53 187//53 188//53
f 221//51 186//51 217//51
f 115//65 199//65 116//65
f 119//120 195//120 120//120
f 114//61 200//61 115//61
f 117//60 199//60 197//60
f 113//59 198//59 114//59
f 118//121 197//122 193//123
f 120//53 196//53 113//53
f 119//51 193//51 194//51
f 200//65 204//65 199//65
f 195//124 205//125 202//126
f 200//61 207//61 208//61
f 197//60 204//60 203//60
f 198//127 206//128 207//129
f 197//130 201//130 193//130
f 195//53 206//53 196//53
f 193//51 205//51 194//51
f 147//65 215//65 148//65
f 152//131 210//132 211//133
f 146//61 216//61 147//61
f 148//60 213//60 149//60
f 145//59 214//59 146//59
f 149//134 209//135 150//56
f 145//53 211//53 212//53
f 150//51 210//51 151//51
f 86//51 217//51 87//51
f 88//53 218//53 81//53
f 85//136 221//137 86//56
f 82//138 218//139 219//140
f 84//60 223//60 85//60
f 82//61 220//61 83//61
f 87//141 222//142 88//143
f 83//65 224//65 84//65
f 34//1 36//1 27//1
f 22//2 24//2 31//2
f 27//3 36//3 19//3
f 31//4 24//4 13//4
f 35//5 32//5 17//5
f 30//6 33//6 7//6
f 30//7 32//7 35//7
f 26//8 28//8 23//8
f 23//9 28//9 15//9
f 22//10 21//10 23//10
f 27//11 28//11 26//11
f 35//12 36//12 34//12
f 31//13 32//13 30//13
f 32//14 31//14 18//14
f 14//15 13//15 24//15
f 16//16 15//16 28//16
f 20//17 19//17 36//17
f 14//18 15//18 16//18
f 16//18 19//18 20//18
f 20//18 17//18 18//18
f 18//18 13//18 14//18
f 14//18 16//18 20//18
f 29//19 5//19 12//19
f 30//20 6//20 5//20
f 33//21 34//21 8//21
f 25//22 9//22 8//22
f 26//23 21//23 11//23
f 26//24 10//24 9//24
f 21//25 22//25 12//25
f 4//26 3//26 39//26
f 39//26 40//26 1//26
f 1//26 2//26 37//26
f 37//26 38//26 4//26
f 4//26 39//26 1//26
f 74//27 76//27 67//27
f 69//28 62//152 64//29
f 67//31 76//31 59//31
f 58//32 71//153 64//33
f 75//35 72//35 57//35
f 70//36 72//36 75//36
f 66//37 68//154 63//38
f 63//40 68//155 55//41
f 64//43 62//43 61//43
f 65//44 67//44 68//44
f 75//45 76//45 74//45
f 69//46 71//46 72//46
f 72//47 71//47 58//47
f 54//48 53//48 64//48
f 56//49 55//49 68//49
f 60//50 59//50 76//50
f 54//18 55//18 56//18
f 56//18 59//18 60//18
f 60//18 57//18 58//18
f 58//18 53//18 54//18
f 54//18 56//18 60//18
f 73//26 43//26 42//26
f 69//26 41//26 80//26
f 62//26 80//26 79//26
f 66//26 78//26 77//26
f 61//26 79//26 78//26
f 65//26 77//26 44//26
f 74//26 44//26 43//26
f 70//26 42//26 41//26
f 185//51 94//51 95//51
f 91//52 99//52 100//52
f 187//53 96//53 89//53
f 185//54 189//156 93//55
f 190//57 188//157 89//58
f 189//60 191//60 92//60
f 190//61 90//61 91//61
f 186//62 95//120 96//63
f 192//65 91//65 92//65
f 94//66 102//66 103//66
f 96//67 104//67 97//67
f 94//68 93//68 101//68
f 90//69 89//69 97//69
f 92//70 100//70 101//70
f 90//71 98//71 99//71
f 95//72 103//72 104//72
f 110//73 109//73 117//73
f 201//51 126//51 127//51
f 106//74 105//74 113//74
f 108//75 116//75 117//75
f 106//76 114//76 115//76
f 111//77 119//77 120//77
f 107//78 115//78 116//78
f 110//79 118//79 119//79
f 112//80 120//80 113//80
f 128//81 127//81 135//81
f 202//53 128//53 121//53
f 203//82 125//56 126//83
f 206//85 121//59 122//86
f 203//60 204//60 124//60
f 207//61 122//61 123//61
f 205//88 127//120 128//89
f 208//65 123//65 124//65
f 124//91 123//91 131//91
f 126//92 134//92 135//92
f 128//93 136//93 129//93
f 125//94 133//94 134//94
f 121//95 129//95 130//95
f 124//96 132//96 133//96
f 122//97 130//97 131//97
f 144//98 152//98 145//98
f 209//51 158//51 159//51
f 141//99 149//99 150//99
f 137//100 145//100 146//100
f 140//101 148//101 149//101
f 138//102 146//102 147//102
f 144//103 143//103 151//103
f 140//104 139//104 147//104
f 142//105 150//105 151//105
f 211//53 160//53 153//53
f 209//106 213//158 157//107
f 212//59 153//59 154//59
f 213//60 215//60 156//60
f 214//61 154//61 155//61
f 210//108 159//120 160//109
f 216//65 155//65 156//65
f 220//65 192//65 191//65
f 222//111 217//159 186//112
f 219//61 190//61 192//61
f 224//60 191//60 189//60
f 219//114 218//160 188//115
f 223//117 189//161 185//118
f 218//53 222//53 187//53
f 221//51 185//51 186//51
f 115//65 200//65 199//65
f 119//120 194//120 195//120
f 114//61 198//61 200//61
f 117//60 116//60 199//60
f 113//59 196//59 198//59
f 118//121 117//56 197//122
f 120//53 195//53 196//53
f 119//51 118//51 193//51
f 200//65 208//65 204//65
f 195//124 194//120 205//125
f 200//61 198//61 207//61
f 197//60 199//60 204//60
f 198//127 196//59 206//128
f 197//130 203//130 201//130
f 195//53 202//53 206//53
f 193//51 201//51 205//51
f 147//65 216//65 215//65
f 152//131 151//120 210//132
f 146//61 214//61 216//61
f 148//60 215//60 213//60
f 145//59 212//59 214//59
f 149//134 213//162 209//135
f 145//53 152//53 211//53
f 150//51 209//51 210//51
f 86//51 221//51 217//51
f 88//53 222//53 218//53
f 85//136 223//163 221//137
f 82//138 81//164 218//139
f 84//60 224//60 223//60
f 82//61 219//61 220//61
f 87//141 217//159 222//142
f 83//65 220//65 224//65
usemtl DarkGrey_Floor
f 8//56 3//56 7//56
f 5//53 37//53 12//53
f 11//61 1//61 10//61
f 7//51 4//51 6//51
f 9//60 39//60 8//60
f 10//65 40//65 9//65
f 6//120 38//120 5//120
f 12//59 2//59 11//59
f 79//61 47//61 78//61
f 42//120 46//120 41//120
f 78//65 51//65 77//65
f 77//60 52//60 44//60
f 41//53 45//53 80//53
f 44//56 49//56 43//56
f 80//59 48//59 79//59
f 47//26 84//26 51//26
f 43//51 50//51 42//51
f 51//26 85//26 52//26
f 46//26 81//26 45//26
f 52//26 86//26 49//26
f 45//26 82//26 48//26
f 49//26 87//26 50//26
f 48//26 83//26 47//26
f 50//26 88//26 46//26
f 100//60 109//60 101//60
f 98//61 107//61 99//61
f 103//120 112//120 104//120
f 99//65 108//65 100//65
f 102//51 111//51 103//51
f 104//53 105//53 97//53
f 101//56 110//56 102//56
f 97//59 106//59 98//59
f 132//60 141//60 133//60
f 130//61 139//61 131//61
f 135//120 144//120 136//120
f 131//65 140//65 132//65
f 134//51 143//51 135//51
f 136//53 137//53 129//53
f 133//56 142//56 134//56
f 129//59 138//59 130//59
f 155//18 162//18 163//18
f 162//61 173//61 163//61
f 159//18 168//18 160//18
f 155//18 164//18 156//18
f 159//18 166//18 167//18
f 153//18 168//18 161//18
f 157//18 166//18 158//18
f 153//18 162//18 154//18
f 157//18 164//18 165//18
f 168//53 169//53 161//53
f 165//56 180//56 166//56
f 163//65 176//65 164//65
f 164//60 177//60 165//60
f 167//120 184//120 168//120
f 161//59 172//59 162//59
f 166//51 181//51 167//51
f 170//144 172//144 169//144
f 175//145 173//145 174//145
f 178//146 180//146 177//146
f 183//147 181//147 182//147
f 170//148 184//148 183//148
f 174//149 172//149 171//149
f 180//150 182//150 181//150
f 176//151 178//151 177//151
f 179//26 175//26 171//26
f 8//56 39//56 3//56
f 5//53 38//53 37//53
f 11//61 2//61 1//61
f 7//51 3//51 4//51
f 9//60 40//60 39//60
f 10//65 1//65 40//65
f 6//120 4//120 38//120
f 12//59 37//59 2//59
f 79//61 48//61 47//61
f 42//120 50//120 46//120
f 78//65 47//65 51//65
f 77//60 51//60 52//60
f 41//53 46//53 45//53
f 44//56 52//56 49//56
f 80//59 45//59 48//59
f 47//26 83//26 84//26
f 43//51 49//51 50//51
f 51//26 84//26 85//26
f 46//26 88//26 81//26
f 52//26 85//26 86//26
f 45//26 81//26 82//26
f 49//26 86//26 87//26
f 48//26 82//26 83//26
f 50//26 87//26 88//26
f 100//60 108//60 109//60
f 98//61 106//61 107//61
f 103//120 111//120 112//120
f 99//65 107//65 108//65
f 102//51 110//51 111//51
f 104//53 112//53 105//53
f 101//56 109//56 110//56
f 97//59 105//59 106//59
f 132//60 140//60 141//60
f 130//61 138//61 139//61
f 135//120 143//120 144//120
f 131//65 139//65 140//65
f 134//51 142//51 143//51
f 136//53 144//53 137//53
f 133//56 141//56 142//56
f 129//59 137//59 138//59
f 155//18 154//18 162//18
f 162//61 172//61 173//61
f 159//18 167//18 168//18
f 155//18 163//18 164//18
f 159//18 158//18 166//18
f 153//18 160//18 168//18
f 157//18 165//18 166//18
f 153//18 161//18 162//18
f 157//18 156//18 164//18
f 168//53 184//53 169//53
f 165//56 177//56 180//56
f 163//65 173//65 176//65
f 164//60 176//60 177//60
f 167//120 181//120 184//120
f 161//59 169//59 172//59
f 166//51 180//51 181//51
f 170//144 171//144 172//144
f 175//145 176//145 173//145
f 178//146 179//146 180//146
f 183//147 184//147 181//147
f 170//148 169//148 184//148
f 174//149 173//149 172//149
f 180//150 179//150 182//150
f 176//151 175//151 178//151
f 171//26 170//26 183//26
f 183//26 182//26 179//26
f 179//26 178//26 175//26
f 175//26 174//26 171//26
f 171//26 183//26 179//26
