# Blender 4.0.2
# www.blender.org
mtllib five.mtl
o five
v -0.369869 0.486246 0.000000
v -0.363944 0.483707 0.000000
v -0.359712 0.487093 0.000000
v -0.363098 0.491325 0.000000
v -0.368176 0.493017 0.000000
v -0.355480 0.483707 0.000000
v -0.353788 0.478206 0.000000
v -0.353788 0.473127 0.000000
v -0.349979 0.467203 0.000000
v -0.335590 0.459162 0.000000
v -0.320779 0.454084 0.000000
v -0.305121 0.453237 0.000000
v -0.303428 0.449852 0.000000
v -0.294541 0.446466 0.000000
v -0.277190 0.441811 0.000000
v -0.264494 0.438426 0.000000
v -0.251375 0.438426 0.000000
v -0.223445 0.437579 0.000000
v -0.138807 0.431655 0.000000
v -0.123149 0.429116 0.000000
v -0.108337 0.421921 0.000000
v -0.104951 0.411765 0.000000
v -0.101566 0.394414 0.000000
v -0.095218 0.375370 0.000000
v -0.095218 0.367330 0.000000
v -0.092679 0.350825 0.000000
v -0.091832 0.335590 0.000000
v -0.095218 0.318240 0.000000
v -0.098603 0.313584 0.000000
v -0.110876 0.309353 0.000000
v -0.119763 0.306813 0.000000
v -0.123995 0.307660 0.000000
v -0.134998 0.306813 0.000000
v -0.143039 0.303428 0.000000
v -0.151502 0.305121 0.000000
v -0.164621 0.298350 0.000000
v -0.181126 0.294541 0.000000
v -0.195091 0.292002 0.000000
v -0.216674 0.284384 0.000000
v -0.233178 0.274651 0.000000
v -0.247143 0.256454 0.000000
v -0.255607 0.243335 0.000000
v -0.257300 0.235717 0.000000
v -0.267033 0.220059 0.000000
v -0.268726 0.211595 0.000000
v -0.274651 0.203555 0.000000
v -0.275497 0.195091 0.000000
v -0.283538 0.187897 0.000000
v -0.285231 0.170546 0.000000
v -0.284384 0.151502 0.000000
v -0.277190 0.132459 0.000000
v -0.267880 0.119763 0.000000
v -0.264494 0.114262 0.000000
v -0.257300 0.107490 0.000000
v -0.248836 0.090986 0.000000
v -0.232332 0.074482 0.000000
v -0.220906 0.059670 0.000000
v -0.209056 0.050360 0.000000
v -0.190859 0.034702 0.000000
v -0.180279 0.027931 0.000000
v -0.162928 0.022429 0.000000
v -0.141346 0.012273 0.000000
v -0.128227 0.008464 0.000000
v -0.116801 0.007617 0.000000
v -0.096064 0.004232 0.000000
v -0.076174 0.008464 0.000000
v -0.059670 0.016504 0.000000
v -0.046974 0.025815 0.000000
v -0.040626 0.035548 0.000000
v -0.039780 0.046974 0.000000
v -0.037241 0.052052 0.000000
v -0.038934 0.056284 0.000000
v -0.039780 0.060516 0.000000
v -0.046974 0.062209 0.000000
v -0.054592 0.056284 0.000000
v -0.059670 0.048667 0.000000
v -0.069403 0.038934 0.000000
v -0.079560 0.034702 0.000000
v -0.096911 0.032163 0.000000
v -0.115954 0.034702 0.000000
v -0.127380 0.038934 0.000000
v -0.143039 0.042319 0.000000
v -0.158697 0.052052 0.000000
v -0.173508 0.057977 0.000000
v -0.184511 0.071096 0.000000
v -0.199323 0.083369 0.000000
v -0.214981 0.102412 0.000000
v -0.225138 0.118917 0.000000
v -0.239103 0.134998 0.000000
v -0.247143 0.146424 0.000000
v -0.252222 0.154465 0.000000
v -0.255607 0.163775 0.000000
v -0.254761 0.171815 0.000000
v -0.251375 0.187050 0.000000
v -0.242488 0.200169 0.000000
v -0.233178 0.218366 0.000000
v -0.225138 0.232332 0.000000
v -0.213288 0.244604 0.000000
v -0.208210 0.251375 0.000000
v -0.199323 0.255607 0.000000
v -0.183665 0.258993 0.000000
v -0.163775 0.258993 0.000000
v -0.143885 0.266187 0.000000
v -0.096911 0.266187 0.000000
v -0.079560 0.264494 0.000000
v -0.067711 0.266187 0.000000
v -0.057131 0.271265 0.000000
v -0.049513 0.283538 0.000000
v -0.046974 0.302581 0.000000
v -0.040626 0.323318 0.000000
v -0.040626 0.343208 0.000000
v -0.039780 0.367330 0.000000
v -0.040626 0.382141 0.000000
v -0.044012 0.402031 0.000000
v -0.044012 0.419382 0.000000
v -0.036394 0.426576 0.000000
v -0.027931 0.438426 0.000000
v -0.026661 0.446466 0.000000
v -0.027931 0.457469 0.000000
v -0.033009 0.469742 0.000000
v -0.033009 0.473974 0.000000
v -0.036394 0.482861 0.000000
v -0.034702 0.495557 0.000000
v -0.034702 0.506136 0.000000
v -0.040626 0.515870 0.000000
v -0.052052 0.522641 0.000000
v -0.063479 0.526026 0.000000
v -0.071096 0.527719 0.000000
v -0.089293 0.523487 0.000000
v -0.108337 0.515870 0.000000
v -0.123995 0.509522 0.000000
v -0.136267 0.503597 0.000000
v -0.160389 0.498519 0.000000
v -0.179433 0.493017 0.000000
v -0.196784 0.491325 0.000000
v -0.213288 0.487093 0.000000
v -0.234871 0.487093 0.000000
v -0.253068 0.490478 0.000000
v -0.267033 0.490478 0.000000
v -0.283538 0.487093 0.000000
v -0.300042 0.487093 0.000000
v -0.314431 0.489632 0.000000
v -0.329242 0.493017 0.000000
v -0.344054 0.491325 0.000000
v -0.353788 0.489632 0.000000
vn -0.0000 -0.0000 -1.0000
vt 0.875000 0.000000
vt 0.888889 0.000000
vt 0.881944 0.000000
vt 0.868056 0.000000
vt 0.895833 0.000000
vt 0.861111 0.000000
vt 0.854167 0.000000
vt 0.902778 0.000000
vt 0.909722 0.000000
vt 0.847222 0.000000
vt 0.916667 0.000000
vt 0.923611 0.000000
vt 0.840278 0.000000
vt 0.930556 0.000000
vt 0.979167 0.000000
vt 0.993056 0.000000
vt 0.986111 0.000000
vt 0.937500 0.000000
vt 1.000000 0.000000
vt 0.944444 0.000000
vt 0.958333 0.000000
vt 0.951389 0.000000
vt 0.965278 0.000000
vt 0.972222 0.000000
vt 0.034722 0.000000
vt 0.041667 0.000000
vt 0.833333 0.000000
vt 0.048611 0.000000
vt 0.826389 0.000000
vt 0.055556 0.000000
vt 0.819444 0.000000
vt 0.062500 0.000000
vt 0.069444 0.000000
vt 0.812500 0.000000
vt 0.076389 0.000000
vt 0.083333 0.000000
vt 0.090278 0.000000
vt 0.805556 0.000000
vt 0.097222 0.000000
vt 0.104167 0.000000
vt 0.798611 0.000000
vt 0.118056 0.000000
vt 0.111111 0.000000
vt 0.125000 0.000000
vt 0.131944 0.000000
vt 0.138889 0.000000
vt 0.791667 0.000000
vt 0.145833 0.000000
vt 0.784722 0.000000
vt 0.152778 0.000000
vt 0.777778 0.000000
vt 0.159722 0.000000
vt 0.770833 0.000000
vt 0.166667 0.000000
vt 0.763889 0.000000
vt 0.173611 0.000000
vt 0.180556 0.000000
vt 0.756944 0.000000
vt 0.187500 0.000000
vt 0.750000 0.000000
vt 0.194444 0.000000
vt 0.201389 0.000000
vt 0.208333 0.000000
vt 0.222222 0.000000
vt 0.215278 0.000000
vt 0.229167 0.000000
vt 0.243056 0.000000
vt 0.236111 0.000000
vt 0.743056 0.000000
vt 0.250000 0.000000
vt 0.256944 0.000000
vt 0.263889 0.000000
vt 0.270833 0.000000
vt 0.736111 0.000000
vt 0.708333 0.000000
vt 0.277778 0.000000
vt 0.729167 0.000000
vt 0.722222 0.000000
vt 0.715278 0.000000
vt 0.701389 0.000000
vt 0.694444 0.000000
vt 0.687500 0.000000
vt 0.284722 0.000000
vt 0.680556 0.000000
vt 0.673611 0.000000
vt 0.666667 0.000000
vt 0.291667 0.000000
vt 0.298611 0.000000
vt 0.659722 0.000000
vt 0.305556 0.000000
vt 0.652778 0.000000
vt 0.312500 0.000000
vt 0.319444 0.000000
vt 0.645833 0.000000
vt 0.326389 0.000000
vt 0.333333 0.000000
vt 0.638889 0.000000
vt 0.631944 0.000000
vt 0.340278 0.000000
vt 0.625000 0.000000
vt 0.618056 0.000000
vt 0.347222 0.000000
vt 0.611111 0.000000
vt 0.604167 0.000000
vt 0.354167 0.000000
vt 0.361111 0.000000
vt 0.597222 0.000000
vt 0.368056 0.000000
vt 0.375000 0.000000
vt 0.590278 0.000000
vt 0.381944 0.000000
vt 0.583333 0.000000
vt 0.388889 0.000000
vt 0.576389 0.000000
vt 0.500000 0.000000
vt 0.513889 0.000000
vt 0.506944 0.000000
vt 0.493056 0.000000
vt 0.395833 0.000000
vt 0.569444 0.000000
vt 0.486111 0.000000
vt 0.520833 0.000000
vt 0.479167 0.000000
vt 0.562500 0.000000
vt 0.402778 0.000000
vt 0.527778 0.000000
vt 0.472222 0.000000
vt 0.555556 0.000000
vt 0.534722 0.000000
vt 0.548611 0.000000
vt 0.465278 0.000000
vt 0.541667 0.000000
vt 0.409722 0.000000
vt 0.416667 0.000000
vt 0.458333 0.000000
vt 0.423611 0.000000
vt 0.451389 0.000000
vt 0.430556 0.000000
vt 0.444444 0.000000
vt 0.437500 0.000000
vt 0.020833 0.000000
vt 0.000000 0.000000
vt 0.027778 0.000000
vt 0.013889 0.000000
vt 0.006944 0.000000
s 0
usemtl text
f 127/1/1 129/2/1 128/3/1
f 126/4/1 129/2/1 127/1/1
f 126/4/1 130/5/1 129/2/1
f 125/6/1 130/5/1 126/4/1
f 124/7/1 130/5/1 125/6/1
f 124/7/1 131/8/1 130/5/1
f 124/7/1 132/9/1 131/8/1
f 123/10/1 132/9/1 124/7/1
f 123/10/1 133/11/1 132/9/1
f 123/10/1 134/12/1 133/11/1
f 122/13/1 134/12/1 123/10/1
f 122/13/1 135/14/1 134/12/1
f 142/15/1 144/16/1 143/17/1
f 122/13/1 136/18/1 135/14/1
f 142/15/1 145/19/1 144/16/1
f 137/20/1 139/21/1 138/22/1
f 137/20/1 140/23/1 139/21/1
f 141/24/1 145/19/1 142/15/1
f 141/24/1 6/25/1 145/19/1
f 122/13/1 137/20/1 136/18/1
f 122/13/1 140/23/1 137/20/1
f 122/13/1 141/24/1 140/23/1
f 122/13/1 6/25/1 141/24/1
f 122/13/1 7/26/1 6/25/1
f 121/27/1 7/26/1 122/13/1
f 121/27/1 8/28/1 7/26/1
f 120/29/1 8/28/1 121/27/1
f 120/29/1 9/30/1 8/28/1
f 119/31/1 9/30/1 120/29/1
f 119/31/1 10/32/1 9/30/1
f 119/31/1 11/33/1 10/32/1
f 118/34/1 11/33/1 119/31/1
f 118/34/1 12/35/1 11/33/1
f 118/34/1 13/36/1 12/35/1
f 118/34/1 14/37/1 13/36/1
f 117/38/1 14/37/1 118/34/1
f 117/38/1 15/39/1 14/37/1
f 117/38/1 16/40/1 15/39/1
f 116/41/1 18/42/1 117/38/1
f 18/42/1 17/43/1 117/38/1
f 17/43/1 16/40/1 117/38/1
f 116/41/1 19/44/1 18/42/1
f 116/41/1 20/45/1 19/44/1
f 116/41/1 21/46/1 20/45/1
f 115/47/1 21/46/1 116/41/1
f 115/47/1 22/48/1 21/46/1
f 114/49/1 22/48/1 115/47/1
f 114/49/1 23/50/1 22/48/1
f 113/51/1 23/50/1 114/49/1
f 113/51/1 24/52/1 23/50/1
f 112/53/1 24/52/1 113/51/1
f 112/53/1 25/54/1 24/52/1
f 111/55/1 25/54/1 112/53/1
f 111/55/1 26/56/1 25/54/1
f 111/55/1 27/57/1 26/56/1
f 110/58/1 27/57/1 111/55/1
f 110/58/1 28/59/1 27/57/1
f 109/60/1 28/59/1 110/58/1
f 109/60/1 29/61/1 28/59/1
f 109/60/1 30/62/1 29/61/1
f 109/60/1 31/63/1 30/62/1
f 31/63/1 33/64/1 32/65/1
f 109/60/1 33/64/1 31/63/1
f 109/60/1 34/66/1 33/64/1
f 34/66/1 36/67/1 35/68/1
f 109/60/1 36/67/1 34/66/1
f 108/69/1 36/67/1 109/60/1
f 108/69/1 37/70/1 36/67/1
f 108/69/1 38/71/1 37/70/1
f 108/69/1 39/72/1 38/71/1
f 108/69/1 40/73/1 39/72/1
f 107/74/1 40/73/1 108/69/1
f 107/74/1 103/75/1 40/73/1
f 103/75/1 41/76/1 40/73/1
f 106/77/1 103/75/1 107/74/1
f 105/78/1 104/79/1 106/77/1
f 104/79/1 103/75/1 106/77/1
f 102/80/1 101/81/1 103/75/1
f 101/81/1 41/76/1 103/75/1
f 100/82/1 41/76/1 101/81/1
f 100/82/1 42/83/1 41/76/1
f 99/84/1 42/83/1 100/82/1
f 98/85/1 42/83/1 99/84/1
f 97/86/1 42/83/1 98/85/1
f 97/86/1 43/87/1 42/83/1
f 97/86/1 44/88/1 43/87/1
f 96/89/1 44/88/1 97/86/1
f 96/89/1 45/90/1 44/88/1
f 95/91/1 45/90/1 96/89/1
f 95/91/1 46/92/1 45/90/1
f 95/91/1 47/93/1 46/92/1
f 94/94/1 47/93/1 95/91/1
f 94/94/1 48/95/1 47/93/1
f 94/94/1 49/96/1 48/95/1
f 93/97/1 49/96/1 94/94/1
f 92/98/1 49/96/1 93/97/1
f 92/98/1 50/99/1 49/96/1
f 91/100/1 50/99/1 92/98/1
f 90/101/1 50/99/1 91/100/1
f 90/101/1 51/102/1 50/99/1
f 89/103/1 51/102/1 90/101/1
f 88/104/1 51/102/1 89/103/1
f 88/104/1 52/105/1 51/102/1
f 88/104/1 53/106/1 52/105/1
f 87/107/1 53/106/1 88/104/1
f 87/107/1 54/108/1 53/106/1
f 87/107/1 55/109/1 54/108/1
f 86/110/1 55/109/1 87/107/1
f 86/110/1 56/111/1 55/109/1
f 85/112/1 56/111/1 86/110/1
f 85/112/1 57/113/1 56/111/1
f 84/114/1 57/113/1 85/112/1
f 73/115/1 75/116/1 74/117/1
f 72/118/1 75/116/1 73/115/1
f 84/114/1 58/119/1 57/113/1
f 83/120/1 58/119/1 84/114/1
f 71/121/1 75/116/1 72/118/1
f 71/121/1 76/122/1 75/116/1
f 70/123/1 76/122/1 71/121/1
f 82/124/1 58/119/1 83/120/1
f 82/124/1 59/125/1 58/119/1
f 70/123/1 77/126/1 76/122/1
f 69/127/1 77/126/1 70/123/1
f 81/128/1 59/125/1 82/124/1
f 69/127/1 78/129/1 77/126/1
f 80/130/1 59/125/1 81/128/1
f 68/131/1 78/129/1 69/127/1
f 68/131/1 79/132/1 78/129/1
f 79/132/1 59/125/1 80/130/1
f 79/132/1 60/133/1 59/125/1
f 68/131/1 60/133/1 79/132/1
f 68/131/1 61/134/1 60/133/1
f 67/135/1 61/134/1 68/131/1
f 67/135/1 62/136/1 61/134/1
f 66/137/1 62/136/1 67/135/1
f 66/137/1 63/138/1 62/136/1
f 65/139/1 64/140/1 66/137/1
f 64/140/1 63/138/1 66/137/1
f 4/141/1 1/142/1 5/143/1
f 3/144/1 1/142/1 4/141/1
f 2/145/1 1/142/1 3/144/1
