# Blender 4.0.2
# www.blender.org
mtllib one.mtl
o one
v -0.041473 0.524333 0.000000
v -0.036394 0.519255 0.000000
v -0.027931 0.517562 0.000000
v -0.020736 0.525180 0.000000
v -0.023275 0.533220 0.000000
v -0.033009 0.536606 0.000000
v -0.040626 0.531105 0.000000
v -0.205248 0.557342 0.000000
v -0.203555 0.552264 0.000000
v -0.203555 0.543377 0.000000
v -0.201016 0.536606 0.000000
v -0.196784 0.521794 0.000000
v -0.196784 0.511215 0.000000
v -0.192552 0.504444 0.000000
v -0.195937 0.488785 0.000000
v -0.195937 0.471435 0.000000
v -0.191705 0.453237 0.000000
v -0.187897 0.415150 0.000000
v -0.184511 0.397799 0.000000
v -0.185358 0.376217 0.000000
v -0.183665 0.355480 0.000000
v -0.183665 0.337283 0.000000
v -0.184511 0.321625 0.000000
v -0.181972 0.304274 0.000000
v -0.181126 0.289463 0.000000
v -0.181126 0.266187 0.000000
v -0.176894 0.250529 0.000000
v -0.176894 0.234025 0.000000
v -0.173508 0.214135 0.000000
v -0.169700 0.197630 0.000000
v -0.165468 0.162082 0.000000
v -0.164621 0.141346 0.000000
v -0.163775 0.132459 0.000000
v -0.159543 0.126534 0.000000
v -0.163775 0.113415 0.000000
v -0.162082 0.094372 0.000000
v -0.163775 0.073635 0.000000
v -0.163775 0.054592 0.000000
v -0.164621 0.046974 0.000000
v -0.163775 0.041473 0.000000
v -0.168853 0.030470 0.000000
v -0.171815 0.020736 0.000000
v -0.168853 0.005925 0.000000
v -0.164621 0.001693 0.000000
v -0.157850 0.001693 0.000000
v -0.152349 0.005925 0.000000
v -0.147270 0.022429 0.000000
v -0.143885 0.037241 0.000000
v -0.140499 0.061363 0.000000
v -0.139653 0.077867 0.000000
v -0.137114 0.105798 0.000000
v -0.137960 0.133305 0.000000
v -0.137960 0.161236 0.000000
v -0.140499 0.196784 0.000000
v -0.140499 0.278036 0.000000
v -0.137114 0.311892 0.000000
v -0.132459 0.339822 0.000000
v -0.129920 0.365637 0.000000
v -0.124841 0.389336 0.000000
v -0.121456 0.412611 0.000000
v -0.120609 0.440118 0.000000
v -0.121456 0.454930 0.000000
v -0.120609 0.467203 0.000000
v -0.118070 0.472281 0.000000
v -0.112569 0.475667 0.000000
v -0.099873 0.472281 0.000000
v -0.088447 0.465510 0.000000
v -0.079560 0.454930 0.000000
v -0.068557 0.445620 0.000000
v -0.049513 0.420229 0.000000
v -0.040626 0.407533 0.000000
v -0.038087 0.399492 0.000000
v -0.033855 0.392721 0.000000
v -0.027931 0.381295 0.000000
v -0.013965 0.373678 0.000000
v -0.005925 0.371985 0.000000
v 0.002539 0.372831 0.000000
v 0.006771 0.377063 0.000000
v 0.010580 0.384680 0.000000
v 0.011426 0.395260 0.000000
v 0.008464 0.405417 0.000000
v 0.002539 0.419382 0.000000
v -0.001693 0.427423 0.000000
v -0.005925 0.443927 0.000000
v -0.008464 0.457469 0.000000
v -0.013965 0.469742 0.000000
v -0.025815 0.485400 0.000000
v -0.036394 0.492171 0.000000
v -0.047821 0.504444 0.000000
v -0.052899 0.511215 0.000000
v -0.056284 0.519255 0.000000
v -0.056284 0.525180 0.000000
v -0.060516 0.535760 0.000000
v -0.065171 0.540838 0.000000
v -0.073635 0.547609 0.000000
v -0.080406 0.551418 0.000000
v -0.100719 0.576386 0.000000
v -0.108337 0.588658 0.000000
v -0.113415 0.597122 0.000000
v -0.120609 0.599661 0.000000
v -0.129073 0.606009 0.000000
v -0.143885 0.608548 0.000000
v -0.157850 0.607702 0.000000
v -0.171815 0.603047 0.000000
v -0.184511 0.597122 0.000000
v -0.195937 0.588658 0.000000
v -0.203555 0.577232 0.000000
v -0.205248 0.567499 0.000000
vn -0.0000 -0.0000 -1.0000
vt 0.934579 0.000000
vt 0.953271 0.000000
vt 0.943925 0.000000
vt 0.962617 0.000000
vt 0.925234 0.000000
vt 0.971963 0.000000
vt 0.915888 0.000000
vt 0.906542 0.000000
vt 0.981308 0.000000
vt 0.897196 0.000000
vt 0.990654 0.000000
vt 1.000000 0.000000
vt 0.887850 0.000000
vt 0.065421 0.000000
vt 0.074766 0.000000
vt 0.084112 0.000000
vt 0.878505 0.000000
vt 0.869159 0.000000
vt 0.093458 0.000000
vt 0.859813 0.000000
vt 0.037383 0.000000
vt 0.056075 0.000000
vt 0.046729 0.000000
vt 0.102804 0.000000
vt 0.850467 0.000000
vt 0.028037 0.000000
vt 0.000000 0.000000
vt 0.018692 0.000000
vt 0.841121 0.000000
vt 0.009346 0.000000
vt 0.112150 0.000000
vt 0.831776 0.000000
vt 0.822430 0.000000
vt 0.121495 0.000000
vt 0.813084 0.000000
vt 0.130841 0.000000
vt 0.803738 0.000000
vt 0.140187 0.000000
vt 0.794393 0.000000
vt 0.598131 0.000000
vt 0.607477 0.000000
vt 0.588785 0.000000
vt 0.616822 0.000000
vt 0.579439 0.000000
vt 0.149533 0.000000
vt 0.785047 0.000000
vt 0.570093 0.000000
vt 0.626168 0.000000
vt 0.775701 0.000000
vt 0.635514 0.000000
vt 0.560748 0.000000
vt 0.158879 0.000000
vt 0.644860 0.000000
vt 0.766355 0.000000
vt 0.551402 0.000000
vt 0.757009 0.000000
vt 0.654206 0.000000
vt 0.747664 0.000000
vt 0.168224 0.000000
vt 0.542056 0.000000
vt 0.663551 0.000000
vt 0.738318 0.000000
vt 0.672897 0.000000
vt 0.177570 0.000000
vt 0.728972 0.000000
vt 0.682243 0.000000
vt 0.532710 0.000000
vt 0.719626 0.000000
vt 0.691589 0.000000
vt 0.710280 0.000000
vt 0.186916 0.000000
vt 0.700935 0.000000
vt 0.523364 0.000000
vt 0.196262 0.000000
vt 0.514019 0.000000
vt 0.205607 0.000000
vt 0.214953 0.000000
vt 0.504673 0.000000
vt 0.224299 0.000000
vt 0.233645 0.000000
vt 0.495327 0.000000
vt 0.242991 0.000000
vt 0.252336 0.000000
vt 0.261682 0.000000
vt 0.271028 0.000000
vt 0.280374 0.000000
vt 0.485981 0.000000
vt 0.289720 0.000000
vt 0.476636 0.000000
vt 0.299065 0.000000
vt 0.467290 0.000000
vt 0.308411 0.000000
vt 0.317757 0.000000
vt 0.327103 0.000000
vt 0.457944 0.000000
vt 0.336449 0.000000
vt 0.448598 0.000000
vt 0.345794 0.000000
vt 0.439252 0.000000
vt 0.355140 0.000000
vt 0.364486 0.000000
vt 0.373832 0.000000
vt 0.429907 0.000000
vt 0.383178 0.000000
vt 0.420561 0.000000
vt 0.392523 0.000000
vt 0.411215 0.000000
vt 0.401869 0.000000
s 0
usemtl text
f 101/1/1 103/2/1 102/3/1
f 101/1/1 104/4/1 103/2/1
f 100/5/1 104/4/1 101/1/1
f 100/5/1 105/6/1 104/4/1
f 99/7/1 105/6/1 100/5/1
f 98/8/1 105/6/1 99/7/1
f 98/8/1 106/9/1 105/6/1
f 97/10/1 106/9/1 98/8/1
f 97/10/1 107/11/1 106/9/1
f 97/10/1 108/12/1 107/11/1
f 96/13/1 108/12/1 97/10/1
f 96/13/1 8/14/1 108/12/1
f 96/13/1 9/15/1 8/14/1
f 96/13/1 10/16/1 9/15/1
f 95/17/1 10/16/1 96/13/1
f 94/18/1 10/16/1 95/17/1
f 94/18/1 11/19/1 10/16/1
f 93/20/1 11/19/1 94/18/1
f 5/21/1 7/22/1 6/23/1
f 93/20/1 12/24/1 11/19/1
f 92/25/1 12/24/1 93/20/1
f 4/26/1 7/22/1 5/21/1
f 4/26/1 1/27/1 7/22/1
f 3/28/1 1/27/1 4/26/1
f 91/29/1 12/24/1 92/25/1
f 3/28/1 2/30/1 1/27/1
f 91/29/1 13/31/1 12/24/1
f 90/32/1 13/31/1 91/29/1
f 89/33/1 13/31/1 90/32/1
f 89/33/1 14/34/1 13/31/1
f 88/35/1 14/34/1 89/33/1
f 88/35/1 15/36/1 14/34/1
f 87/37/1 15/36/1 88/35/1
f 87/37/1 16/38/1 15/36/1
f 86/39/1 65/40/1 87/37/1
f 65/40/1 16/38/1 87/37/1
f 86/39/1 66/41/1 65/40/1
f 64/42/1 16/38/1 65/40/1
f 86/39/1 67/43/1 66/41/1
f 63/44/1 16/38/1 64/42/1
f 63/44/1 17/45/1 16/38/1
f 85/46/1 67/43/1 86/39/1
f 62/47/1 17/45/1 63/44/1
f 85/46/1 68/48/1 67/43/1
f 84/49/1 68/48/1 85/46/1
f 84/49/1 69/50/1 68/48/1
f 61/51/1 17/45/1 62/47/1
f 61/51/1 18/52/1 17/45/1
f 84/49/1 70/53/1 69/50/1
f 83/54/1 70/53/1 84/49/1
f 60/55/1 18/52/1 61/51/1
f 82/56/1 70/53/1 83/54/1
f 82/56/1 71/57/1 70/53/1
f 81/58/1 71/57/1 82/56/1
f 60/55/1 19/59/1 18/52/1
f 59/60/1 19/59/1 60/55/1
f 81/58/1 72/61/1 71/57/1
f 80/62/1 72/61/1 81/58/1
f 80/62/1 73/63/1 72/61/1
f 59/60/1 20/64/1 19/59/1
f 79/65/1 73/63/1 80/62/1
f 79/65/1 74/66/1 73/63/1
f 58/67/1 20/64/1 59/60/1
f 78/68/1 74/66/1 79/65/1
f 78/68/1 75/69/1 74/66/1
f 77/70/1 75/69/1 78/68/1
f 58/67/1 21/71/1 20/64/1
f 77/70/1 76/72/1 75/69/1
f 57/73/1 21/71/1 58/67/1
f 57/73/1 22/74/1 21/71/1
f 56/75/1 22/74/1 57/73/1
f 56/75/1 23/76/1 22/74/1
f 56/75/1 24/77/1 23/76/1
f 55/78/1 24/77/1 56/75/1
f 55/78/1 25/79/1 24/77/1
f 55/78/1 26/80/1 25/79/1
f 54/81/1 26/80/1 55/78/1
f 54/81/1 27/82/1 26/80/1
f 54/81/1 28/83/1 27/82/1
f 54/81/1 29/84/1 28/83/1
f 54/81/1 30/85/1 29/84/1
f 54/81/1 31/86/1 30/85/1
f 53/87/1 31/86/1 54/81/1
f 53/87/1 32/88/1 31/86/1
f 52/89/1 32/88/1 53/87/1
f 52/89/1 33/90/1 32/88/1
f 51/91/1 33/90/1 52/89/1
f 51/91/1 34/92/1 33/90/1
f 51/91/1 35/93/1 34/92/1
f 51/91/1 36/94/1 35/93/1
f 50/95/1 36/94/1 51/91/1
f 50/95/1 37/96/1 36/94/1
f 49/97/1 37/96/1 50/95/1
f 49/97/1 38/98/1 37/96/1
f 48/99/1 38/98/1 49/97/1
f 48/99/1 39/100/1 38/98/1
f 48/99/1 40/101/1 39/100/1
f 48/99/1 41/102/1 40/101/1
f 47/103/1 41/102/1 48/99/1
f 47/103/1 42/104/1 41/102/1
f 46/105/1 42/104/1 47/103/1
f 46/105/1 43/106/1 42/104/1
f 45/107/1 43/106/1 46/105/1
f 45/107/1 44/108/1 43/106/1
