# Blender 4.0.2
# www.blender.org
mtllib seven.mtl
o Heart.003
v 13.409843 -34.879288 0.000000
v 13.332360 -34.883324 0.000000
v 13.254615 -34.895443 0.000000
v 13.176608 -34.915634 0.000000
v 13.098339 -34.943909 0.000000
v 13.019809 -34.980255 0.000000
v 12.941016 -35.024685 0.000000
v 12.861961 -35.077190 0.000000
v 12.782645 -35.137772 0.000000
v 12.703067 -35.206432 0.000000
v 12.623227 -35.283169 0.000000
v 12.543125 -35.367985 0.000000
v 12.462761 -35.460880 0.000000
v 12.407265 -35.529671 0.000000
v 12.352453 -35.601162 0.000000
v 12.298327 -35.675350 0.000000
v 12.244885 -35.752239 0.000000
v 12.192129 -35.831829 0.000000
v 12.140058 -35.914116 0.000000
v 12.088670 -35.999100 0.000000
v 12.037969 -36.086788 0.000000
v 11.987951 -36.177174 0.000000
v 11.938619 -36.270256 0.000000
v 11.889972 -36.366043 0.000000
v 11.842009 -36.464523 0.000000
v 11.861034 -36.461052 0.000000
v 11.879920 -36.457878 0.000000
v 11.898664 -36.455006 0.000000
v 11.917267 -36.452438 0.000000
v 11.935728 -36.450172 0.000000
v 11.954049 -36.448208 0.000000
v 11.972229 -36.446545 0.000000
v 11.990268 -36.445187 0.000000
v 12.008165 -36.444130 0.000000
v 12.025922 -36.443375 0.000000
v 12.043538 -36.442921 0.000000
v 12.061012 -36.442768 0.000000
v 12.105631 -36.443958 0.000000
v 12.149565 -36.447525 0.000000
v 12.192814 -36.453465 0.000000
v 12.235377 -36.461784 0.000000
v 12.277257 -36.472481 0.000000
v 12.318451 -36.485554 0.000000
v 12.358960 -36.501007 0.000000
v 12.398785 -36.518833 0.000000
v 12.437924 -36.539036 0.000000
v 12.476378 -36.561619 0.000000
v 12.514148 -36.586575 0.000000
v 12.551233 -36.613911 0.000000
v 12.580713 -36.640511 0.000000
v 12.610174 -36.667130 0.000000
v 12.639614 -36.693771 0.000000
v 12.669034 -36.720432 0.000000
v 12.698434 -36.747112 0.000000
v 12.727814 -36.773811 0.000000
v 12.757174 -36.800533 0.000000
v 12.786512 -36.827274 0.000000
v 12.815832 -36.854034 0.000000
v 12.845131 -36.880817 0.000000
v 12.874411 -36.907619 0.000000
v 12.903669 -36.934441 0.000000
v 12.939727 -36.961777 0.000000
v 12.976348 -36.986732 0.000000
v 13.013534 -37.009315 0.000000
v 13.051283 -37.029518 0.000000
v 13.089597 -37.047348 0.000000
v 13.128474 -37.062798 0.000000
v 13.167916 -37.075871 0.000000
v 13.207922 -37.086567 0.000000
v 13.248491 -37.094887 0.000000
v 13.289625 -37.100826 0.000000
v 13.331323 -37.104393 0.000000
v 13.373585 -37.105583 0.000000
v 13.414783 -37.104408 0.000000
v 13.454744 -37.100887 0.000000
v 13.493465 -37.095020 0.000000
v 13.530949 -37.086807 0.000000
v 13.567192 -37.076248 0.000000
v 13.602197 -37.063339 0.000000
v 13.635963 -37.048088 0.000000
v 13.668490 -37.030487 0.000000
v 13.699779 -37.010540 0.000000
v 13.729828 -36.988243 0.000000
v 13.758638 -36.963604 0.000000
v 13.786211 -36.936615 0.000000
v 13.812040 -36.907875 0.000000
v 13.835624 -36.877975 0.000000
v 13.856961 -36.846920 0.000000
v 13.876052 -36.814705 0.000000
v 13.892898 -36.781330 0.000000
v 13.907496 -36.746799 0.000000
v 13.919849 -36.711109 0.000000
v 13.929957 -36.674263 0.000000
v 13.937819 -36.636257 0.000000
v 13.943434 -36.597092 0.000000
v 13.946802 -36.556770 0.000000
v 13.947926 -36.515285 0.000000
v 13.947301 -36.486694 0.000000
v 13.945428 -36.458443 0.000000
v 13.942306 -36.430531 0.000000
v 13.937934 -36.402966 0.000000
v 13.932314 -36.375740 0.000000
v 13.925445 -36.348858 0.000000
v 13.917327 -36.322319 0.000000
v 13.907960 -36.296124 0.000000
v 13.897345 -36.270267 0.000000
v 13.885480 -36.244755 0.000000
v 13.872366 -36.219585 0.000000
v 13.858004 -36.194759 0.000000
v 13.841153 -36.168743 0.000000
v 13.823477 -36.144360 0.000000
v 13.804975 -36.121605 0.000000
v 13.785646 -36.100487 0.000000
v 13.765492 -36.080997 0.000000
v 13.744513 -36.063141 0.000000
v 13.722708 -36.046913 0.000000
v 13.700076 -36.032318 0.000000
v 13.676619 -36.019356 0.000000
v 13.652335 -36.008026 0.000000
v 13.627226 -35.998325 0.000000
v 13.601291 -35.990257 0.000000
v 13.656656 -35.959599 0.000000
v 13.707207 -35.926605 0.000000
v 13.752943 -35.891273 0.000000
v 13.793865 -35.853603 0.000000
v 13.829973 -35.813599 0.000000
v 13.861267 -35.771255 0.000000
v 13.887746 -35.726578 0.000000
v 13.909410 -35.679562 0.000000
v 13.926261 -35.630207 0.000000
v 13.938296 -35.578518 0.000000
v 13.945518 -35.524494 0.000000
v 13.947926 -35.468132 0.000000
v 13.946878 -35.429855 0.000000
v 13.943736 -35.392391 0.000000
v 13.938498 -35.355728 0.000000
v 13.931166 -35.319870 0.000000
v 13.921739 -35.284821 0.000000
v 13.910216 -35.250576 0.000000
v 13.896599 -35.217140 0.000000
v 13.880887 -35.184505 0.000000
v 13.863080 -35.152679 0.000000
v 13.843178 -35.121658 0.000000
v 13.821180 -35.091442 0.000000
v 13.797089 -35.062031 0.000000
v 13.770247 -35.032841 0.000000
v 13.742418 -35.006191 0.000000
v 13.713602 -34.982079 0.000000
v 13.683800 -34.960506 0.000000
v 13.653009 -34.941471 0.000000
v 13.621233 -34.924973 0.000000
v 13.588470 -34.911011 0.000000
v 13.554718 -34.899590 0.000000
v 13.519980 -34.890709 0.000000
v 13.484255 -34.884361 0.000000
v 13.447543 -34.880554 0.000000
vn -0.0000 -0.0000 -1.0000
vt 0.612903 0.000000
vt 0.625806 0.000000
vt 0.619355 0.000000
vt 0.845161 0.000000
vt 0.858065 0.000000
vt 0.851613 0.000000
vt 0.632258 0.000000
vt 0.864516 0.000000
vt 0.606452 0.000000
vt 0.838710 0.000000
vt 0.638710 0.000000
vt 0.870968 0.000000
vt 0.600000 0.000000
vt 0.645161 0.000000
vt 0.877419 0.000000
vt 0.832258 0.000000
vt 0.651613 0.000000
vt 0.593548 0.000000
vt 0.658065 0.000000
vt 0.883871 0.000000
vt 0.587097 0.000000
vt 0.825806 0.000000
vt 0.664516 0.000000
vt 0.890323 0.000000
vt 0.580645 0.000000
vt 0.670968 0.000000
vt 0.896774 0.000000
vt 0.819355 0.000000
vt 0.677419 0.000000
vt 0.574194 0.000000
vt 0.683871 0.000000
vt 0.903226 0.000000
vt 0.567742 0.000000
vt 0.812903 0.000000
vt 0.690323 0.000000
vt 0.909677 0.000000
vt 0.561290 0.000000
vt 0.696774 0.000000
vt 0.916129 0.000000
vt 0.806452 0.000000
vt 0.703226 0.000000
vt 0.554839 0.000000
vt 0.922581 0.000000
vt 0.709677 0.000000
vt 0.548387 0.000000
vt 0.800000 0.000000
vt 0.716129 0.000000
vt 0.929032 0.000000
vt 0.541936 0.000000
vt 0.722581 0.000000
vt 0.935484 0.000000
vt 0.793548 0.000000
vt 0.535484 0.000000
vt 0.729032 0.000000
vt 0.941935 0.000000
vt 0.735484 0.000000
vt 0.529032 0.000000
vt 0.787097 0.000000
vt 0.741935 0.000000
vt 0.948387 0.000000
vt 0.522581 0.000000
vt 0.748387 0.000000
vt 0.954839 0.000000
vt 0.780645 0.000000
vt 0.754839 0.000000
vt 0.516129 0.000000
vt 0.961290 0.000000
vt 0.761290 0.000000
vt 0.509677 0.000000
vt 0.774194 0.000000
vt 0.967742 0.000000
vt 0.767742 0.000000
vt 0.503226 0.000000
vt 0.974194 0.000000
vt 0.496774 0.000000
vt 0.980645 0.000000
vt 0.490323 0.000000
vt 0.987097 0.000000
vt 0.483871 0.000000
vt 0.993548 0.000000
vt 0.477419 0.000000
vt 1.000000 0.000000
vt 0.470968 0.000000
vt 0.000000 0.000000
vt 0.464516 0.000000
vt 0.006452 0.000000
vt 0.458065 0.000000
vt 0.012903 0.000000
vt 0.451613 0.000000
vt 0.445161 0.000000
vt 0.019355 0.000000
vt 0.438710 0.000000
vt 0.432258 0.000000
vt 0.025806 0.000000
vt 0.425806 0.000000
vt 0.419355 0.000000
vt 0.032258 0.000000
vt 0.412903 0.000000
vt 0.406452 0.000000
vt 0.038710 0.000000
vt 0.400000 0.000000
vt 0.393548 0.000000
vt 0.045161 0.000000
vt 0.387097 0.000000
vt 0.380645 0.000000
vt 0.374194 0.000000
vt 0.051613 0.000000
vt 0.367742 0.000000
vt 0.361290 0.000000
vt 0.354839 0.000000
vt 0.058065 0.000000
vt 0.348387 0.000000
vt 0.341935 0.000000
vt 0.064516 0.000000
vt 0.335484 0.000000
vt 0.329032 0.000000
vt 0.322581 0.000000
vt 0.070968 0.000000
vt 0.316129 0.000000
vt 0.309677 0.000000
vt 0.303226 0.000000
vt 0.077419 0.000000
vt 0.296774 0.000000
vt 0.290323 0.000000
vt 0.083871 0.000000
vt 0.283871 0.000000
vt 0.090323 0.000000
vt 0.277419 0.000000
vt 0.270968 0.000000
vt 0.096774 0.000000
vt 0.264516 0.000000
vt 0.103226 0.000000
vt 0.258065 0.000000
vt 0.109677 0.000000
vt 0.251613 0.000000
vt 0.245161 0.000000
vt 0.116129 0.000000
vt 0.238710 0.000000
vt 0.122581 0.000000
vt 0.232258 0.000000
vt 0.129032 0.000000
vt 0.225806 0.000000
vt 0.219355 0.000000
vt 0.135484 0.000000
vt 0.212903 0.000000
vt 0.206452 0.000000
vt 0.200000 0.000000
vt 0.141935 0.000000
vt 0.193548 0.000000
vt 0.187097 0.000000
vt 0.148387 0.000000
vt 0.180645 0.000000
vt 0.174194 0.000000
vt 0.167742 0.000000
vt 0.161290 0.000000
vt 0.154839 0.000000
s 0
usemtl Material
f 96/1/1 98/2/1 97/3/1
f 132/4/1 134/5/1 133/6/1
f 96/1/1 99/7/1 98/2/1
f 132/4/1 135/8/1 134/5/1
f 95/9/1 99/7/1 96/1/1
f 131/10/1 135/8/1 132/4/1
f 95/9/1 100/11/1 99/7/1
f 131/10/1 136/12/1 135/8/1
f 94/13/1 100/11/1 95/9/1
f 94/13/1 101/14/1 100/11/1
f 131/10/1 137/15/1 136/12/1
f 130/16/1 137/15/1 131/10/1
f 94/13/1 102/17/1 101/14/1
f 93/18/1 102/17/1 94/13/1
f 93/18/1 103/19/1 102/17/1
f 130/16/1 138/20/1 137/15/1
f 92/21/1 103/19/1 93/18/1
f 129/22/1 138/20/1 130/16/1
f 92/21/1 104/23/1 103/19/1
f 129/22/1 139/24/1 138/20/1
f 91/25/1 104/23/1 92/21/1
f 91/25/1 105/26/1 104/23/1
f 129/22/1 140/27/1 139/24/1
f 128/28/1 140/27/1 129/22/1
f 91/25/1 106/29/1 105/26/1
f 90/30/1 106/29/1 91/25/1
f 90/30/1 107/31/1 106/29/1
f 128/28/1 141/32/1 140/27/1
f 89/33/1 107/31/1 90/30/1
f 127/34/1 141/32/1 128/28/1
f 89/33/1 108/35/1 107/31/1
f 127/34/1 142/36/1 141/32/1
f 88/37/1 108/35/1 89/33/1
f 88/37/1 109/38/1 108/35/1
f 127/34/1 143/39/1 142/36/1
f 126/40/1 143/39/1 127/34/1
f 88/37/1 110/41/1 109/38/1
f 87/42/1 110/41/1 88/37/1
f 126/40/1 144/43/1 143/39/1
f 87/42/1 111/44/1 110/41/1
f 86/45/1 111/44/1 87/42/1
f 125/46/1 144/43/1 126/40/1
f 86/45/1 112/47/1 111/44/1
f 125/46/1 145/48/1 144/43/1
f 85/49/1 112/47/1 86/45/1
f 85/49/1 113/50/1 112/47/1
f 125/46/1 146/51/1 145/48/1
f 124/52/1 146/51/1 125/46/1
f 84/53/1 113/50/1 85/49/1
f 84/53/1 114/54/1 113/50/1
f 124/52/1 147/55/1 146/51/1
f 84/53/1 115/56/1 114/54/1
f 83/57/1 115/56/1 84/53/1
f 123/58/1 147/55/1 124/52/1
f 83/57/1 116/59/1 115/56/1
f 123/58/1 148/60/1 147/55/1
f 82/61/1 116/59/1 83/57/1
f 82/61/1 117/62/1 116/59/1
f 123/58/1 149/63/1 148/60/1
f 122/64/1 149/63/1 123/58/1
f 82/61/1 118/65/1 117/62/1
f 81/66/1 118/65/1 82/61/1
f 122/64/1 150/67/1 149/63/1
f 81/66/1 119/68/1 118/65/1
f 80/69/1 119/68/1 81/66/1
f 121/70/1 150/67/1 122/64/1
f 121/70/1 151/71/1 150/67/1
f 80/69/1 120/72/1 119/68/1
f 79/73/1 120/72/1 80/69/1
f 79/73/1 121/70/1 120/72/1
f 121/70/1 152/74/1 151/71/1
f 78/75/1 121/70/1 79/73/1
f 78/75/1 152/74/1 121/70/1
f 78/75/1 153/76/1 152/74/1
f 77/77/1 153/76/1 78/75/1
f 77/77/1 154/78/1 153/76/1
f 76/79/1 154/78/1 77/77/1
f 76/79/1 155/80/1 154/78/1
f 75/81/1 155/80/1 76/79/1
f 75/81/1 156/82/1 155/80/1
f 74/83/1 156/82/1 75/81/1
f 74/83/1 1/84/1 156/82/1
f 73/85/1 1/84/1 74/83/1
f 73/85/1 2/86/1 1/84/1
f 72/87/1 2/86/1 73/85/1
f 72/87/1 3/88/1 2/86/1
f 71/89/1 3/88/1 72/87/1
f 70/90/1 3/88/1 71/89/1
f 70/90/1 4/91/1 3/88/1
f 69/92/1 4/91/1 70/90/1
f 68/93/1 4/91/1 69/92/1
f 68/93/1 5/94/1 4/91/1
f 67/95/1 5/94/1 68/93/1
f 66/96/1 5/94/1 67/95/1
f 66/96/1 6/97/1 5/94/1
f 65/98/1 6/97/1 66/96/1
f 64/99/1 6/97/1 65/98/1
f 64/99/1 7/100/1 6/97/1
f 63/101/1 7/100/1 64/99/1
f 62/102/1 7/100/1 63/101/1
f 62/102/1 8/103/1 7/100/1
f 61/104/1 8/103/1 62/102/1
f 60/105/1 8/103/1 61/104/1
f 59/106/1 8/103/1 60/105/1
f 59/106/1 9/107/1 8/103/1
f 58/108/1 9/107/1 59/106/1
f 57/109/1 9/107/1 58/108/1
f 56/110/1 9/107/1 57/109/1
f 56/110/1 10/111/1 9/107/1
f 55/112/1 10/111/1 56/110/1
f 54/113/1 10/111/1 55/112/1
f 54/113/1 11/114/1 10/111/1
f 53/115/1 11/114/1 54/113/1
f 52/116/1 11/114/1 53/115/1
f 51/117/1 11/114/1 52/116/1
f 51/117/1 12/118/1 11/114/1
f 50/119/1 12/118/1 51/117/1
f 49/120/1 12/118/1 50/119/1
f 48/121/1 12/118/1 49/120/1
f 48/121/1 13/122/1 12/118/1
f 47/123/1 13/122/1 48/121/1
f 46/124/1 13/122/1 47/123/1
f 46/124/1 14/125/1 13/122/1
f 45/126/1 14/125/1 46/124/1
f 45/126/1 15/127/1 14/125/1
f 44/128/1 15/127/1 45/126/1
f 43/129/1 15/127/1 44/128/1
f 43/129/1 16/130/1 15/127/1
f 42/131/1 16/130/1 43/129/1
f 42/131/1 17/132/1 16/130/1
f 41/133/1 17/132/1 42/131/1
f 41/133/1 18/134/1 17/132/1
f 40/135/1 18/134/1 41/133/1
f 39/136/1 18/134/1 40/135/1
f 39/136/1 19/137/1 18/134/1
f 38/138/1 19/137/1 39/136/1
f 38/138/1 20/139/1 19/137/1
f 37/140/1 20/139/1 38/138/1
f 37/140/1 21/141/1 20/139/1
f 36/142/1 21/141/1 37/140/1
f 35/143/1 21/141/1 36/142/1
f 35/143/1 22/144/1 21/141/1
f 34/145/1 22/144/1 35/143/1
f 33/146/1 22/144/1 34/145/1
f 32/147/1 22/144/1 33/146/1
f 32/147/1 23/148/1 22/144/1
f 31/149/1 23/148/1 32/147/1
f 30/150/1 23/148/1 31/149/1
f 30/150/1 24/151/1 23/148/1
f 29/152/1 24/151/1 30/150/1
f 28/153/1 24/151/1 29/152/1
f 27/154/1 24/151/1 28/153/1
f 27/154/1 26/155/1 24/151/1
f 26/155/1 25/156/1 24/151/1
o seven
v -0.338129 0.517562 0.000000
v -0.335590 0.515023 0.000000
v -0.335590 0.509522 0.000000
v -0.329242 0.506136 0.000000
v -0.319932 0.497672 0.000000
v -0.307660 0.483707 0.000000
v -0.292848 0.471435 0.000000
v -0.280999 0.461278 0.000000
v -0.272112 0.449852 0.000000
v -0.260686 0.440965 0.000000
v -0.259839 0.431655 0.000000
v -0.247143 0.418536 0.000000
v -0.231485 0.387220 0.000000
v -0.228946 0.378756 0.000000
v -0.220906 0.360559 0.000000
v -0.213288 0.338129 0.000000
v -0.206094 0.322471 0.000000
v -0.199323 0.309353 0.000000
v -0.195091 0.302581 0.000000
v -0.192552 0.290309 0.000000
v -0.186204 0.273804 0.000000
v -0.177740 0.257300 0.000000
v -0.171815 0.236564 0.000000
v -0.162928 0.214135 0.000000
v -0.159543 0.197630 0.000000
v -0.152349 0.168853 0.000000
v -0.145578 0.147270 0.000000
v -0.138807 0.121456 0.000000
v -0.134998 0.110030 0.000000
v -0.128227 0.089293 0.000000
v -0.121456 0.067711 0.000000
v -0.113415 0.048667 0.000000
v -0.105798 0.033855 0.000000
v -0.100719 0.024968 0.000000
v -0.091832 0.024122 0.000000
v -0.092679 0.030470 0.000000
v -0.096064 0.038934 0.000000
v -0.115954 0.106644 0.000000
v -0.121456 0.129920 0.000000
v -0.129073 0.155311 0.000000
v -0.132459 0.175201 0.000000
v -0.138807 0.194245 0.000000
v -0.144731 0.218366 0.000000
v -0.161236 0.267880 0.000000
v -0.167160 0.290309 0.000000
v -0.176047 0.313584 0.000000
v -0.184511 0.333474 0.000000
v -0.190859 0.349132 0.000000
v -0.196784 0.366483 0.000000
v -0.203555 0.387220 0.000000
v -0.213288 0.411765 0.000000
v -0.227253 0.434194 0.000000
v -0.233178 0.446466 0.000000
v -0.242488 0.458316 0.000000
v -0.253068 0.473127 0.000000
v -0.257300 0.483707 0.000000
v -0.255607 0.490478 0.000000
v -0.239949 0.490478 0.000000
v -0.220906 0.487093 0.000000
v -0.203555 0.490478 0.000000
v -0.182818 0.491325 0.000000
v -0.160389 0.493017 0.000000
v -0.137114 0.490478 0.000000
v -0.111722 0.486246 0.000000
v -0.089293 0.482861 0.000000
v -0.075328 0.479475 0.000000
v -0.063479 0.482861 0.000000
v -0.052052 0.482861 0.000000
v -0.040626 0.487093 0.000000
v -0.024122 0.490478 0.000000
v -0.008464 0.498519 0.000000
v 0.002539 0.510368 0.000000
v 0.011426 0.522641 0.000000
v 0.011426 0.527719 0.000000
v 0.013119 0.534913 0.000000
v 0.012273 0.545070 0.000000
v 0.007617 0.550148 0.000000
v 0.002539 0.553957 0.000000
v -0.007617 0.559035 0.000000
v -0.023275 0.559035 0.000000
v -0.034702 0.558189 0.000000
v -0.046974 0.554803 0.000000
v -0.059670 0.545916 0.000000
v -0.089293 0.538299 0.000000
v -0.110876 0.537452 0.000000
v -0.131612 0.539145 0.000000
v -0.196784 0.539145 0.000000
v -0.219213 0.542531 0.000000
v -0.236564 0.543377 0.000000
v -0.247143 0.543377 0.000000
v -0.254761 0.545070 0.000000
v -0.275497 0.543377 0.000000
v -0.299196 0.541684 0.000000
v -0.311892 0.538299 0.000000
v -0.326703 0.539145 0.000000
v -0.331782 0.535760 0.000000
v -0.333474 0.530258 0.000000
v -0.338129 0.519255 0.000000
vn -0.0000 -0.0000 -1.0000
vt 0.793814 0.000000
vt 0.814433 0.000000
vt 0.804124 0.000000
vt 0.824742 0.000000
vt 0.835052 0.000000
vt 0.845361 0.000000
vt 0.783505 0.000000
vt 0.773196 0.000000
vt 0.855670 0.000000
vt 0.762887 0.000000
vt 0.917526 0.000000
vt 0.938144 0.000000
vt 0.927835 0.000000
vt 0.896907 0.000000
vt 0.907216 0.000000
vt 0.948454 0.000000
vt 0.886598 0.000000
vt 0.958763 0.000000
vt 0.865979 0.000000
vt 0.876289 0.000000
vt 0.979381 0.000000
vt 0.969072 0.000000
vt 0.989691 0.000000
vt 0.752577 0.000000
vt 1.000000 0.000000
vt 0.742268 0.000000
vt 0.731959 0.000000
vt 0.000000 0.000000
vt 0.010309 0.000000
vt 0.020619 0.000000
vt 0.721649 0.000000
vt 0.030928 0.000000
vt 0.041237 0.000000
vt 0.711340 0.000000
vt 0.628866 0.000000
vt 0.577320 0.000000
vt 0.051546 0.000000
vt 0.639175 0.000000
vt 0.618557 0.000000
vt 0.608247 0.000000
vt 0.701031 0.000000
vt 0.649485 0.000000
vt 0.597938 0.000000
vt 0.587629 0.000000
vt 0.567010 0.000000
vt 0.690722 0.000000
vt 0.659794 0.000000
vt 0.556701 0.000000
vt 0.061856 0.000000
vt 0.680412 0.000000
vt 0.670103 0.000000
vt 0.546392 0.000000
vt 0.072165 0.000000
vt 0.082474 0.000000
vt 0.536082 0.000000
vt 0.092784 0.000000
vt 0.525773 0.000000
vt 0.103093 0.000000
vt 0.515464 0.000000
vt 0.113402 0.000000
vt 0.123711 0.000000
vt 0.505155 0.000000
vt 0.494845 0.000000
vt 0.134021 0.000000
vt 0.144330 0.000000
vt 0.484536 0.000000
vt 0.154639 0.000000
vt 0.474227 0.000000
vt 0.164948 0.000000
vt 0.463918 0.000000
vt 0.175258 0.000000
vt 0.453608 0.000000
vt 0.185567 0.000000
vt 0.195876 0.000000
vt 0.443299 0.000000
vt 0.206186 0.000000
vt 0.216495 0.000000
vt 0.432990 0.000000
vt 0.226804 0.000000
vt 0.237113 0.000000
vt 0.422680 0.000000
vt 0.247423 0.000000
vt 0.257732 0.000000
vt 0.412371 0.000000
vt 0.402062 0.000000
vt 0.268041 0.000000
vt 0.391753 0.000000
vt 0.278351 0.000000
vt 0.381443 0.000000
vt 0.288660 0.000000
vt 0.298969 0.000000
vt 0.371134 0.000000
vt 0.309278 0.000000
vt 0.319588 0.000000
vt 0.329897 0.000000
vt 0.360825 0.000000
vt 0.340206 0.000000
vt 0.350515 0.000000
s 0
usemtl Material.005
f 234/157/2 236/158/2 235/159/2
f 234/157/2 237/160/2 236/158/2
f 234/157/2 238/161/2 237/160/2
f 234/157/2 239/162/2 238/161/2
f 233/163/2 239/162/2 234/157/2
f 232/164/2 239/162/2 233/163/2
f 232/164/2 240/165/2 239/162/2
f 231/166/2 240/165/2 232/164/2
f 246/167/2 248/168/2 247/169/2
f 244/170/2 246/167/2 245/171/2
f 244/170/2 248/168/2 246/167/2
f 244/170/2 249/172/2 248/168/2
f 243/173/2 249/172/2 244/170/2
f 243/173/2 250/174/2 249/172/2
f 241/175/2 243/173/2 242/176/2
f 241/175/2 250/174/2 243/173/2
f 250/174/2 252/177/2 251/178/2
f 231/166/2 241/175/2 240/165/2
f 241/175/2 252/177/2 250/174/2
f 231/166/2 252/177/2 241/175/2
f 231/166/2 253/179/2 252/177/2
f 230/180/2 253/179/2 231/166/2
f 230/180/2 254/181/2 253/179/2
f 229/182/2 254/181/2 230/180/2
f 228/183/2 254/181/2 229/182/2
f 228/183/2 157/184/2 254/181/2
f 228/183/2 158/185/2 157/184/2
f 228/183/2 159/186/2 158/185/2
f 227/187/2 159/186/2 228/183/2
f 227/187/2 160/188/2 159/186/2
f 227/187/2 161/189/2 160/188/2
f 226/190/2 161/189/2 227/187/2
f 226/190/2 218/191/2 161/189/2
f 218/191/2 213/192/2 161/189/2
f 213/192/2 162/193/2 161/189/2
f 226/190/2 219/194/2 218/191/2
f 217/195/2 213/192/2 218/191/2
f 216/196/2 213/192/2 217/195/2
f 225/197/2 219/194/2 226/190/2
f 225/197/2 220/198/2 219/194/2
f 215/199/2 214/200/2 216/196/2
f 214/200/2 213/192/2 216/196/2
f 212/201/2 162/193/2 213/192/2
f 224/202/2 220/198/2 225/197/2
f 224/202/2 221/203/2 220/198/2
f 211/204/2 162/193/2 212/201/2
f 211/204/2 163/205/2 162/193/2
f 223/206/2 221/203/2 224/202/2
f 222/207/2 221/203/2 223/206/2
f 210/208/2 163/205/2 211/204/2
f 210/208/2 164/209/2 163/205/2
f 210/208/2 165/210/2 164/209/2
f 209/211/2 165/210/2 210/208/2
f 209/211/2 166/212/2 165/210/2
f 208/213/2 166/212/2 209/211/2
f 208/213/2 167/214/2 166/212/2
f 207/215/2 167/214/2 208/213/2
f 207/215/2 168/216/2 167/214/2
f 207/215/2 169/217/2 168/216/2
f 206/218/2 169/217/2 207/215/2
f 205/219/2 169/217/2 206/218/2
f 205/219/2 170/220/2 169/217/2
f 205/219/2 171/221/2 170/220/2
f 204/222/2 171/221/2 205/219/2
f 204/222/2 172/223/2 171/221/2
f 203/224/2 172/223/2 204/222/2
f 203/224/2 173/225/2 172/223/2
f 202/226/2 173/225/2 203/224/2
f 202/226/2 174/227/2 173/225/2
f 201/228/2 174/227/2 202/226/2
f 201/228/2 175/229/2 174/227/2
f 201/228/2 176/230/2 175/229/2
f 200/231/2 176/230/2 201/228/2
f 200/231/2 177/232/2 176/230/2
f 200/231/2 178/233/2 177/232/2
f 199/234/2 178/233/2 200/231/2
f 199/234/2 179/235/2 178/233/2
f 199/234/2 180/236/2 179/235/2
f 198/237/2 180/236/2 199/234/2
f 198/237/2 181/238/2 180/236/2
f 198/237/2 182/239/2 181/238/2
f 197/240/2 182/239/2 198/237/2
f 196/241/2 182/239/2 197/240/2
f 196/241/2 183/242/2 182/239/2
f 195/243/2 183/242/2 196/241/2
f 195/243/2 184/244/2 183/242/2
f 194/245/2 184/244/2 195/243/2
f 194/245/2 185/246/2 184/244/2
f 194/245/2 186/247/2 185/246/2
f 193/248/2 186/247/2 194/245/2
f 193/248/2 187/249/2 186/247/2
f 193/248/2 188/250/2 187/249/2
f 193/248/2 189/251/2 188/250/2
f 192/252/2 189/251/2 193/248/2
f 192/252/2 190/253/2 189/251/2
f 191/254/2 190/253/2 192/252/2
