# Blender 4.0.2
# www.blender.org
mtllib two.mtl
o two
v -0.320779 0.428269 0.000000
v -0.319932 0.409226 0.000000
v -0.313584 0.392721 0.000000
v -0.305967 0.384680 0.000000
v -0.292002 0.361405 0.000000
v -0.285231 0.356327 0.000000
v -0.269573 0.341515 0.000000
v -0.264494 0.335590 0.000000
v -0.256454 0.330935 0.000000
v -0.251375 0.321625 0.000000
v -0.236564 0.311892 0.000000
v -0.224291 0.301735 0.000000
v -0.209056 0.285231 0.000000
v -0.197630 0.274651 0.000000
v -0.192552 0.266187 0.000000
v -0.181972 0.258146 0.000000
v -0.181126 0.245451 0.000000
v -0.169700 0.241642 0.000000
v -0.163775 0.232332 0.000000
v -0.153195 0.217520 0.000000
v -0.144731 0.202708 0.000000
v -0.139653 0.192552 0.000000
v -0.124841 0.173508 0.000000
v -0.115954 0.158697 0.000000
v -0.097757 0.120609 0.000000
v -0.090140 0.113415 0.000000
v -0.085061 0.104105 0.000000
v -0.069403 0.088447 0.000000
v -0.064325 0.085908 0.000000
v -0.065171 0.082522 0.000000
v -0.057977 0.070250 0.000000
v -0.047821 0.057977 0.000000
v -0.048667 0.054592 0.000000
v -0.085908 0.054592 0.000000
v -0.099873 0.052052 0.000000
v -0.108337 0.054592 0.000000
v -0.121456 0.053745 0.000000
v -0.139653 0.054592 0.000000
v -0.159543 0.052052 0.000000
v -0.183665 0.048667 0.000000
v -0.197630 0.044012 0.000000
v -0.205248 0.046974 0.000000
v -0.224291 0.044012 0.000000
v -0.231485 0.044858 0.000000
v -0.249683 0.044012 0.000000
v -0.268726 0.041473 0.000000
v -0.283538 0.044012 0.000000
v -0.288616 0.040626 0.000000
v -0.293694 0.040626 0.000000
v -0.301735 0.036394 0.000000
v -0.300889 0.030470 0.000000
v -0.300042 0.028777 0.000000
v -0.292848 0.028777 0.000000
v -0.280152 0.025815 0.000000
v -0.259839 0.028777 0.000000
v -0.236564 0.029623 0.000000
v -0.215827 0.029623 0.000000
v -0.190013 0.025815 0.000000
v -0.157850 0.029623 0.000000
v -0.104105 0.029623 0.000000
v -0.079560 0.025815 0.000000
v -0.071942 0.025815 0.000000
v -0.052899 0.022429 0.000000
v -0.041473 0.021583 0.000000
v -0.032163 0.014812 0.000000
v -0.020736 0.016504 0.000000
v -0.013965 0.020736 0.000000
v -0.012273 0.024968 0.000000
v -0.012273 0.036394 0.000000
v -0.009733 0.046974 0.000000
v -0.017351 0.057131 0.000000
v -0.029623 0.074482 0.000000
v -0.039780 0.093525 0.000000
v -0.052052 0.108337 0.000000
v -0.061363 0.118917 0.000000
v -0.073635 0.141346 0.000000
v -0.085061 0.158697 0.000000
v -0.092679 0.177740 0.000000
v -0.116801 0.217520 0.000000
v -0.131612 0.242488 0.000000
v -0.145578 0.258993 0.000000
v -0.155311 0.268726 0.000000
v -0.160389 0.277190 0.000000
v -0.168007 0.286077 0.000000
v -0.179433 0.296234 0.000000
v -0.209056 0.330935 0.000000
v -0.223445 0.344054 0.000000
v -0.233178 0.356327 0.000000
v -0.241642 0.363098 0.000000
v -0.248836 0.372831 0.000000
v -0.255607 0.382988 0.000000
v -0.259839 0.394414 0.000000
v -0.266187 0.404570 0.000000
v -0.269573 0.443927 0.000000
v -0.268726 0.463817 0.000000
v -0.261532 0.477359 0.000000
v -0.247990 0.485400 0.000000
v -0.239949 0.492171 0.000000
v -0.229793 0.493017 0.000000
v -0.216674 0.495557 0.000000
v -0.199323 0.491325 0.000000
v -0.187897 0.484554 0.000000
v -0.173508 0.477359 0.000000
v -0.163775 0.468049 0.000000
v -0.151502 0.459162 0.000000
v -0.132459 0.452391 0.000000
v -0.119763 0.447313 0.000000
v -0.112569 0.445620 0.000000
v -0.104951 0.440965 0.000000
v -0.077021 0.439272 0.000000
v -0.069403 0.440118 0.000000
v -0.056284 0.444774 0.000000
v -0.048667 0.452391 0.000000
v -0.043165 0.459162 0.000000
v -0.041473 0.469742 0.000000
v -0.043165 0.479475 0.000000
v -0.047821 0.484554 0.000000
v -0.055438 0.496826 0.000000
v -0.064325 0.505290 0.000000
v -0.069403 0.512907 0.000000
v -0.080406 0.521794 0.000000
v -0.093525 0.529412 0.000000
v -0.107490 0.536606 0.000000
v -0.115954 0.537452 0.000000
v -0.121456 0.544223 0.000000
v -0.143885 0.548455 0.000000
v -0.168007 0.555650 0.000000
v -0.183665 0.559035 0.000000
v -0.203555 0.556496 0.000000
v -0.220906 0.556496 0.000000
v -0.239949 0.553957 0.000000
v -0.256454 0.547609 0.000000
v -0.272112 0.539145 0.000000
v -0.281845 0.535760 0.000000
v -0.285231 0.528565 0.000000
v -0.300889 0.512061 0.000000
v -0.309353 0.499365 0.000000
v -0.318240 0.487093 0.000000
v -0.319932 0.473127 0.000000
v -0.319932 0.460008 0.000000
v -0.318240 0.447313 0.000000
v 0.010580 0.479475 0.000000
v 0.012273 0.473127 0.000000
v 0.019890 0.473127 0.000000
v 0.024122 0.481168 0.000000
v 0.019890 0.485400 0.000000
v 0.015658 0.487093 0.000000
v 0.010580 0.484554 0.000000
vn -0.0000 -0.0000 -1.0000
vt 0.986395 0.000000
vt 1.000000 0.000000
vt 0.993197 0.000000
vt 0.979592 0.000000
vt 0.959184 0.000000
vt 0.972789 0.000000
vt 0.965986 0.000000
vt 0.857143 0.000000
vt 0.870748 0.000000
vt 0.863946 0.000000
vt 0.877551 0.000000
vt 0.884354 0.000000
vt 0.850340 0.000000
vt 0.891156 0.000000
vt 0.843537 0.000000
vt 0.897959 0.000000
vt 0.836735 0.000000
vt 0.904762 0.000000
vt 0.829932 0.000000
vt 0.823129 0.000000
vt 0.911565 0.000000
vt 0.816327 0.000000
vt 0.918367 0.000000
vt 0.809524 0.000000
vt 0.802721 0.000000
vt 0.925170 0.000000
vt 0.795918 0.000000
vt 0.673469 0.000000
vt 0.931973 0.000000
vt 0.789116 0.000000
vt 0.680272 0.000000
vt 0.666667 0.000000
vt 0.659864 0.000000
vt 0.653061 0.000000
vt 0.687075 0.000000
vt 0.938776 0.000000
vt 0.646259 0.000000
vt 0.782313 0.000000
vt 0.693878 0.000000
vt 0.775510 0.000000
vt 0.700680 0.000000
vt 0.639456 0.000000
vt 0.945578 0.000000
vt 0.768707 0.000000
vt 0.707483 0.000000
vt 0.632653 0.000000
vt 0.952381 0.000000
vt 0.761905 0.000000
vt 0.714286 0.000000
vt 0.755102 0.000000
vt 0.721088 0.000000
vt 0.727891 0.000000
vt 0.000000 0.000000
vt 0.734694 0.000000
vt 0.748299 0.000000
vt 0.625850 0.000000
vt 0.741497 0.000000
vt 0.006803 0.000000
vt 0.013605 0.000000
vt 0.619048 0.000000
vt 0.612245 0.000000
vt 0.020408 0.000000
vt 0.027211 0.000000
vt 0.605442 0.000000
vt 0.598639 0.000000
vt 0.591837 0.000000
vt 0.034014 0.000000
vt 0.585034 0.000000
vt 0.040816 0.000000
vt 0.578231 0.000000
vt 0.047619 0.000000
vt 0.054422 0.000000
vt 0.571429 0.000000
vt 0.061224 0.000000
vt 0.068027 0.000000
vt 0.074830 0.000000
vt 0.081633 0.000000
vt 0.564626 0.000000
vt 0.557823 0.000000
vt 0.088435 0.000000
vt 0.551020 0.000000
vt 0.095238 0.000000
vt 0.544218 0.000000
vt 0.102041 0.000000
vt 0.537415 0.000000
vt 0.108844 0.000000
vt 0.115646 0.000000
vt 0.530612 0.000000
vt 0.122449 0.000000
vt 0.129252 0.000000
vt 0.523810 0.000000
vt 0.136054 0.000000
vt 0.142857 0.000000
vt 0.149660 0.000000
vt 0.517007 0.000000
vt 0.156463 0.000000
vt 0.510204 0.000000
vt 0.163265 0.000000
vt 0.503401 0.000000
vt 0.170068 0.000000
vt 0.496599 0.000000
vt 0.176871 0.000000
vt 0.489796 0.000000
vt 0.183673 0.000000
vt 0.482993 0.000000
vt 0.190476 0.000000
vt 0.197279 0.000000
vt 0.204082 0.000000
vt 0.476190 0.000000
vt 0.210884 0.000000
vt 0.217687 0.000000
vt 0.469388 0.000000
vt 0.224490 0.000000
vt 0.231293 0.000000
vt 0.244898 0.000000
vt 0.238095 0.000000
vt 0.258503 0.000000
vt 0.251701 0.000000
vt 0.265306 0.000000
vt 0.272109 0.000000
vt 0.462585 0.000000
vt 0.285714 0.000000
vt 0.278912 0.000000
vt 0.299320 0.000000
vt 0.292517 0.000000
vt 0.306122 0.000000
vt 0.319728 0.000000
vt 0.312925 0.000000
vt 0.326531 0.000000
vt 0.333333 0.000000
vt 0.455782 0.000000
vt 0.401361 0.000000
vt 0.340136 0.000000
vt 0.394558 0.000000
vt 0.374150 0.000000
vt 0.346939 0.000000
vt 0.414966 0.000000
vt 0.408163 0.000000
vt 0.387755 0.000000
vt 0.380952 0.000000
vt 0.367347 0.000000
vt 0.360544 0.000000
vt 0.353741 0.000000
vt 0.421769 0.000000
vt 0.448980 0.000000
vt 0.428571 0.000000
vt 0.435374 0.000000
vt 0.442177 0.000000
s 0
usemtl text
f 146/1/1 148/2/1 147/3/1
f 145/4/1 148/2/1 146/1/1
f 145/4/1 142/5/1 148/2/1
f 144/6/1 142/5/1 145/4/1
f 144/6/1 143/7/1 142/5/1
f 127/8/1 129/9/1 128/10/1
f 127/8/1 130/11/1 129/9/1
f 127/8/1 131/12/1 130/11/1
f 126/13/1 131/12/1 127/8/1
f 126/13/1 132/14/1 131/12/1
f 125/15/1 132/14/1 126/13/1
f 125/15/1 133/16/1 132/14/1
f 124/17/1 133/16/1 125/15/1
f 124/17/1 134/18/1 133/16/1
f 123/19/1 134/18/1 124/17/1
f 122/20/1 134/18/1 123/19/1
f 122/20/1 135/21/1 134/18/1
f 121/22/1 135/21/1 122/20/1
f 121/22/1 136/23/1 135/21/1
f 120/24/1 136/23/1 121/22/1
f 119/25/1 136/23/1 120/24/1
f 119/25/1 137/26/1 136/23/1
f 118/27/1 137/26/1 119/25/1
f 118/27/1 100/28/1 137/26/1
f 100/28/1 138/29/1 137/26/1
f 117/30/1 100/28/1 118/27/1
f 117/30/1 101/31/1 100/28/1
f 99/32/1 138/29/1 100/28/1
f 98/33/1 138/29/1 99/32/1
f 97/34/1 138/29/1 98/33/1
f 117/30/1 102/35/1 101/31/1
f 97/34/1 139/36/1 138/29/1
f 96/37/1 139/36/1 97/34/1
f 116/38/1 102/35/1 117/30/1
f 116/38/1 103/39/1 102/35/1
f 115/40/1 103/39/1 116/38/1
f 115/40/1 104/41/1 103/39/1
f 95/42/1 139/36/1 96/37/1
f 95/42/1 140/43/1 139/36/1
f 114/44/1 104/41/1 115/40/1
f 114/44/1 105/45/1 104/41/1
f 94/46/1 140/43/1 95/42/1
f 94/46/1 141/47/1 140/43/1
f 113/48/1 105/45/1 114/44/1
f 113/48/1 106/49/1 105/45/1
f 112/50/1 106/49/1 113/48/1
f 112/50/1 107/51/1 106/49/1
f 112/50/1 108/52/1 107/51/1
f 94/46/1 1/53/1 141/47/1
f 112/50/1 109/54/1 108/52/1
f 111/55/1 109/54/1 112/50/1
f 93/56/1 1/53/1 94/46/1
f 111/55/1 110/57/1 109/54/1
f 93/56/1 2/58/1 1/53/1
f 93/56/1 3/59/1 2/58/1
f 92/60/1 3/59/1 93/56/1
f 91/61/1 3/59/1 92/60/1
f 91/61/1 4/62/1 3/59/1
f 91/61/1 5/63/1 4/62/1
f 90/64/1 5/63/1 91/61/1
f 89/65/1 5/63/1 90/64/1
f 88/66/1 5/63/1 89/65/1
f 88/66/1 6/67/1 5/63/1
f 87/68/1 6/67/1 88/66/1
f 87/68/1 7/69/1 6/67/1
f 86/70/1 7/69/1 87/68/1
f 86/70/1 8/71/1 7/69/1
f 86/70/1 9/72/1 8/71/1
f 85/73/1 9/72/1 86/70/1
f 85/73/1 10/74/1 9/72/1
f 85/73/1 11/75/1 10/74/1
f 85/73/1 12/76/1 11/75/1
f 85/73/1 13/77/1 12/76/1
f 84/78/1 13/77/1 85/73/1
f 83/79/1 13/77/1 84/78/1
f 83/79/1 14/80/1 13/77/1
f 82/81/1 14/80/1 83/79/1
f 82/81/1 15/82/1 14/80/1
f 81/83/1 15/82/1 82/81/1
f 81/83/1 16/84/1 15/82/1
f 80/85/1 16/84/1 81/83/1
f 80/85/1 17/86/1 16/84/1
f 80/85/1 18/87/1 17/86/1
f 79/88/1 18/87/1 80/85/1
f 79/88/1 19/89/1 18/87/1
f 79/88/1 20/90/1 19/89/1
f 78/91/1 20/90/1 79/88/1
f 78/91/1 21/92/1 20/90/1
f 78/91/1 22/93/1 21/92/1
f 78/91/1 23/94/1 22/93/1
f 77/95/1 23/94/1 78/91/1
f 77/95/1 24/96/1 23/94/1
f 76/97/1 24/96/1 77/95/1
f 76/97/1 25/98/1 24/96/1
f 75/99/1 25/98/1 76/97/1
f 75/99/1 26/100/1 25/98/1
f 74/101/1 26/100/1 75/99/1
f 74/101/1 27/102/1 26/100/1
f 73/103/1 27/102/1 74/101/1
f 73/103/1 28/104/1 27/102/1
f 72/105/1 28/104/1 73/103/1
f 72/105/1 29/106/1 28/104/1
f 72/105/1 30/107/1 29/106/1
f 72/105/1 31/108/1 30/107/1
f 71/109/1 31/108/1 72/105/1
f 71/109/1 32/110/1 31/108/1
f 71/109/1 33/111/1 32/110/1
f 70/112/1 33/111/1 71/109/1
f 70/112/1 34/113/1 33/111/1
f 70/112/1 35/114/1 34/113/1
f 35/114/1 37/115/1 36/116/1
f 37/115/1 39/117/1 38/118/1
f 35/114/1 39/117/1 37/115/1
f 70/112/1 39/117/1 35/114/1
f 70/112/1 40/119/1 39/117/1
f 70/112/1 41/120/1 40/119/1
f 69/121/1 41/120/1 70/112/1
f 41/120/1 43/122/1 42/123/1
f 43/122/1 45/124/1 44/125/1
f 69/121/1 43/122/1 41/120/1
f 69/121/1 45/124/1 43/122/1
f 69/121/1 46/126/1 45/124/1
f 46/126/1 48/127/1 47/128/1
f 69/121/1 48/127/1 46/126/1
f 69/121/1 49/129/1 48/127/1
f 69/121/1 50/130/1 49/129/1
f 68/131/1 60/132/1 69/121/1
f 60/132/1 50/130/1 69/121/1
f 60/132/1 51/133/1 50/130/1
f 60/132/1 59/134/1 51/133/1
f 59/134/1 56/135/1 51/133/1
f 56/135/1 52/136/1 51/133/1
f 68/131/1 62/137/1 60/132/1
f 62/137/1 61/138/1 60/132/1
f 58/139/1 57/140/1 59/134/1
f 57/140/1 56/135/1 59/134/1
f 55/141/1 52/136/1 56/135/1
f 54/142/1 53/143/1 55/141/1
f 53/143/1 52/136/1 55/141/1
f 68/131/1 63/144/1 62/137/1
f 67/145/1 63/144/1 68/131/1
f 67/145/1 64/146/1 63/144/1
f 67/145/1 65/147/1 64/146/1
f 66/148/1 65/147/1 67/145/1
