# Blender 4.0.2
# www.blender.org
mtllib Text.mtl
o Text
v -2.040000 0.682000 0.000000
v -1.951000 0.682000 0.000000
v -1.951000 0.000000 0.000000
v -2.040000 0.000000 0.000000
v -1.845000 0.130000 0.000000
v -1.832019 0.121795 0.000000
v -1.819065 0.114194 0.000000
v -1.806125 0.107219 0.000000
v -1.793185 0.100889 0.000000
v -1.780232 0.095226 0.000000
v -1.767250 0.090250 0.000000
v -1.754227 0.085983 0.000000
v -1.741148 0.082444 0.000000
v -1.728000 0.079656 0.000000
v -1.714769 0.077639 0.000000
v -1.701440 0.076413 0.000000
v -1.688000 0.076000 0.000000
v -1.667230 0.076957 0.000000
v -1.647926 0.079819 0.000000
v -1.630094 0.084578 0.000000
v -1.613741 0.091222 0.000000
v -1.598874 0.099741 0.000000
v -1.585500 0.110125 0.000000
v -1.573626 0.122363 0.000000
v -1.563259 0.136444 0.000000
v -1.554406 0.152359 0.000000
v -1.547074 0.170097 0.000000
v -1.541270 0.189648 0.000000
v -1.537000 0.211000 0.000000
v -1.853000 0.211000 0.000000
v -1.851436 0.250731 0.000000
v -1.846820 0.286935 0.000000
v -1.839266 0.319625 0.000000
v -1.828889 0.348815 0.000000
v -1.815804 0.374519 0.000000
v -1.800125 0.396750 0.000000
v -1.781967 0.415523 0.000000
v -1.761445 0.430852 0.000000
v -1.738672 0.442750 0.000000
v -1.713764 0.451232 0.000000
v -1.686835 0.456310 0.000000
v -1.658000 0.458000 0.000000
v -1.627820 0.456111 0.000000
v -1.599389 0.450556 0.000000
v -1.572875 0.441500 0.000000
v -1.548445 0.429111 0.000000
v -1.526264 0.413556 0.000000
v -1.506500 0.395000 0.000000
v -1.489319 0.373611 0.000000
v -1.474889 0.349556 0.000000
v -1.463375 0.323000 0.000000
v -1.454944 0.294111 0.000000
v -1.449764 0.263056 0.000000
v -1.448000 0.230000 0.000000
v -1.449616 0.199249 0.000000
v -1.454426 0.169241 0.000000
v -1.462375 0.140344 0.000000
v -1.473408 0.112926 0.000000
v -1.487468 0.087355 0.000000
v -1.504500 0.064000 0.000000
v -1.524449 0.043228 0.000000
v -1.547259 0.025407 0.000000
v -1.572875 0.010906 0.000000
v -1.601241 0.000093 0.000000
v -1.632301 -0.006665 0.000000
v -1.666000 -0.009000 0.000000
v -1.684456 -0.008645 0.000000
v -1.701898 -0.007574 0.000000
v -1.718438 -0.005781 0.000000
v -1.734185 -0.003259 0.000000
v -1.749252 -0.000001 0.000000
v -1.763750 0.004000 0.000000
v -1.777789 0.008751 0.000000
v -1.791481 0.014259 0.000000
v -1.804937 0.020531 0.000000
v -1.818269 0.027574 0.000000
v -1.831586 0.035395 0.000000
v -1.845000 0.044000 0.000000
v -1.539000 0.270000 0.000000
v -1.542603 0.287099 0.000000
v -1.547407 0.302875 0.000000
v -1.553406 0.317297 0.000000
v -1.560593 0.330333 0.000000
v -1.568959 0.341953 0.000000
v -1.578500 0.352125 0.000000
v -1.589207 0.360818 0.000000
v -1.601074 0.368000 0.000000
v -1.614094 0.373641 0.000000
v -1.628259 0.377708 0.000000
v -1.643564 0.380172 0.000000
v -1.660000 0.381000 0.000000
v -1.675243 0.380115 0.000000
v -1.689445 0.377500 0.000000
v -1.702563 0.373219 0.000000
v -1.714556 0.367333 0.000000
v -1.725382 0.359906 0.000000
v -1.735000 0.351000 0.000000
v -1.743368 0.340677 0.000000
v -1.750444 0.329000 0.000000
v -1.756187 0.316031 0.000000
v -1.760556 0.301833 0.000000
v -1.763507 0.286469 0.000000
v -1.765000 0.270000 0.000000
v -1.175000 -0.009000 0.000000
v -1.205000 -0.009000 0.000000
v -1.403000 0.449000 0.000000
v -1.308000 0.449000 0.000000
v -1.190000 0.173000 0.000000
v -1.069000 0.449000 0.000000
v -0.972000 0.449000 0.000000
v -0.928000 0.130000 0.000000
v -0.915019 0.121795 0.000000
v -0.902065 0.114194 0.000000
v -0.889125 0.107219 0.000000
v -0.876185 0.100889 0.000000
v -0.863232 0.095226 0.000000
v -0.850250 0.090250 0.000000
v -0.837227 0.085983 0.000000
v -0.824148 0.082444 0.000000
v -0.811000 0.079656 0.000000
v -0.797769 0.077639 0.000000
v -0.784440 0.076413 0.000000
v -0.771000 0.076000 0.000000
v -0.750230 0.076957 0.000000
v -0.730926 0.079819 0.000000
v -0.713094 0.084578 0.000000
v -0.696741 0.091222 0.000000
v -0.681874 0.099741 0.000000
v -0.668500 0.110125 0.000000
v -0.656626 0.122363 0.000000
v -0.646259 0.136444 0.000000
v -0.637406 0.152359 0.000000
v -0.630074 0.170097 0.000000
v -0.624270 0.189648 0.000000
v -0.620000 0.211000 0.000000
v -0.936000 0.211000 0.000000
v -0.934436 0.250731 0.000000
v -0.929819 0.286935 0.000000
v -0.922266 0.319625 0.000000
v -0.911889 0.348815 0.000000
v -0.898804 0.374519 0.000000
v -0.883125 0.396750 0.000000
v -0.864967 0.415523 0.000000
v -0.844444 0.430852 0.000000
v -0.821672 0.442750 0.000000
v -0.796764 0.451232 0.000000
v -0.769835 0.456310 0.000000
v -0.741000 0.458000 0.000000
v -0.710819 0.456111 0.000000
v -0.682389 0.450556 0.000000
v -0.655875 0.441500 0.000000
v -0.631444 0.429111 0.000000
v -0.609264 0.413556 0.000000
v -0.589500 0.395000 0.000000
v -0.572319 0.373611 0.000000
v -0.557889 0.349556 0.000000
v -0.546375 0.323000 0.000000
v -0.537944 0.294111 0.000000
v -0.532764 0.263056 0.000000
v -0.531000 0.230000 0.000000
v -0.532616 0.199249 0.000000
v -0.537426 0.169241 0.000000
v -0.545375 0.140344 0.000000
v -0.556407 0.112926 0.000000
v -0.570468 0.087355 0.000000
v -0.587500 0.064000 0.000000
v -0.607449 0.043228 0.000000
v -0.630259 0.025407 0.000000
v -0.655875 0.010906 0.000000
v -0.684241 0.000093 0.000000
v -0.715301 -0.006665 0.000000
v -0.749000 -0.009000 0.000000
v -0.767456 -0.008645 0.000000
v -0.784898 -0.007574 0.000000
v -0.801437 -0.005781 0.000000
v -0.817185 -0.003259 0.000000
v -0.832252 -0.000001 0.000000
v -0.846750 0.004000 0.000000
v -0.860789 0.008751 0.000000
v -0.874481 0.014259 0.000000
v -0.887937 0.020531 0.000000
v -0.901268 0.027574 0.000000
v -0.914586 0.035395 0.000000
v -0.928000 0.044000 0.000000
v -0.622000 0.270000 0.000000
v -0.625603 0.287099 0.000000
v -0.630407 0.302875 0.000000
v -0.636406 0.317297 0.000000
v -0.643593 0.330333 0.000000
v -0.651960 0.341953 0.000000
v -0.661500 0.352125 0.000000
v -0.672207 0.360818 0.000000
v -0.684074 0.368000 0.000000
v -0.697094 0.373641 0.000000
v -0.711259 0.377708 0.000000
v -0.726564 0.380172 0.000000
v -0.743000 0.381000 0.000000
v -0.758243 0.380115 0.000000
v -0.772444 0.377500 0.000000
v -0.785563 0.373219 0.000000
v -0.797556 0.367333 0.000000
v -0.808382 0.359906 0.000000
v -0.818000 0.351000 0.000000
v -0.826368 0.340677 0.000000
v -0.833444 0.329000 0.000000
v -0.839188 0.316031 0.000000
v -0.843556 0.301833 0.000000
v -0.846507 0.286469 0.000000
v -0.848000 0.270000 0.000000
v -0.172000 0.682000 0.000000
v -0.074000 0.682000 0.000000
v -0.074000 0.000000 0.000000
v -0.480000 0.000000 0.000000
v -0.480000 0.088000 0.000000
v -0.172000 0.088000 0.000000
vn -0.0000 -0.0000 -1.0000
vt 0.666667 0.000000
vt 0.000000 0.000000
vt 0.333333 0.000000
vt 1.000000 0.000000
vt 0.387755 0.000000
vt 0.367347 0.000000
vt 0.377551 0.000000
vt 0.357143 0.000000
vt 0.397959 0.000000
vt 0.346939 0.000000
vt 0.408163 0.000000
vt 0.336735 0.000000
vt 0.418367 0.000000
vt 0.326531 0.000000
vt 0.428571 0.000000
vt 0.316327 0.000000
vt 0.438776 0.000000
vt 0.306122 0.000000
vt 0.448980 0.000000
vt 0.877551 0.000000
vt 0.867347 0.000000
vt 0.887755 0.000000
vt 0.857143 0.000000
vt 0.897959 0.000000
vt 0.846939 0.000000
vt 0.908163 0.000000
vt 0.295918 0.000000
vt 0.836735 0.000000
vt 0.459184 0.000000
vt 0.918367 0.000000
vt 0.826531 0.000000
vt 0.928571 0.000000
vt 0.816327 0.000000
vt 0.938776 0.000000
vt 0.806122 0.000000
vt 0.948980 0.000000
vt 0.469388 0.000000
vt 0.285714 0.000000
vt 0.795918 0.000000
vt 0.959184 0.000000
vt 0.785714 0.000000
vt 0.969388 0.000000
vt 0.479592 0.000000
vt 0.275510 0.000000
vt 0.775510 0.000000
vt 0.979592 0.000000
vt 0.765306 0.000000
vt 0.989796 0.000000
vt 0.489796 0.000000
vt 0.755102 0.000000
vt 0.265306 0.000000
vt 0.500000 0.000000
vt 0.255102 0.000000
vt 0.510204 0.000000
vt 0.244898 0.000000
vt 0.234694 0.000000
vt 0.520408 0.000000
vt 0.224490 0.000000
vt 0.214286 0.000000
vt 0.530612 0.000000
vt 0.204082 0.000000
vt 0.540816 0.000000
vt 0.193878 0.000000
vt 0.010204 0.000000
vt 0.744898 0.000000
vt 0.183673 0.000000
vt 0.020408 0.000000
vt 0.030612 0.000000
vt 0.551020 0.000000
vt 0.173469 0.000000
vt 0.040816 0.000000
vt 0.051020 0.000000
vt 0.163265 0.000000
vt 0.061224 0.000000
vt 0.153061 0.000000
vt 0.071429 0.000000
vt 0.561224 0.000000
vt 0.081633 0.000000
vt 0.142857 0.000000
vt 0.091837 0.000000
vt 0.132653 0.000000
vt 0.102041 0.000000
vt 0.112245 0.000000
vt 0.122449 0.000000
vt 0.571429 0.000000
vt 0.734694 0.000000
vt 0.581633 0.000000
vt 0.724490 0.000000
vt 0.714286 0.000000
vt 0.591837 0.000000
vt 0.704082 0.000000
vt 0.693878 0.000000
vt 0.602041 0.000000
vt 0.683673 0.000000
vt 0.673469 0.000000
vt 0.612245 0.000000
vt 0.663265 0.000000
vt 0.653061 0.000000
vt 0.642857 0.000000
vt 0.622449 0.000000
vt 0.632653 0.000000
vt 0.833333 0.000000
vt 0.166667 0.000000
vt 0.400000 0.000000
vt 0.200000 0.000000
vt 0.800000 0.000000
vt 0.600000 0.000000
s 0
usemtl Material.001
f 3/1/1 1/2/1 2/3/1
f 3/1/1 4/4/1 1/2/1
f 43/5/1 41/6/1 42/7/1
f 43/5/1 40/8/1 41/6/1
f 44/9/1 40/8/1 43/5/1
f 44/9/1 39/10/1 40/8/1
f 45/11/1 39/10/1 44/9/1
f 45/11/1 38/12/1 39/10/1
f 46/13/1 38/12/1 45/11/1
f 46/13/1 37/14/1 38/12/1
f 47/15/1 37/14/1 46/13/1
f 47/15/1 36/16/1 37/14/1
f 48/17/1 36/16/1 47/15/1
f 48/17/1 35/18/1 36/16/1
f 49/19/1 91/20/1 48/17/1
f 91/20/1 35/18/1 48/17/1
f 49/19/1 90/21/1 91/20/1
f 92/22/1 35/18/1 91/20/1
f 49/19/1 89/23/1 90/21/1
f 93/24/1 35/18/1 92/22/1
f 49/19/1 88/25/1 89/23/1
f 94/26/1 35/18/1 93/24/1
f 94/26/1 34/27/1 35/18/1
f 49/19/1 87/28/1 88/25/1
f 50/29/1 87/28/1 49/19/1
f 95/30/1 34/27/1 94/26/1
f 50/29/1 86/31/1 87/28/1
f 96/32/1 34/27/1 95/30/1
f 50/29/1 85/33/1 86/31/1
f 97/34/1 34/27/1 96/32/1
f 50/29/1 84/35/1 85/33/1
f 98/36/1 34/27/1 97/34/1
f 51/37/1 84/35/1 50/29/1
f 98/36/1 33/38/1 34/27/1
f 51/37/1 83/39/1 84/35/1
f 99/40/1 33/38/1 98/36/1
f 51/37/1 82/41/1 83/39/1
f 100/42/1 33/38/1 99/40/1
f 52/43/1 82/41/1 51/37/1
f 100/42/1 32/44/1 33/38/1
f 52/43/1 81/45/1 82/41/1
f 101/46/1 32/44/1 100/42/1
f 52/43/1 80/47/1 81/45/1
f 102/48/1 32/44/1 101/46/1
f 53/49/1 80/47/1 52/43/1
f 53/49/1 79/50/1 80/47/1
f 102/48/1 31/51/1 32/44/1
f 103/4/1 31/51/1 102/48/1
f 53/49/1 103/4/1 79/50/1
f 53/49/1 31/51/1 103/4/1
f 54/52/1 31/51/1 53/49/1
f 54/52/1 30/53/1 31/51/1
f 55/54/1 29/55/1 54/52/1
f 29/55/1 30/53/1 54/52/1
f 55/54/1 28/56/1 29/55/1
f 56/57/1 28/56/1 55/54/1
f 56/57/1 27/58/1 28/56/1
f 56/57/1 26/59/1 27/58/1
f 57/60/1 26/59/1 56/57/1
f 57/60/1 25/61/1 26/59/1
f 58/62/1 25/61/1 57/60/1
f 58/62/1 24/63/1 25/61/1
f 6/64/1 78/65/1 5/2/1
f 58/62/1 23/66/1 24/63/1
f 7/67/1 78/65/1 6/64/1
f 8/68/1 78/65/1 7/67/1
f 59/69/1 23/66/1 58/62/1
f 59/69/1 22/70/1 23/66/1
f 9/71/1 78/65/1 8/68/1
f 10/72/1 78/65/1 9/71/1
f 59/69/1 21/73/1 22/70/1
f 11/74/1 78/65/1 10/72/1
f 59/69/1 20/75/1 21/73/1
f 12/76/1 78/65/1 11/74/1
f 60/77/1 20/75/1 59/69/1
f 13/78/1 78/65/1 12/76/1
f 60/77/1 19/79/1 20/75/1
f 14/80/1 78/65/1 13/78/1
f 60/77/1 18/81/1 19/79/1
f 15/82/1 78/65/1 14/80/1
f 16/83/1 78/65/1 15/82/1
f 60/77/1 17/84/1 18/81/1
f 17/84/1 78/65/1 16/83/1
f 60/77/1 78/65/1 17/84/1
f 61/85/1 78/65/1 60/77/1
f 61/85/1 77/86/1 78/65/1
f 62/87/1 77/86/1 61/85/1
f 62/87/1 76/88/1 77/86/1
f 62/87/1 75/89/1 76/88/1
f 63/90/1 75/89/1 62/87/1
f 63/90/1 74/91/1 75/89/1
f 63/90/1 73/92/1 74/91/1
f 64/93/1 73/92/1 63/90/1
f 64/93/1 72/94/1 73/92/1
f 64/93/1 71/95/1 72/94/1
f 65/96/1 71/95/1 64/93/1
f 65/96/1 70/97/1 71/95/1
f 65/96/1 69/98/1 70/97/1
f 65/96/1 68/99/1 69/98/1
f 66/100/1 68/99/1 65/96/1
f 66/100/1 67/101/1 68/99/1
f 104/2/1 109/102/1 110/4/1
f 104/2/1 108/1/1 109/102/1
f 108/1/1 106/3/1 107/52/1
f 108/1/1 105/103/1 106/3/1
f 104/2/1 105/103/1 108/1/1
f 149/5/1 147/6/1 148/7/1
f 149/5/1 146/8/1 147/6/1
f 150/9/1 146/8/1 149/5/1
f 150/9/1 145/10/1 146/8/1
f 151/11/1 145/10/1 150/9/1
f 151/11/1 144/12/1 145/10/1
f 152/13/1 144/12/1 151/11/1
f 152/13/1 143/14/1 144/12/1
f 153/15/1 143/14/1 152/13/1
f 153/15/1 142/16/1 143/14/1
f 154/17/1 142/16/1 153/15/1
f 154/17/1 141/18/1 142/16/1
f 155/19/1 197/20/1 154/17/1
f 197/20/1 141/18/1 154/17/1
f 155/19/1 196/21/1 197/20/1
f 198/22/1 141/18/1 197/20/1
f 155/19/1 195/23/1 196/21/1
f 199/24/1 141/18/1 198/22/1
f 155/19/1 194/25/1 195/23/1
f 200/26/1 141/18/1 199/24/1
f 200/26/1 140/27/1 141/18/1
f 155/19/1 193/28/1 194/25/1
f 156/29/1 193/28/1 155/19/1
f 201/30/1 140/27/1 200/26/1
f 156/29/1 192/31/1 193/28/1
f 202/32/1 140/27/1 201/30/1
f 156/29/1 191/33/1 192/31/1
f 203/34/1 140/27/1 202/32/1
f 156/29/1 190/35/1 191/33/1
f 204/36/1 140/27/1 203/34/1
f 157/37/1 190/35/1 156/29/1
f 204/36/1 139/38/1 140/27/1
f 157/37/1 189/39/1 190/35/1
f 205/40/1 139/38/1 204/36/1
f 157/37/1 188/41/1 189/39/1
f 206/42/1 139/38/1 205/40/1
f 158/43/1 188/41/1 157/37/1
f 206/42/1 138/44/1 139/38/1
f 158/43/1 187/45/1 188/41/1
f 207/46/1 138/44/1 206/42/1
f 158/43/1 186/47/1 187/45/1
f 208/48/1 138/44/1 207/46/1
f 159/49/1 186/47/1 158/43/1
f 159/49/1 185/50/1 186/47/1
f 208/48/1 137/51/1 138/44/1
f 209/4/1 137/51/1 208/48/1
f 159/49/1 209/4/1 185/50/1
f 159/49/1 137/51/1 209/4/1
f 160/52/1 137/51/1 159/49/1
f 160/52/1 136/53/1 137/51/1
f 161/54/1 135/55/1 160/52/1
f 135/55/1 136/53/1 160/52/1
f 161/54/1 134/56/1 135/55/1
f 162/57/1 134/56/1 161/54/1
f 162/57/1 133/58/1 134/56/1
f 162/57/1 132/59/1 133/58/1
f 163/60/1 132/59/1 162/57/1
f 163/60/1 131/61/1 132/59/1
f 164/62/1 131/61/1 163/60/1
f 164/62/1 130/63/1 131/61/1
f 112/64/1 184/65/1 111/2/1
f 164/62/1 129/66/1 130/63/1
f 113/67/1 184/65/1 112/64/1
f 114/68/1 184/65/1 113/67/1
f 165/69/1 129/66/1 164/62/1
f 165/69/1 128/70/1 129/66/1
f 115/71/1 184/65/1 114/68/1
f 116/72/1 184/65/1 115/71/1
f 165/69/1 127/73/1 128/70/1
f 117/74/1 184/65/1 116/72/1
f 165/69/1 126/75/1 127/73/1
f 118/76/1 184/65/1 117/74/1
f 166/77/1 126/75/1 165/69/1
f 119/78/1 184/65/1 118/76/1
f 166/77/1 125/79/1 126/75/1
f 120/80/1 184/65/1 119/78/1
f 166/77/1 124/81/1 125/79/1
f 121/82/1 184/65/1 120/80/1
f 122/83/1 184/65/1 121/82/1
f 166/77/1 123/84/1 124/81/1
f 123/84/1 184/65/1 122/83/1
f 166/77/1 184/65/1 123/84/1
f 167/85/1 184/65/1 166/77/1
f 167/85/1 183/86/1 184/65/1
f 168/87/1 183/86/1 167/85/1
f 168/87/1 182/88/1 183/86/1
f 168/87/1 181/89/1 182/88/1
f 169/90/1 181/89/1 168/87/1
f 169/90/1 180/91/1 181/89/1
f 169/90/1 179/92/1 180/91/1
f 170/93/1 179/92/1 169/90/1
f 170/93/1 178/94/1 179/92/1
f 170/93/1 177/95/1 178/94/1
f 171/96/1 177/95/1 170/93/1
f 171/96/1 176/97/1 177/95/1
f 171/96/1 175/98/1 176/97/1
f 171/96/1 174/99/1 175/98/1
f 172/100/1 174/99/1 171/96/1
f 172/100/1 173/101/1 174/99/1
f 212/104/1 210/2/1 211/105/1
f 212/104/1 215/4/1 210/2/1
f 212/104/1 214/106/1 215/4/1
f 212/104/1 213/107/1 214/106/1
