# Blender 4.0.2
# www.blender.org
mtllib 0.mtl
o 0
v -0.470000 0.341000 0.000000
v -0.468192 0.392001 0.000000
v -0.462870 0.439843 0.000000
v -0.454188 0.484281 0.000000
v -0.442296 0.525074 0.000000
v -0.427350 0.561978 0.000000
v -0.409500 0.594750 0.000000
v -0.388900 0.623147 0.000000
v -0.365704 0.646926 0.000000
v -0.340062 0.665844 0.000000
v -0.312130 0.679658 0.000000
v -0.282058 0.688124 0.000000
v -0.250000 0.691000 0.000000
v -0.217942 0.688124 0.000000
v -0.187870 0.679657 0.000000
v -0.159938 0.665844 0.000000
v -0.134296 0.646926 0.000000
v -0.111100 0.623147 0.000000
v -0.090500 0.594750 0.000000
v -0.072650 0.561978 0.000000
v -0.057704 0.525074 0.000000
v -0.045812 0.484281 0.000000
v -0.037130 0.439843 0.000000
v -0.031808 0.392001 0.000000
v -0.030000 0.341000 0.000000
v -0.031808 0.289999 0.000000
v -0.037130 0.242157 0.000000
v -0.045813 0.197719 0.000000
v -0.057704 0.156926 0.000000
v -0.072650 0.120022 0.000000
v -0.090500 0.087250 0.000000
v -0.111100 0.058853 0.000000
v -0.134296 0.035074 0.000000
v -0.159938 0.016156 0.000000
v -0.187870 0.002343 0.000000
v -0.217942 -0.006124 0.000000
v -0.250000 -0.009000 0.000000
v -0.282058 -0.006124 0.000000
v -0.312130 0.002343 0.000000
v -0.340063 0.016156 0.000000
v -0.365704 0.035074 0.000000
v -0.388900 0.058853 0.000000
v -0.409500 0.087250 0.000000
v -0.427350 0.120022 0.000000
v -0.442296 0.156926 0.000000
v -0.454188 0.197719 0.000000
v -0.462870 0.242157 0.000000
v -0.468192 0.289999 0.000000
v -0.372000 0.341000 0.000000
v -0.371051 0.302332 0.000000
v -0.368241 0.266407 0.000000
v -0.363625 0.233344 0.000000
v -0.357259 0.203259 0.000000
v -0.349199 0.176272 0.000000
v -0.339500 0.152500 0.000000
v -0.328218 0.132061 0.000000
v -0.315407 0.115074 0.000000
v -0.301125 0.101656 0.000000
v -0.285426 0.091926 0.000000
v -0.268366 0.086001 0.000000
v -0.250000 0.084000 0.000000
v -0.231634 0.086001 0.000000
v -0.214574 0.091926 0.000000
v -0.198875 0.101656 0.000000
v -0.184593 0.115074 0.000000
v -0.171782 0.132061 0.000000
v -0.160500 0.152500 0.000000
v -0.150801 0.176272 0.000000
v -0.142741 0.203259 0.000000
v -0.136375 0.233344 0.000000
v -0.131759 0.266407 0.000000
v -0.128949 0.302332 0.000000
v -0.128000 0.341000 0.000000
v -0.128949 0.379668 0.000000
v -0.131759 0.415593 0.000000
v -0.136375 0.448656 0.000000
v -0.142741 0.478741 0.000000
v -0.150801 0.505728 0.000000
v -0.160500 0.529500 0.000000
v -0.171782 0.549939 0.000000
v -0.184593 0.566926 0.000000
v -0.198875 0.580344 0.000000
v -0.214574 0.590074 0.000000
v -0.231634 0.595999 0.000000
v -0.250000 0.598000 0.000000
v -0.268366 0.595999 0.000000
v -0.285426 0.590074 0.000000
v -0.301125 0.580344 0.000000
v -0.315407 0.566926 0.000000
v -0.328218 0.549939 0.000000
v -0.339500 0.529500 0.000000
v -0.349199 0.505728 0.000000
v -0.357259 0.478741 0.000000
v -0.363625 0.448656 0.000000
v -0.368241 0.415593 0.000000
v -0.371051 0.379668 0.000000
vn -0.0000 -0.0000 -1.0000
vt 0.136842 0.000000
vt 0.115789 0.000000
vt 0.126316 0.000000
vt 0.105263 0.000000
vt 0.147368 0.000000
vt 0.094737 0.000000
vt 0.157895 0.000000
vt 0.084211 0.000000
vt 0.168421 0.000000
vt 0.178947 0.000000
vt 0.073684 0.000000
vt 0.189474 0.000000
vt 0.884211 0.000000
vt 0.063158 0.000000
vt 0.873684 0.000000
vt 0.894737 0.000000
vt 0.863158 0.000000
vt 0.905263 0.000000
vt 0.200000 0.000000
vt 0.052632 0.000000
vt 0.852632 0.000000
vt 0.915789 0.000000
vt 0.842105 0.000000
vt 0.926316 0.000000
vt 0.831579 0.000000
vt 0.936842 0.000000
vt 0.210526 0.000000
vt 0.042105 0.000000
vt 0.821053 0.000000
vt 0.947368 0.000000
vt 0.810526 0.000000
vt 0.957895 0.000000
vt 0.221053 0.000000
vt 0.031579 0.000000
vt 0.800000 0.000000
vt 0.968421 0.000000
vt 0.231579 0.000000
vt 0.021053 0.000000
vt 0.789474 0.000000
vt 0.978947 0.000000
vt 0.778947 0.000000
vt 0.989474 0.000000
vt 0.242105 0.000000
vt 0.010526 0.000000
vt 0.768421 0.000000
vt 1.000000 0.000000
vt 0.252632 0.000000
vt 0.000000 0.000000
vt 0.757895 0.000000
vt 0.505263 0.000000
vt 0.263158 0.000000
vt 0.747368 0.000000
vt 0.515789 0.000000
vt 0.494737 0.000000
vt 0.736842 0.000000
vt 0.526316 0.000000
vt 0.273684 0.000000
vt 0.484211 0.000000
vt 0.726316 0.000000
vt 0.536842 0.000000
vt 0.284211 0.000000
vt 0.473684 0.000000
vt 0.547368 0.000000
vt 0.715789 0.000000
vt 0.557895 0.000000
vt 0.705263 0.000000
vt 0.294737 0.000000
vt 0.463158 0.000000
vt 0.568421 0.000000
vt 0.694737 0.000000
vt 0.305263 0.000000
vt 0.452632 0.000000
vt 0.578947 0.000000
vt 0.684211 0.000000
vt 0.589474 0.000000
vt 0.673684 0.000000
vt 0.315789 0.000000
vt 0.442105 0.000000
vt 0.600000 0.000000
vt 0.663158 0.000000
vt 0.610526 0.000000
vt 0.652632 0.000000
vt 0.621053 0.000000
vt 0.642105 0.000000
vt 0.326316 0.000000
vt 0.431579 0.000000
vt 0.631579 0.000000
vt 0.336842 0.000000
vt 0.421053 0.000000
vt 0.347368 0.000000
vt 0.410526 0.000000
vt 0.357895 0.000000
vt 0.400000 0.000000
vt 0.368421 0.000000
vt 0.389474 0.000000
vt 0.378947 0.000000
s 0
usemtl Material.001
f 14/1/1 12/2/1 13/3/1
f 14/1/1 11/4/1 12/2/1
f 15/5/1 11/4/1 14/1/1
f 15/5/1 10/6/1 11/4/1
f 16/7/1 10/6/1 15/5/1
f 16/7/1 9/8/1 10/6/1
f 17/9/1 9/8/1 16/7/1
f 18/10/1 9/8/1 17/9/1
f 18/10/1 8/11/1 9/8/1
f 19/12/1 8/11/1 18/10/1
f 19/12/1 85/13/1 8/11/1
f 85/13/1 7/14/1 8/11/1
f 19/12/1 84/15/1 85/13/1
f 86/16/1 7/14/1 85/13/1
f 19/12/1 83/17/1 84/15/1
f 87/18/1 7/14/1 86/16/1
f 20/19/1 83/17/1 19/12/1
f 87/18/1 6/20/1 7/14/1
f 20/19/1 82/21/1 83/17/1
f 88/22/1 6/20/1 87/18/1
f 20/19/1 81/23/1 82/21/1
f 89/24/1 6/20/1 88/22/1
f 20/19/1 80/25/1 81/23/1
f 90/26/1 6/20/1 89/24/1
f 21/27/1 80/25/1 20/19/1
f 90/26/1 5/28/1 6/20/1
f 21/27/1 79/29/1 80/25/1
f 91/30/1 5/28/1 90/26/1
f 21/27/1 78/31/1 79/29/1
f 92/32/1 5/28/1 91/30/1
f 22/33/1 78/31/1 21/27/1
f 92/32/1 4/34/1 5/28/1
f 22/33/1 77/35/1 78/31/1
f 93/36/1 4/34/1 92/32/1
f 23/37/1 77/35/1 22/33/1
f 93/36/1 3/38/1 4/34/1
f 23/37/1 76/39/1 77/35/1
f 94/40/1 3/38/1 93/36/1
f 23/37/1 75/41/1 76/39/1
f 95/42/1 3/38/1 94/40/1
f 24/43/1 75/41/1 23/37/1
f 95/42/1 2/44/1 3/38/1
f 24/43/1 74/45/1 75/41/1
f 96/46/1 2/44/1 95/42/1
f 25/47/1 74/45/1 24/43/1
f 96/46/1 1/48/1 2/44/1
f 25/47/1 73/49/1 74/45/1
f 49/50/1 1/48/1 96/46/1
f 26/51/1 73/49/1 25/47/1
f 26/51/1 72/52/1 73/49/1
f 50/53/1 1/48/1 49/50/1
f 50/53/1 48/54/1 1/48/1
f 26/51/1 71/55/1 72/52/1
f 51/56/1 48/54/1 50/53/1
f 27/57/1 71/55/1 26/51/1
f 51/56/1 47/58/1 48/54/1
f 27/57/1 70/59/1 71/55/1
f 52/60/1 47/58/1 51/56/1
f 28/61/1 70/59/1 27/57/1
f 52/60/1 46/62/1 47/58/1
f 53/63/1 46/62/1 52/60/1
f 28/61/1 69/64/1 70/59/1
f 54/65/1 46/62/1 53/63/1
f 28/61/1 68/66/1 69/64/1
f 29/67/1 68/66/1 28/61/1
f 54/65/1 45/68/1 46/62/1
f 55/69/1 45/68/1 54/65/1
f 29/67/1 67/70/1 68/66/1
f 30/71/1 67/70/1 29/67/1
f 55/69/1 44/72/1 45/68/1
f 56/73/1 44/72/1 55/69/1
f 30/71/1 66/74/1 67/70/1
f 57/75/1 44/72/1 56/73/1
f 30/71/1 65/76/1 66/74/1
f 31/77/1 65/76/1 30/71/1
f 57/75/1 43/78/1 44/72/1
f 58/79/1 43/78/1 57/75/1
f 31/77/1 64/80/1 65/76/1
f 59/81/1 43/78/1 58/79/1
f 31/77/1 63/82/1 64/80/1
f 60/83/1 43/78/1 59/81/1
f 31/77/1 62/84/1 63/82/1
f 32/85/1 62/84/1 31/77/1
f 60/83/1 42/86/1 43/78/1
f 61/87/1 42/86/1 60/83/1
f 32/85/1 61/87/1 62/84/1
f 32/85/1 42/86/1 61/87/1
f 33/88/1 42/86/1 32/85/1
f 33/88/1 41/89/1 42/86/1
f 34/90/1 41/89/1 33/88/1
f 34/90/1 40/91/1 41/89/1
f 35/92/1 40/91/1 34/90/1
f 35/92/1 39/93/1 40/91/1
f 36/94/1 39/93/1 35/92/1
f 36/94/1 38/95/1 39/93/1
f 37/96/1 38/95/1 36/94/1
o 0.001
v 14.068583 25.632412 4.006901
v 14.221586 25.626989 4.006901
v 14.365110 25.611023 4.006901
v 14.498426 25.584974 4.006901
v 14.620805 25.549301 4.006901
v 14.731517 25.504461 4.006901
v 14.829833 25.450912 4.006901
v 14.915024 25.389112 4.006901
v 14.986361 25.319523 4.006901
v 15.043115 25.242599 4.006901
v 15.084556 25.158800 4.006901
v 15.109955 25.068586 4.006901
v 15.118583 24.972412 4.006901
v 15.109955 24.876238 4.006901
v 15.084555 24.786022 4.006901
v 15.043114 24.702225 4.006901
v 14.986361 24.625301 4.006901
v 14.915024 24.555710 4.006901
v 14.829833 24.493912 4.006901
v 14.731517 24.440363 4.006901
v 14.620806 24.395523 4.006901
v 14.498426 24.359850 4.006901
v 14.365110 24.333801 4.006901
v 14.221586 24.317835 4.006901
v 14.068583 24.312412 4.006901
v 13.915579 24.317835 4.006901
v 13.772055 24.333801 4.006901
v 13.638739 24.359850 4.006901
v 13.516360 24.395523 4.006901
v 13.405649 24.440363 4.006901
v 13.307333 24.493912 4.006901
v 13.222142 24.555710 4.006901
v 13.150805 24.625301 4.006901
v 13.094051 24.702225 4.006901
v 13.052610 24.786024 4.006901
v 13.027211 24.876238 4.006901
v 13.018582 24.972412 4.006901
v 13.027211 25.068586 4.006901
v 13.052610 25.158802 4.006901
v 13.094051 25.242599 4.006901
v 13.150805 25.319523 4.006901
v 13.222142 25.389114 4.006901
v 13.307333 25.450912 4.006901
v 13.405649 25.504461 4.006901
v 13.516360 25.549301 4.006901
v 13.638739 25.584974 4.006901
v 13.772055 25.611023 4.006901
v 13.915580 25.626989 4.006901
v 14.068583 25.338411 4.006901
v 13.952579 25.335566 4.006901
v 13.844805 25.327135 4.006901
v 13.745614 25.313288 4.006901
v 13.655361 25.294189 4.006901
v 13.574399 25.270010 4.006901
v 13.503083 25.240911 4.006901
v 13.441767 25.207066 4.006901
v 13.390805 25.168634 4.006901
v 13.350552 25.125788 4.006901
v 13.321361 25.078690 4.006901
v 13.303586 25.027510 4.006901
v 13.297583 24.972412 4.006901
v 13.303586 24.917315 4.006901
v 13.321361 24.866135 4.006901
v 13.350552 24.819036 4.006901
v 13.390805 24.776190 4.006901
v 13.441767 24.737759 4.006901
v 13.503083 24.703913 4.006901
v 13.574399 24.674814 4.006901
v 13.655360 24.650635 4.006901
v 13.745614 24.631536 4.006901
v 13.844805 24.617689 4.006901
v 13.952579 24.609259 4.006901
v 14.068583 24.606413 4.006901
v 14.184587 24.609259 4.006901
v 14.292360 24.617689 4.006901
v 14.391552 24.631536 4.006901
v 14.481805 24.650635 4.006901
v 14.562767 24.674814 4.006901
v 14.634083 24.703913 4.006901
v 14.695398 24.737759 4.006901
v 14.746361 24.776190 4.006901
v 14.786614 24.819036 4.006901
v 14.815805 24.866135 4.006901
v 14.833579 24.917315 4.006901
v 14.839582 24.972412 4.006901
v 14.833579 25.027510 4.006901
v 14.815805 25.078690 4.006901
v 14.786614 25.125788 4.006901
v 14.746361 25.168634 4.006901
v 14.695398 25.207066 4.006901
v 14.634083 25.240911 4.006901
v 14.562767 25.270010 4.006901
v 14.481805 25.294189 4.006901
v 14.391552 25.313288 4.006901
v 14.292360 25.327135 4.006901
v 14.184586 25.335566 4.006901
vn -0.0000 -0.0000 -1.0000
vt 0.136842 0.000000
vt 0.115789 0.000000
vt 0.126316 0.000000
vt 0.105263 0.000000
vt 0.147368 0.000000
vt 0.094737 0.000000
vt 0.157895 0.000000
vt 0.084211 0.000000
vt 0.168421 0.000000
vt 0.178947 0.000000
vt 0.073684 0.000000
vt 0.189474 0.000000
vt 0.884211 0.000000
vt 0.063158 0.000000
vt 0.873684 0.000000
vt 0.894737 0.000000
vt 0.863158 0.000000
vt 0.905263 0.000000
vt 0.200000 0.000000
vt 0.052632 0.000000
vt 0.852632 0.000000
vt 0.915789 0.000000
vt 0.842105 0.000000
vt 0.926316 0.000000
vt 0.831579 0.000000
vt 0.936842 0.000000
vt 0.210526 0.000000
vt 0.042105 0.000000
vt 0.821053 0.000000
vt 0.947368 0.000000
vt 0.810526 0.000000
vt 0.957895 0.000000
vt 0.221053 0.000000
vt 0.031579 0.000000
vt 0.800000 0.000000
vt 0.968421 0.000000
vt 0.231579 0.000000
vt 0.021053 0.000000
vt 0.789474 0.000000
vt 0.978947 0.000000
vt 0.778947 0.000000
vt 0.989474 0.000000
vt 0.242105 0.000000
vt 0.010526 0.000000
vt 0.768421 0.000000
vt 1.000000 0.000000
vt 0.252632 0.000000
vt 0.000000 0.000000
vt 0.757895 0.000000
vt 0.505263 0.000000
vt 0.263158 0.000000
vt 0.747368 0.000000
vt 0.515789 0.000000
vt 0.494737 0.000000
vt 0.736842 0.000000
vt 0.526316 0.000000
vt 0.273684 0.000000
vt 0.484211 0.000000
vt 0.726316 0.000000
vt 0.536842 0.000000
vt 0.284211 0.000000
vt 0.473684 0.000000
vt 0.547368 0.000000
vt 0.715789 0.000000
vt 0.557895 0.000000
vt 0.705263 0.000000
vt 0.294737 0.000000
vt 0.463158 0.000000
vt 0.568421 0.000000
vt 0.694737 0.000000
vt 0.305263 0.000000
vt 0.452632 0.000000
vt 0.578947 0.000000
vt 0.684211 0.000000
vt 0.589474 0.000000
vt 0.673684 0.000000
vt 0.315789 0.000000
vt 0.442105 0.000000
vt 0.600000 0.000000
vt 0.663158 0.000000
vt 0.610526 0.000000
vt 0.652632 0.000000
vt 0.621053 0.000000
vt 0.642105 0.000000
vt 0.326316 0.000000
vt 0.431579 0.000000
vt 0.631579 0.000000
vt 0.336842 0.000000
vt 0.421053 0.000000
vt 0.347368 0.000000
vt 0.410526 0.000000
vt 0.357895 0.000000
vt 0.400000 0.000000
vt 0.368421 0.000000
vt 0.389474 0.000000
vt 0.378947 0.000000
s 0
usemtl Material.001
f 110/97/2 108/98/2 109/99/2
f 110/97/2 107/100/2 108/98/2
f 111/101/2 107/100/2 110/97/2
f 111/101/2 106/102/2 107/100/2
f 112/103/2 106/102/2 111/101/2
f 112/103/2 105/104/2 106/102/2
f 113/105/2 105/104/2 112/103/2
f 114/106/2 105/104/2 113/105/2
f 114/106/2 104/107/2 105/104/2
f 115/108/2 104/107/2 114/106/2
f 115/108/2 181/109/2 104/107/2
f 181/109/2 103/110/2 104/107/2
f 115/108/2 180/111/2 181/109/2
f 182/112/2 103/110/2 181/109/2
f 115/108/2 179/113/2 180/111/2
f 183/114/2 103/110/2 182/112/2
f 116/115/2 179/113/2 115/108/2
f 183/114/2 102/116/2 103/110/2
f 116/115/2 178/117/2 179/113/2
f 184/118/2 102/116/2 183/114/2
f 116/115/2 177/119/2 178/117/2
f 185/120/2 102/116/2 184/118/2
f 116/115/2 176/121/2 177/119/2
f 186/122/2 102/116/2 185/120/2
f 117/123/2 176/121/2 116/115/2
f 186/122/2 101/124/2 102/116/2
f 117/123/2 175/125/2 176/121/2
f 187/126/2 101/124/2 186/122/2
f 117/123/2 174/127/2 175/125/2
f 188/128/2 101/124/2 187/126/2
f 118/129/2 174/127/2 117/123/2
f 188/128/2 100/130/2 101/124/2
f 118/129/2 173/131/2 174/127/2
f 189/132/2 100/130/2 188/128/2
f 119/133/2 173/131/2 118/129/2
f 189/132/2 99/134/2 100/130/2
f 119/133/2 172/135/2 173/131/2
f 190/136/2 99/134/2 189/132/2
f 119/133/2 171/137/2 172/135/2
f 191/138/2 99/134/2 190/136/2
f 120/139/2 171/137/2 119/133/2
f 191/138/2 98/140/2 99/134/2
f 120/139/2 170/141/2 171/137/2
f 192/142/2 98/140/2 191/138/2
f 121/143/2 170/141/2 120/139/2
f 192/142/2 97/144/2 98/140/2
f 121/143/2 169/145/2 170/141/2
f 145/146/2 97/144/2 192/142/2
f 122/147/2 169/145/2 121/143/2
f 122/147/2 168/148/2 169/145/2
f 146/149/2 97/144/2 145/146/2
f 146/149/2 144/150/2 97/144/2
f 122/147/2 167/151/2 168/148/2
f 147/152/2 144/150/2 146/149/2
f 123/153/2 167/151/2 122/147/2
f 147/152/2 143/154/2 144/150/2
f 123/153/2 166/155/2 167/151/2
f 148/156/2 143/154/2 147/152/2
f 124/157/2 166/155/2 123/153/2
f 148/156/2 142/158/2 143/154/2
f 149/159/2 142/158/2 148/156/2
f 124/157/2 165/160/2 166/155/2
f 150/161/2 142/158/2 149/159/2
f 124/157/2 164/162/2 165/160/2
f 125/163/2 164/162/2 124/157/2
f 150/161/2 141/164/2 142/158/2
f 151/165/2 141/164/2 150/161/2
f 125/163/2 163/166/2 164/162/2
f 126/167/2 163/166/2 125/163/2
f 151/165/2 140/168/2 141/164/2
f 152/169/2 140/168/2 151/165/2
f 126/167/2 162/170/2 163/166/2
f 153/171/2 140/168/2 152/169/2
f 126/167/2 161/172/2 162/170/2
f 127/173/2 161/172/2 126/167/2
f 153/171/2 139/174/2 140/168/2
f 154/175/2 139/174/2 153/171/2
f 127/173/2 160/176/2 161/172/2
f 155/177/2 139/174/2 154/175/2
f 127/173/2 159/178/2 160/176/2
f 156/179/2 139/174/2 155/177/2
f 127/173/2 158/180/2 159/178/2
f 128/181/2 158/180/2 127/173/2
f 156/179/2 138/182/2 139/174/2
f 157/183/2 138/182/2 156/179/2
f 128/181/2 157/183/2 158/180/2
f 128/181/2 138/182/2 157/183/2
f 129/184/2 138/182/2 128/181/2
f 129/184/2 137/185/2 138/182/2
f 130/186/2 137/185/2 129/184/2
f 130/186/2 136/187/2 137/185/2
f 131/188/2 136/187/2 130/186/2
f 131/188/2 135/189/2 136/187/2
f 132/190/2 135/189/2 131/188/2
f 132/190/2 134/191/2 135/189/2
f 133/192/2 134/191/2 132/190/2
