# Blender 4.0.2
# www.blender.org
mtllib nine.mtl
o nine
v -0.305121 0.431655 0.000000
v -0.303428 0.415150 0.000000
v -0.303428 0.399492 0.000000
v -0.300042 0.382988 0.000000
v -0.297080 0.362251 0.000000
v -0.292848 0.339822 0.000000
v -0.280999 0.310199 0.000000
v -0.280152 0.295387 0.000000
v -0.274651 0.288616 0.000000
v -0.265341 0.262802 0.000000
v -0.255607 0.247143 0.000000
v -0.253068 0.236564 0.000000
v -0.245451 0.218366 0.000000
v -0.234871 0.200169 0.000000
v -0.223445 0.181972 0.000000
v -0.214981 0.164621 0.000000
v -0.202708 0.148117 0.000000
v -0.190859 0.128227 0.000000
v -0.181126 0.120609 0.000000
v -0.176047 0.108337 0.000000
v -0.163775 0.094372 0.000000
v -0.148963 0.079560 0.000000
v -0.138807 0.064325 0.000000
v -0.129073 0.052052 0.000000
v -0.116801 0.038934 0.000000
v -0.108337 0.024122 0.000000
v -0.101566 0.010580 0.000000
v -0.095218 0.000000 0.000000
v -0.086754 -0.009733 0.000000
v -0.083369 -0.013119 0.000000
v -0.077021 -0.009733 0.000000
v -0.079560 -0.000846 0.000000
v -0.080406 0.012273 0.000000
v -0.101566 0.060516 0.000000
v -0.116801 0.084215 0.000000
v -0.123995 0.090986 0.000000
v -0.130766 0.104105 0.000000
v -0.143039 0.124841 0.000000
v -0.151502 0.140499 0.000000
v -0.163775 0.158697 0.000000
v -0.173508 0.179433 0.000000
v -0.184511 0.195091 0.000000
v -0.205248 0.230639 0.000000
v -0.228100 0.287770 0.000000
v -0.235717 0.302581 0.000000
v -0.235717 0.310199 0.000000
v -0.239949 0.317393 0.000000
v -0.247990 0.337283 0.000000
v -0.254761 0.357173 0.000000
v -0.259839 0.374524 0.000000
v -0.262802 0.387220 0.000000
v -0.262802 0.402878 0.000000
v -0.260686 0.421075 0.000000
v -0.260686 0.430808 0.000000
v -0.254761 0.429116 0.000000
v -0.252222 0.418536 0.000000
v -0.248836 0.405417 0.000000
v -0.239949 0.395260 0.000000
v -0.231485 0.378756 0.000000
v -0.212442 0.362251 0.000000
v -0.196784 0.349979 0.000000
v -0.167160 0.334744 0.000000
v -0.148963 0.333474 0.000000
v -0.124841 0.330089 0.000000
v -0.103259 0.333474 0.000000
v -0.089293 0.339822 0.000000
v -0.067711 0.346593 0.000000
v -0.052899 0.354634 0.000000
v -0.044012 0.366483 0.000000
v -0.043165 0.371985 0.000000
v -0.034702 0.386373 0.000000
v -0.027931 0.406686 0.000000
v -0.026661 0.423614 0.000000
v -0.023275 0.437579 0.000000
v -0.019044 0.457469 0.000000
v -0.023275 0.479475 0.000000
v -0.024968 0.502751 0.000000
v -0.031316 0.521794 0.000000
v -0.033009 0.535760 0.000000
v -0.039780 0.547609 0.000000
v -0.047821 0.558189 0.000000
v -0.060516 0.571308 0.000000
v -0.086754 0.584850 0.000000
v -0.101566 0.593737 0.000000
v -0.118917 0.597122 0.000000
v -0.134998 0.597969 0.000000
v -0.156157 0.597969 0.000000
v -0.175201 0.595430 0.000000
v -0.196784 0.591198 0.000000
v -0.214981 0.584850 0.000000
v -0.225138 0.577232 0.000000
v -0.236564 0.570461 0.000000
v -0.254761 0.558189 0.000000
v -0.255607 0.553957 0.000000
v -0.262802 0.549302 0.000000
v -0.267033 0.543377 0.000000
v -0.272958 0.533220 0.000000
v -0.280999 0.521794 0.000000
v -0.292002 0.501904 0.000000
v -0.299196 0.483707 0.000000
v -0.303428 0.465510 0.000000
v -0.304274 0.449852 0.000000
v -0.305121 0.439272 0.000000
v -0.067711 -0.007617 0.000000
v -0.064325 -0.015658 0.000000
v -0.054592 -0.009733 0.000000
v -0.056284 -0.001693 0.000000
v -0.064325 -0.001693 0.000000
v -0.245451 0.473127 0.000000
v -0.244604 0.485400 0.000000
v -0.236564 0.498519 0.000000
v -0.227253 0.511215 0.000000
v -0.214981 0.521794 0.000000
v -0.205248 0.526026 0.000000
v -0.200169 0.527719 0.000000
v -0.192552 0.533220 0.000000
v -0.179433 0.533220 0.000000
v -0.168007 0.530258 0.000000
v -0.156157 0.526026 0.000000
v -0.141346 0.521794 0.000000
v -0.130766 0.515870 0.000000
v -0.128227 0.511215 0.000000
v -0.123149 0.510368 0.000000
v -0.118917 0.505290 0.000000
v -0.111722 0.501904 0.000000
v -0.101566 0.489632 0.000000
v -0.095218 0.475667 0.000000
v -0.089293 0.462971 0.000000
v -0.085061 0.454930 0.000000
v -0.085061 0.445620 0.000000
v -0.088447 0.437579 0.000000
v -0.086754 0.429116 0.000000
v -0.088447 0.419382 0.000000
v -0.091832 0.417689 0.000000
v -0.096911 0.409226 0.000000
v -0.101566 0.401185 0.000000
v -0.106644 0.398646 0.000000
v -0.116801 0.390182 0.000000
v -0.132459 0.390182 0.000000
v -0.143885 0.394414 0.000000
v -0.148963 0.402878 0.000000
v -0.150656 0.413457 0.000000
v -0.153195 0.425730 0.000000
v -0.156157 0.434194 0.000000
v -0.161236 0.443927 0.000000
v -0.168007 0.451545 0.000000
v -0.176894 0.454930 0.000000
v -0.190859 0.459162 0.000000
v -0.205248 0.461278 0.000000
v -0.215827 0.454930 0.000000
v -0.225138 0.453237 0.000000
v -0.234871 0.453237 0.000000
v -0.244604 0.463817 0.000000
v 0.036394 0.458316 0.000000
v 0.038934 0.453237 0.000000
v 0.046974 0.449852 0.000000
v 0.052052 0.451545 0.000000
v 0.052899 0.457469 0.000000
v 0.049513 0.465510 0.000000
v 0.040626 0.465510 0.000000
vn -0.0000 -0.0000 -1.0000
vt 0.987421 0.000000
vt 1.000000 0.000000
vt 0.993711 0.000000
vt 0.962264 0.000000
vt 0.968553 0.000000
vt 0.981132 0.000000
vt 0.974843 0.000000
vt 0.528302 0.000000
vt 0.540881 0.000000
vt 0.534591 0.000000
vt 0.547170 0.000000
vt 0.522013 0.000000
vt 0.553459 0.000000
vt 0.515723 0.000000
vt 0.559748 0.000000
vt 0.509434 0.000000
vt 0.566038 0.000000
vt 0.572327 0.000000
vt 0.503145 0.000000
vt 0.578616 0.000000
vt 0.496855 0.000000
vt 0.584906 0.000000
vt 0.591195 0.000000
vt 0.597484 0.000000
vt 0.490566 0.000000
vt 0.603774 0.000000
vt 0.484277 0.000000
vt 0.729560 0.000000
vt 0.735849 0.000000
vt 0.723270 0.000000
vt 0.716981 0.000000
vt 0.610063 0.000000
vt 0.742138 0.000000
vt 0.710692 0.000000
vt 0.748428 0.000000
vt 0.704403 0.000000
vt 0.477987 0.000000
vt 0.754717 0.000000
vt 0.698113 0.000000
vt 0.616352 0.000000
vt 0.761006 0.000000
vt 0.767296 0.000000
vt 0.691824 0.000000
vt 0.773585 0.000000
vt 0.779874 0.000000
vt 0.471698 0.000000
vt 0.786164 0.000000
vt 0.622642 0.000000
vt 0.685535 0.000000
vt 0.792453 0.000000
vt 0.679245 0.000000
vt 0.628931 0.000000
vt 0.465409 0.000000
vt 0.798742 0.000000
vt 0.955975 0.000000
vt 0.635220 0.000000
vt 0.949686 0.000000
vt 0.805031 0.000000
vt 0.924528 0.000000
vt 0.937107 0.000000
vt 0.930818 0.000000
vt 0.918239 0.000000
vt 0.459119 0.000000
vt 0.811321 0.000000
vt 0.911950 0.000000
vt 0.943396 0.000000
vt 0.905660 0.000000
vt 0.641509 0.000000
vt 0.817610 0.000000
vt 0.899371 0.000000
vt 0.000000 0.000000
vt 0.452830 0.000000
vt 0.823899 0.000000
vt 0.893082 0.000000
vt 0.333333 0.000000
vt 0.006289 0.000000
vt 0.339623 0.000000
vt 0.327044 0.000000
vt 0.830189 0.000000
vt 0.345912 0.000000
vt 0.886792 0.000000
vt 0.446541 0.000000
vt 0.320755 0.000000
vt 0.836478 0.000000
vt 0.352201 0.000000
vt 0.842767 0.000000
vt 0.012579 0.000000
vt 0.880503 0.000000
vt 0.849057 0.000000
vt 0.440252 0.000000
vt 0.358491 0.000000
vt 0.874214 0.000000
vt 0.314465 0.000000
vt 0.855346 0.000000
vt 0.018868 0.000000
vt 0.861635 0.000000
vt 0.364780 0.000000
vt 0.867925 0.000000
vt 0.308176 0.000000
vt 0.433962 0.000000
vt 0.025157 0.000000
vt 0.371069 0.000000
vt 0.301887 0.000000
vt 0.427673 0.000000
vt 0.421384 0.000000
vt 0.377358 0.000000
vt 0.031447 0.000000
vt 0.295597 0.000000
vt 0.415094 0.000000
vt 0.383648 0.000000
vt 0.408805 0.000000
vt 0.402516 0.000000
vt 0.037736 0.000000
vt 0.289308 0.000000
vt 0.389937 0.000000
vt 0.396226 0.000000
vt 0.283019 0.000000
vt 0.276730 0.000000
vt 0.044025 0.000000
vt 0.270440 0.000000
vt 0.050314 0.000000
vt 0.056604 0.000000
vt 0.264151 0.000000
vt 0.062893 0.000000
vt 0.069182 0.000000
vt 0.075472 0.000000
vt 0.257862 0.000000
vt 0.081761 0.000000
vt 0.088050 0.000000
vt 0.251572 0.000000
vt 0.094340 0.000000
vt 0.245283 0.000000
vt 0.100629 0.000000
vt 0.238994 0.000000
vt 0.106918 0.000000
vt 0.232704 0.000000
vt 0.113208 0.000000
vt 0.226415 0.000000
vt 0.119497 0.000000
vt 0.125786 0.000000
vt 0.220126 0.000000
vt 0.132075 0.000000
vt 0.213836 0.000000
vt 0.207547 0.000000
vt 0.138365 0.000000
vt 0.144654 0.000000
vt 0.201258 0.000000
vt 0.150943 0.000000
vt 0.157233 0.000000
vt 0.163522 0.000000
vt 0.194969 0.000000
vt 0.169811 0.000000
vt 0.176101 0.000000
vt 0.188679 0.000000
vt 0.660377 0.000000
vt 0.672956 0.000000
vt 0.666667 0.000000
vt 0.647799 0.000000
vt 0.654088 0.000000
vt 0.182390 0.000000
s 0
usemtl Material.005
f 158/1/1 160/2/1 159/3/1
f 158/1/1 154/4/1 160/2/1
f 158/1/1 155/5/1 154/4/1
f 157/6/1 155/5/1 158/1/1
f 157/6/1 156/7/1 155/5/1
f 85/8/1 87/9/1 86/10/1
f 85/8/1 88/11/1 87/9/1
f 84/12/1 88/11/1 85/8/1
f 84/12/1 89/13/1 88/11/1
f 83/14/1 89/13/1 84/12/1
f 83/14/1 90/15/1 89/13/1
f 82/16/1 90/15/1 83/14/1
f 82/16/1 91/17/1 90/15/1
f 82/16/1 92/18/1 91/17/1
f 81/19/1 92/18/1 82/16/1
f 81/19/1 93/20/1 92/18/1
f 80/21/1 93/20/1 81/19/1
f 80/21/1 94/22/1 93/20/1
f 80/21/1 95/23/1 94/22/1
f 80/21/1 96/24/1 95/23/1
f 79/25/1 96/24/1 80/21/1
f 79/25/1 97/26/1 96/24/1
f 78/27/1 117/28/1 79/25/1
f 117/28/1 97/26/1 79/25/1
f 78/27/1 118/29/1 117/28/1
f 116/30/1 97/26/1 117/28/1
f 115/31/1 97/26/1 116/30/1
f 115/31/1 98/32/1 97/26/1
f 78/27/1 119/33/1 118/29/1
f 114/34/1 98/32/1 115/31/1
f 78/27/1 120/35/1 119/33/1
f 113/36/1 98/32/1 114/34/1
f 77/37/1 120/35/1 78/27/1
f 77/37/1 121/38/1 120/35/1
f 112/39/1 98/32/1 113/36/1
f 112/39/1 99/40/1 98/32/1
f 77/37/1 122/41/1 121/38/1
f 77/37/1 123/42/1 122/41/1
f 111/43/1 99/40/1 112/39/1
f 77/37/1 124/44/1 123/42/1
f 77/37/1 125/45/1 124/44/1
f 76/46/1 125/45/1 77/37/1
f 76/46/1 126/47/1 125/45/1
f 111/43/1 100/48/1 99/40/1
f 110/49/1 100/48/1 111/43/1
f 76/46/1 127/50/1 126/47/1
f 109/51/1 100/48/1 110/49/1
f 109/51/1 101/52/1 100/48/1
f 75/53/1 127/50/1 76/46/1
f 75/53/1 128/54/1 127/50/1
f 153/55/1 101/52/1 109/51/1
f 153/55/1 102/56/1 101/52/1
f 152/57/1 102/56/1 153/55/1
f 75/53/1 129/58/1 128/54/1
f 148/59/1 150/60/1 149/61/1
f 147/62/1 150/60/1 148/59/1
f 74/63/1 129/58/1 75/53/1
f 74/63/1 130/64/1 129/58/1
f 146/65/1 150/60/1 147/62/1
f 146/65/1 151/66/1 150/60/1
f 146/65/1 152/57/1 151/66/1
f 146/65/1 102/56/1 152/57/1
f 145/67/1 102/56/1 146/65/1
f 145/67/1 103/68/1 102/56/1
f 74/63/1 131/69/1 130/64/1
f 144/70/1 103/68/1 145/67/1
f 144/70/1 1/71/1 103/68/1
f 73/72/1 131/69/1 74/63/1
f 73/72/1 132/73/1 131/69/1
f 143/74/1 54/75/1 144/70/1
f 54/75/1 1/71/1 144/70/1
f 54/75/1 2/76/1 1/71/1
f 143/74/1 55/77/1 54/75/1
f 53/78/1 2/76/1 54/75/1
f 73/72/1 133/79/1 132/73/1
f 143/74/1 56/80/1 55/77/1
f 142/81/1 56/80/1 143/74/1
f 72/82/1 133/79/1 73/72/1
f 52/83/1 2/76/1 53/78/1
f 72/82/1 134/84/1 133/79/1
f 142/81/1 57/85/1 56/80/1
f 72/82/1 135/86/1 134/84/1
f 52/83/1 3/87/1 2/76/1
f 141/88/1 57/85/1 142/81/1
f 72/82/1 136/89/1 135/86/1
f 71/90/1 136/89/1 72/82/1
f 141/88/1 58/91/1 57/85/1
f 140/92/1 58/91/1 141/88/1
f 51/93/1 3/87/1 52/83/1
f 71/90/1 137/94/1 136/89/1
f 51/93/1 4/95/1 3/87/1
f 71/90/1 138/96/1 137/94/1
f 140/92/1 59/97/1 58/91/1
f 139/98/1 59/97/1 140/92/1
f 71/90/1 139/98/1 138/96/1
f 71/90/1 59/97/1 139/98/1
f 50/99/1 4/95/1 51/93/1
f 70/100/1 59/97/1 71/90/1
f 50/99/1 5/101/1 4/95/1
f 70/100/1 60/102/1 59/97/1
f 49/103/1 5/101/1 50/99/1
f 69/104/1 60/102/1 70/100/1
f 68/105/1 60/102/1 69/104/1
f 68/105/1 61/106/1 60/102/1
f 49/103/1 6/107/1 5/101/1
f 48/108/1 6/107/1 49/103/1
f 67/109/1 61/106/1 68/105/1
f 67/109/1 62/110/1 61/106/1
f 66/111/1 62/110/1 67/109/1
f 65/112/1 62/110/1 66/111/1
f 48/108/1 7/113/1 6/107/1
f 47/114/1 7/113/1 48/108/1
f 65/112/1 63/115/1 62/110/1
f 64/116/1 63/115/1 65/112/1
f 46/117/1 7/113/1 47/114/1
f 45/118/1 7/113/1 46/117/1
f 45/118/1 8/119/1 7/113/1
f 44/120/1 8/119/1 45/118/1
f 44/120/1 9/121/1 8/119/1
f 44/120/1 10/122/1 9/121/1
f 43/123/1 10/122/1 44/120/1
f 43/123/1 11/124/1 10/122/1
f 43/123/1 12/125/1 11/124/1
f 43/123/1 13/126/1 12/125/1
f 42/127/1 13/126/1 43/123/1
f 42/127/1 14/128/1 13/126/1
f 42/127/1 15/129/1 14/128/1
f 41/130/1 15/129/1 42/127/1
f 41/130/1 16/131/1 15/129/1
f 40/132/1 16/131/1 41/130/1
f 40/132/1 17/133/1 16/131/1
f 39/134/1 17/133/1 40/132/1
f 39/134/1 18/135/1 17/133/1
f 38/136/1 18/135/1 39/134/1
f 38/136/1 19/137/1 18/135/1
f 37/138/1 19/137/1 38/136/1
f 37/138/1 20/139/1 19/137/1
f 37/138/1 21/140/1 20/139/1
f 36/141/1 21/140/1 37/138/1
f 36/141/1 22/142/1 21/140/1
f 35/143/1 22/142/1 36/141/1
f 34/144/1 22/142/1 35/143/1
f 34/144/1 23/145/1 22/142/1
f 34/144/1 24/146/1 23/145/1
f 33/147/1 24/146/1 34/144/1
f 33/147/1 25/148/1 24/146/1
f 33/147/1 26/149/1 25/148/1
f 33/147/1 27/150/1 26/149/1
f 32/151/1 27/150/1 33/147/1
f 32/151/1 28/152/1 27/150/1
f 32/151/1 29/153/1 28/152/1
f 31/154/1 29/153/1 32/151/1
f 106/155/1 108/156/1 107/157/1
f 106/155/1 104/158/1 108/156/1
f 106/155/1 105/159/1 104/158/1
f 30/160/1 29/153/1 31/154/1
