# Blender 4.0.2
# www.blender.org
mtllib six.mtl
o Heart.003
v 13.409843 -34.879288 0.000000
v 13.332360 -34.883324 0.000000
v 13.254615 -34.895443 0.000000
v 13.176608 -34.915634 0.000000
v 13.098339 -34.943909 0.000000
v 13.019809 -34.980255 0.000000
v 12.941016 -35.024685 0.000000
v 12.861961 -35.077190 0.000000
v 12.782645 -35.137772 0.000000
v 12.703067 -35.206432 0.000000
v 12.623227 -35.283169 0.000000
v 12.543125 -35.367985 0.000000
v 12.462761 -35.460880 0.000000
v 12.407265 -35.529671 0.000000
v 12.352453 -35.601162 0.000000
v 12.298327 -35.675350 0.000000
v 12.244885 -35.752239 0.000000
v 12.192129 -35.831829 0.000000
v 12.140058 -35.914116 0.000000
v 12.088670 -35.999100 0.000000
v 12.037969 -36.086788 0.000000
v 11.987951 -36.177174 0.000000
v 11.938619 -36.270256 0.000000
v 11.889972 -36.366043 0.000000
v 11.842009 -36.464523 0.000000
v 11.861034 -36.461052 0.000000
v 11.879920 -36.457878 0.000000
v 11.898664 -36.455006 0.000000
v 11.917267 -36.452438 0.000000
v 11.935728 -36.450172 0.000000
v 11.954049 -36.448208 0.000000
v 11.972229 -36.446545 0.000000
v 11.990268 -36.445187 0.000000
v 12.008165 -36.444130 0.000000
v 12.025922 -36.443375 0.000000
v 12.043538 -36.442921 0.000000
v 12.061012 -36.442768 0.000000
v 12.105631 -36.443958 0.000000
v 12.149565 -36.447525 0.000000
v 12.192814 -36.453465 0.000000
v 12.235377 -36.461784 0.000000
v 12.277257 -36.472481 0.000000
v 12.318451 -36.485554 0.000000
v 12.358960 -36.501007 0.000000
v 12.398785 -36.518833 0.000000
v 12.437924 -36.539036 0.000000
v 12.476378 -36.561619 0.000000
v 12.514148 -36.586575 0.000000
v 12.551233 -36.613911 0.000000
v 12.580713 -36.640511 0.000000
v 12.610174 -36.667130 0.000000
v 12.639614 -36.693771 0.000000
v 12.669034 -36.720432 0.000000
v 12.698434 -36.747112 0.000000
v 12.727814 -36.773811 0.000000
v 12.757174 -36.800533 0.000000
v 12.786512 -36.827274 0.000000
v 12.815832 -36.854034 0.000000
v 12.845131 -36.880817 0.000000
v 12.874411 -36.907619 0.000000
v 12.903669 -36.934441 0.000000
v 12.939727 -36.961777 0.000000
v 12.976348 -36.986732 0.000000
v 13.013534 -37.009315 0.000000
v 13.051283 -37.029518 0.000000
v 13.089597 -37.047348 0.000000
v 13.128474 -37.062798 0.000000
v 13.167916 -37.075871 0.000000
v 13.207922 -37.086567 0.000000
v 13.248491 -37.094887 0.000000
v 13.289625 -37.100826 0.000000
v 13.331323 -37.104393 0.000000
v 13.373585 -37.105583 0.000000
v 13.414783 -37.104408 0.000000
v 13.454744 -37.100887 0.000000
v 13.493465 -37.095020 0.000000
v 13.530949 -37.086807 0.000000
v 13.567192 -37.076248 0.000000
v 13.602197 -37.063339 0.000000
v 13.635963 -37.048088 0.000000
v 13.668490 -37.030487 0.000000
v 13.699779 -37.010540 0.000000
v 13.729828 -36.988243 0.000000
v 13.758638 -36.963604 0.000000
v 13.786211 -36.936615 0.000000
v 13.812040 -36.907875 0.000000
v 13.835624 -36.877975 0.000000
v 13.856961 -36.846920 0.000000
v 13.876052 -36.814705 0.000000
v 13.892898 -36.781330 0.000000
v 13.907496 -36.746799 0.000000
v 13.919849 -36.711109 0.000000
v 13.929957 -36.674263 0.000000
v 13.937819 -36.636257 0.000000
v 13.943434 -36.597092 0.000000
v 13.946802 -36.556770 0.000000
v 13.947926 -36.515285 0.000000
v 13.947301 -36.486694 0.000000
v 13.945428 -36.458443 0.000000
v 13.942306 -36.430531 0.000000
v 13.937934 -36.402966 0.000000
v 13.932314 -36.375740 0.000000
v 13.925445 -36.348858 0.000000
v 13.917327 -36.322319 0.000000
v 13.907960 -36.296124 0.000000
v 13.897345 -36.270267 0.000000
v 13.885480 -36.244755 0.000000
v 13.872366 -36.219585 0.000000
v 13.858004 -36.194759 0.000000
v 13.841153 -36.168743 0.000000
v 13.823477 -36.144360 0.000000
v 13.804975 -36.121605 0.000000
v 13.785646 -36.100487 0.000000
v 13.765492 -36.080997 0.000000
v 13.744513 -36.063141 0.000000
v 13.722708 -36.046913 0.000000
v 13.700076 -36.032318 0.000000
v 13.676619 -36.019356 0.000000
v 13.652335 -36.008026 0.000000
v 13.627226 -35.998325 0.000000
v 13.601291 -35.990257 0.000000
v 13.656656 -35.959599 0.000000
v 13.707207 -35.926605 0.000000
v 13.752943 -35.891273 0.000000
v 13.793865 -35.853603 0.000000
v 13.829973 -35.813599 0.000000
v 13.861267 -35.771255 0.000000
v 13.887746 -35.726578 0.000000
v 13.909410 -35.679562 0.000000
v 13.926261 -35.630207 0.000000
v 13.938296 -35.578518 0.000000
v 13.945518 -35.524494 0.000000
v 13.947926 -35.468132 0.000000
v 13.946878 -35.429855 0.000000
v 13.943736 -35.392391 0.000000
v 13.938498 -35.355728 0.000000
v 13.931166 -35.319870 0.000000
v 13.921739 -35.284821 0.000000
v 13.910216 -35.250576 0.000000
v 13.896599 -35.217140 0.000000
v 13.880887 -35.184505 0.000000
v 13.863080 -35.152679 0.000000
v 13.843178 -35.121658 0.000000
v 13.821180 -35.091442 0.000000
v 13.797089 -35.062031 0.000000
v 13.770247 -35.032841 0.000000
v 13.742418 -35.006191 0.000000
v 13.713602 -34.982079 0.000000
v 13.683800 -34.960506 0.000000
v 13.653009 -34.941471 0.000000
v 13.621233 -34.924973 0.000000
v 13.588470 -34.911011 0.000000
v 13.554718 -34.899590 0.000000
v 13.519980 -34.890709 0.000000
v 13.484255 -34.884361 0.000000
v 13.447543 -34.880554 0.000000
vn -0.0000 -0.0000 -1.0000
vt 0.612903 0.000000
vt 0.625806 0.000000
vt 0.619355 0.000000
vt 0.845161 0.000000
vt 0.858065 0.000000
vt 0.851613 0.000000
vt 0.632258 0.000000
vt 0.864516 0.000000
vt 0.606452 0.000000
vt 0.838710 0.000000
vt 0.638710 0.000000
vt 0.870968 0.000000
vt 0.600000 0.000000
vt 0.645161 0.000000
vt 0.877419 0.000000
vt 0.832258 0.000000
vt 0.651613 0.000000
vt 0.593548 0.000000
vt 0.658065 0.000000
vt 0.883871 0.000000
vt 0.587097 0.000000
vt 0.825806 0.000000
vt 0.664516 0.000000
vt 0.890323 0.000000
vt 0.580645 0.000000
vt 0.670968 0.000000
vt 0.896774 0.000000
vt 0.819355 0.000000
vt 0.677419 0.000000
vt 0.574194 0.000000
vt 0.683871 0.000000
vt 0.903226 0.000000
vt 0.567742 0.000000
vt 0.812903 0.000000
vt 0.690323 0.000000
vt 0.909677 0.000000
vt 0.561290 0.000000
vt 0.696774 0.000000
vt 0.916129 0.000000
vt 0.806452 0.000000
vt 0.703226 0.000000
vt 0.554839 0.000000
vt 0.922581 0.000000
vt 0.709677 0.000000
vt 0.548387 0.000000
vt 0.800000 0.000000
vt 0.716129 0.000000
vt 0.929032 0.000000
vt 0.541936 0.000000
vt 0.722581 0.000000
vt 0.935484 0.000000
vt 0.793548 0.000000
vt 0.535484 0.000000
vt 0.729032 0.000000
vt 0.941935 0.000000
vt 0.735484 0.000000
vt 0.529032 0.000000
vt 0.787097 0.000000
vt 0.741935 0.000000
vt 0.948387 0.000000
vt 0.522581 0.000000
vt 0.748387 0.000000
vt 0.954839 0.000000
vt 0.780645 0.000000
vt 0.754839 0.000000
vt 0.516129 0.000000
vt 0.961290 0.000000
vt 0.761290 0.000000
vt 0.509677 0.000000
vt 0.774194 0.000000
vt 0.967742 0.000000
vt 0.767742 0.000000
vt 0.503226 0.000000
vt 0.974194 0.000000
vt 0.496774 0.000000
vt 0.980645 0.000000
vt 0.490323 0.000000
vt 0.987097 0.000000
vt 0.483871 0.000000
vt 0.993548 0.000000
vt 0.477419 0.000000
vt 1.000000 0.000000
vt 0.470968 0.000000
vt 0.000000 0.000000
vt 0.464516 0.000000
vt 0.006452 0.000000
vt 0.458065 0.000000
vt 0.012903 0.000000
vt 0.451613 0.000000
vt 0.445161 0.000000
vt 0.019355 0.000000
vt 0.438710 0.000000
vt 0.432258 0.000000
vt 0.025806 0.000000
vt 0.425806 0.000000
vt 0.419355 0.000000
vt 0.032258 0.000000
vt 0.412903 0.000000
vt 0.406452 0.000000
vt 0.038710 0.000000
vt 0.400000 0.000000
vt 0.393548 0.000000
vt 0.045161 0.000000
vt 0.387097 0.000000
vt 0.380645 0.000000
vt 0.374194 0.000000
vt 0.051613 0.000000
vt 0.367742 0.000000
vt 0.361290 0.000000
vt 0.354839 0.000000
vt 0.058065 0.000000
vt 0.348387 0.000000
vt 0.341935 0.000000
vt 0.064516 0.000000
vt 0.335484 0.000000
vt 0.329032 0.000000
vt 0.322581 0.000000
vt 0.070968 0.000000
vt 0.316129 0.000000
vt 0.309677 0.000000
vt 0.303226 0.000000
vt 0.077419 0.000000
vt 0.296774 0.000000
vt 0.290323 0.000000
vt 0.083871 0.000000
vt 0.283871 0.000000
vt 0.090323 0.000000
vt 0.277419 0.000000
vt 0.270968 0.000000
vt 0.096774 0.000000
vt 0.264516 0.000000
vt 0.103226 0.000000
vt 0.258065 0.000000
vt 0.109677 0.000000
vt 0.251613 0.000000
vt 0.245161 0.000000
vt 0.116129 0.000000
vt 0.238710 0.000000
vt 0.122581 0.000000
vt 0.232258 0.000000
vt 0.129032 0.000000
vt 0.225806 0.000000
vt 0.219355 0.000000
vt 0.135484 0.000000
vt 0.212903 0.000000
vt 0.206452 0.000000
vt 0.200000 0.000000
vt 0.141935 0.000000
vt 0.193548 0.000000
vt 0.187097 0.000000
vt 0.148387 0.000000
vt 0.180645 0.000000
vt 0.174194 0.000000
vt 0.167742 0.000000
vt 0.161290 0.000000
vt 0.154839 0.000000
s 0
usemtl Material
f 96/1/1 98/2/1 97/3/1
f 132/4/1 134/5/1 133/6/1
f 96/1/1 99/7/1 98/2/1
f 132/4/1 135/8/1 134/5/1
f 95/9/1 99/7/1 96/1/1
f 131/10/1 135/8/1 132/4/1
f 95/9/1 100/11/1 99/7/1
f 131/10/1 136/12/1 135/8/1
f 94/13/1 100/11/1 95/9/1
f 94/13/1 101/14/1 100/11/1
f 131/10/1 137/15/1 136/12/1
f 130/16/1 137/15/1 131/10/1
f 94/13/1 102/17/1 101/14/1
f 93/18/1 102/17/1 94/13/1
f 93/18/1 103/19/1 102/17/1
f 130/16/1 138/20/1 137/15/1
f 92/21/1 103/19/1 93/18/1
f 129/22/1 138/20/1 130/16/1
f 92/21/1 104/23/1 103/19/1
f 129/22/1 139/24/1 138/20/1
f 91/25/1 104/23/1 92/21/1
f 91/25/1 105/26/1 104/23/1
f 129/22/1 140/27/1 139/24/1
f 128/28/1 140/27/1 129/22/1
f 91/25/1 106/29/1 105/26/1
f 90/30/1 106/29/1 91/25/1
f 90/30/1 107/31/1 106/29/1
f 128/28/1 141/32/1 140/27/1
f 89/33/1 107/31/1 90/30/1
f 127/34/1 141/32/1 128/28/1
f 89/33/1 108/35/1 107/31/1
f 127/34/1 142/36/1 141/32/1
f 88/37/1 108/35/1 89/33/1
f 88/37/1 109/38/1 108/35/1
f 127/34/1 143/39/1 142/36/1
f 126/40/1 143/39/1 127/34/1
f 88/37/1 110/41/1 109/38/1
f 87/42/1 110/41/1 88/37/1
f 126/40/1 144/43/1 143/39/1
f 87/42/1 111/44/1 110/41/1
f 86/45/1 111/44/1 87/42/1
f 125/46/1 144/43/1 126/40/1
f 86/45/1 112/47/1 111/44/1
f 125/46/1 145/48/1 144/43/1
f 85/49/1 112/47/1 86/45/1
f 85/49/1 113/50/1 112/47/1
f 125/46/1 146/51/1 145/48/1
f 124/52/1 146/51/1 125/46/1
f 84/53/1 113/50/1 85/49/1
f 84/53/1 114/54/1 113/50/1
f 124/52/1 147/55/1 146/51/1
f 84/53/1 115/56/1 114/54/1
f 83/57/1 115/56/1 84/53/1
f 123/58/1 147/55/1 124/52/1
f 83/57/1 116/59/1 115/56/1
f 123/58/1 148/60/1 147/55/1
f 82/61/1 116/59/1 83/57/1
f 82/61/1 117/62/1 116/59/1
f 123/58/1 149/63/1 148/60/1
f 122/64/1 149/63/1 123/58/1
f 82/61/1 118/65/1 117/62/1
f 81/66/1 118/65/1 82/61/1
f 122/64/1 150/67/1 149/63/1
f 81/66/1 119/68/1 118/65/1
f 80/69/1 119/68/1 81/66/1
f 121/70/1 150/67/1 122/64/1
f 121/70/1 151/71/1 150/67/1
f 80/69/1 120/72/1 119/68/1
f 79/73/1 120/72/1 80/69/1
f 79/73/1 121/70/1 120/72/1
f 121/70/1 152/74/1 151/71/1
f 78/75/1 121/70/1 79/73/1
f 78/75/1 152/74/1 121/70/1
f 78/75/1 153/76/1 152/74/1
f 77/77/1 153/76/1 78/75/1
f 77/77/1 154/78/1 153/76/1
f 76/79/1 154/78/1 77/77/1
f 76/79/1 155/80/1 154/78/1
f 75/81/1 155/80/1 76/79/1
f 75/81/1 156/82/1 155/80/1
f 74/83/1 156/82/1 75/81/1
f 74/83/1 1/84/1 156/82/1
f 73/85/1 1/84/1 74/83/1
f 73/85/1 2/86/1 1/84/1
f 72/87/1 2/86/1 73/85/1
f 72/87/1 3/88/1 2/86/1
f 71/89/1 3/88/1 72/87/1
f 70/90/1 3/88/1 71/89/1
f 70/90/1 4/91/1 3/88/1
f 69/92/1 4/91/1 70/90/1
f 68/93/1 4/91/1 69/92/1
f 68/93/1 5/94/1 4/91/1
f 67/95/1 5/94/1 68/93/1
f 66/96/1 5/94/1 67/95/1
f 66/96/1 6/97/1 5/94/1
f 65/98/1 6/97/1 66/96/1
f 64/99/1 6/97/1 65/98/1
f 64/99/1 7/100/1 6/97/1
f 63/101/1 7/100/1 64/99/1
f 62/102/1 7/100/1 63/101/1
f 62/102/1 8/103/1 7/100/1
f 61/104/1 8/103/1 62/102/1
f 60/105/1 8/103/1 61/104/1
f 59/106/1 8/103/1 60/105/1
f 59/106/1 9/107/1 8/103/1
f 58/108/1 9/107/1 59/106/1
f 57/109/1 9/107/1 58/108/1
f 56/110/1 9/107/1 57/109/1
f 56/110/1 10/111/1 9/107/1
f 55/112/1 10/111/1 56/110/1
f 54/113/1 10/111/1 55/112/1
f 54/113/1 11/114/1 10/111/1
f 53/115/1 11/114/1 54/113/1
f 52/116/1 11/114/1 53/115/1
f 51/117/1 11/114/1 52/116/1
f 51/117/1 12/118/1 11/114/1
f 50/119/1 12/118/1 51/117/1
f 49/120/1 12/118/1 50/119/1
f 48/121/1 12/118/1 49/120/1
f 48/121/1 13/122/1 12/118/1
f 47/123/1 13/122/1 48/121/1
f 46/124/1 13/122/1 47/123/1
f 46/124/1 14/125/1 13/122/1
f 45/126/1 14/125/1 46/124/1
f 45/126/1 15/127/1 14/125/1
f 44/128/1 15/127/1 45/126/1
f 43/129/1 15/127/1 44/128/1
f 43/129/1 16/130/1 15/127/1
f 42/131/1 16/130/1 43/129/1
f 42/131/1 17/132/1 16/130/1
f 41/133/1 17/132/1 42/131/1
f 41/133/1 18/134/1 17/132/1
f 40/135/1 18/134/1 41/133/1
f 39/136/1 18/134/1 40/135/1
f 39/136/1 19/137/1 18/134/1
f 38/138/1 19/137/1 39/136/1
f 38/138/1 20/139/1 19/137/1
f 37/140/1 20/139/1 38/138/1
f 37/140/1 21/141/1 20/139/1
f 36/142/1 21/141/1 37/140/1
f 35/143/1 21/141/1 36/142/1
f 35/143/1 22/144/1 21/141/1
f 34/145/1 22/144/1 35/143/1
f 33/146/1 22/144/1 34/145/1
f 32/147/1 22/144/1 33/146/1
f 32/147/1 23/148/1 22/144/1
f 31/149/1 23/148/1 32/147/1
f 30/150/1 23/148/1 31/149/1
f 30/150/1 24/151/1 23/148/1
f 29/152/1 24/151/1 30/150/1
f 28/153/1 24/151/1 29/152/1
f 27/154/1 24/151/1 28/153/1
f 27/154/1 26/155/1 24/151/1
f 26/155/1 25/156/1 24/151/1
o six
v -0.205248 0.298350 0.000000
v -0.200169 0.296234 0.000000
v -0.196784 0.300889 0.000000
v -0.200169 0.305121 0.000000
v -0.205248 0.303428 0.000000
v -0.307660 0.192552 0.000000
v -0.306813 0.184511 0.000000
v -0.303428 0.166314 0.000000
v -0.300042 0.144731 0.000000
v -0.299196 0.132459 0.000000
v -0.294541 0.124841 0.000000
v -0.285231 0.111722 0.000000
v -0.285231 0.104105 0.000000
v -0.277190 0.090986 0.000000
v -0.265341 0.072789 0.000000
v -0.258993 0.062209 0.000000
v -0.252222 0.056284 0.000000
v -0.239103 0.044012 0.000000
v -0.220906 0.038934 0.000000
v -0.202708 0.031316 0.000000
v -0.181126 0.030470 0.000000
v -0.140499 0.025815 0.000000
v -0.131612 0.028777 0.000000
v -0.119763 0.027931 0.000000
v -0.108337 0.030470 0.000000
v -0.095218 0.032163 0.000000
v -0.084215 0.038934 0.000000
v -0.071096 0.046974 0.000000
v -0.052899 0.072789 0.000000
v -0.040626 0.090986 0.000000
v -0.034702 0.110030 0.000000
v -0.028777 0.128227 0.000000
v -0.026661 0.136267 0.000000
v -0.031316 0.142192 0.000000
v -0.033009 0.152349 0.000000
v -0.037241 0.159543 0.000000
v -0.040626 0.178587 0.000000
v -0.039780 0.196784 0.000000
v -0.039780 0.254761 0.000000
v -0.043165 0.278883 0.000000
v -0.046974 0.305121 0.000000
v -0.049513 0.329242 0.000000
v -0.056284 0.350825 0.000000
v -0.060516 0.374524 0.000000
v -0.069403 0.393568 0.000000
v -0.079560 0.417689 0.000000
v -0.092679 0.430808 0.000000
v -0.108337 0.449852 0.000000
v -0.118917 0.469742 0.000000
v -0.123995 0.478206 0.000000
v -0.130766 0.493864 0.000000
v -0.140499 0.503597 0.000000
v -0.144731 0.515023 0.000000
v -0.153195 0.521794 0.000000
v -0.160389 0.534913 0.000000
v -0.163775 0.547609 0.000000
v -0.167160 0.559035 0.000000
v -0.176047 0.574693 0.000000
v -0.187897 0.582311 0.000000
v -0.201016 0.581464 0.000000
v -0.212442 0.582311 0.000000
v -0.227253 0.574693 0.000000
v -0.233178 0.571308 0.000000
v -0.242488 0.557342 0.000000
v -0.239949 0.545070 0.000000
v -0.235717 0.539145 0.000000
v -0.232332 0.538299 0.000000
v -0.222598 0.531105 0.000000
v -0.212442 0.521794 0.000000
v -0.200169 0.503597 0.000000
v -0.179433 0.473974 0.000000
v -0.173508 0.470588 0.000000
v -0.162928 0.454084 0.000000
v -0.151502 0.434194 0.000000
v -0.138807 0.413457 0.000000
v -0.111722 0.369022 0.000000
v -0.108337 0.359712 0.000000
v -0.103259 0.354634 0.000000
v -0.099873 0.341515 0.000000
v -0.091832 0.330089 0.000000
v -0.091832 0.321625 0.000000
v -0.088447 0.314431 0.000000
v -0.089293 0.307660 0.000000
v -0.085061 0.296234 0.000000
v -0.080406 0.268726 0.000000
v -0.078713 0.226407 0.000000
v -0.077021 0.203555 0.000000
v -0.077021 0.178587 0.000000
v -0.075328 0.154465 0.000000
v -0.079560 0.144731 0.000000
v -0.086754 0.126534 0.000000
v -0.095218 0.111722 0.000000
v -0.104105 0.098603 0.000000
v -0.116801 0.086754 0.000000
v -0.137114 0.076174 0.000000
v -0.158697 0.075328 0.000000
v -0.168853 0.075328 0.000000
v -0.182818 0.077867 0.000000
v -0.195091 0.080406 0.000000
v -0.202708 0.087601 0.000000
v -0.213288 0.103259 0.000000
v -0.220906 0.120609 0.000000
v -0.222598 0.146424 0.000000
v -0.220059 0.166314 0.000000
v -0.213288 0.180279 0.000000
v -0.203555 0.194245 0.000000
v -0.193398 0.203555 0.000000
v -0.176894 0.210749 0.000000
v -0.164621 0.206940 0.000000
v -0.156157 0.198477 0.000000
v -0.143885 0.190859 0.000000
v -0.138807 0.186204 0.000000
v -0.132459 0.184511 0.000000
v -0.119763 0.183665 0.000000
v -0.115108 0.184511 0.000000
v -0.110876 0.187050 0.000000
v -0.106644 0.194245 0.000000
v -0.104951 0.200169 0.000000
v -0.108337 0.216674 0.000000
v -0.115954 0.234025 0.000000
v -0.127380 0.246297 0.000000
v -0.140499 0.262802 0.000000
v -0.151502 0.271265 0.000000
v -0.164621 0.278883 0.000000
v -0.180279 0.282691 0.000000
v -0.190859 0.284384 0.000000
v -0.201016 0.280999 0.000000
v -0.215827 0.280999 0.000000
v -0.222598 0.276344 0.000000
v -0.244604 0.267880 0.000000
v -0.251375 0.266187 0.000000
v -0.260686 0.258993 0.000000
v -0.280152 0.251375 0.000000
v -0.292002 0.238256 0.000000
v -0.300042 0.227253 0.000000
v -0.303428 0.218366 0.000000
v -0.306813 0.199323 0.000000
v -0.141346 0.167160 0.000000
v -0.137114 0.160389 0.000000
v -0.128227 0.159543 0.000000
v -0.121456 0.162082 0.000000
v -0.121456 0.171815 0.000000
v -0.127380 0.175201 0.000000
v -0.138807 0.174355 0.000000
vn -0.0000 -0.0000 -1.0000
vt 0.398601 0.000000
vt 0.412587 0.000000
vt 0.405594 0.000000
vt 0.426573 0.000000
vt 0.419580 0.000000
vt 0.391608 0.000000
vt 0.433566 0.000000
vt 0.440559 0.000000
vt 0.384615 0.000000
vt 0.447552 0.000000
vt 0.377622 0.000000
vt 0.454545 0.000000
vt 0.461538 0.000000
vt 0.468531 0.000000
vt 0.370629 0.000000
vt 0.475524 0.000000
vt 0.363636 0.000000
vt 0.482517 0.000000
vt 0.356643 0.000000
vt 0.349650 0.000000
vt 0.489510 0.000000
vt 0.342657 0.000000
vt 0.335664 0.000000
vt 0.496504 0.000000
vt 0.503497 0.000000
vt 0.328671 0.000000
vt 0.510490 0.000000
vt 0.321678 0.000000
vt 0.517483 0.000000
vt 0.314685 0.000000
vt 0.307692 0.000000
vt 0.524476 0.000000
vt 0.300699 0.000000
vt 0.293706 0.000000
vt 0.531469 0.000000
vt 0.538462 0.000000
vt 0.545455 0.000000
vt 0.286713 0.000000
vt 0.552448 0.000000
vt 0.559441 0.000000
vt 0.279720 0.000000
vt 0.566434 0.000000
vt 0.573427 0.000000
vt 0.580420 0.000000
vt 0.272727 0.000000
vt 0.013986 0.000000
vt 0.027972 0.000000
vt 0.020979 0.000000
vt 0.000000 0.000000
vt 0.006993 0.000000
vt 0.587413 0.000000
vt 0.867133 0.000000
vt 0.881119 0.000000
vt 0.874126 0.000000
vt 0.860140 0.000000
vt 0.888112 0.000000
vt 0.895105 0.000000
vt 0.265734 0.000000
vt 0.853147 0.000000
vt 0.902098 0.000000
vt 0.846154 0.000000
vt 0.594406 0.000000
vt 0.909091 0.000000
vt 0.916084 0.000000
vt 0.839161 0.000000
vt 0.923077 0.000000
vt 0.258741 0.000000
vt 0.930070 0.000000
vt 0.832168 0.000000
vt 0.937063 0.000000
vt 0.825175 0.000000
vt 0.944056 0.000000
vt 0.601399 0.000000
vt 0.748252 0.000000
vt 0.951049 0.000000
vt 0.818182 0.000000
vt 0.755245 0.000000
vt 0.741259 0.000000
vt 0.762238 0.000000
vt 0.608392 0.000000
vt 0.734266 0.000000
vt 0.811189 0.000000
vt 0.034965 0.000000
vt 0.769231 0.000000
vt 0.251748 0.000000
vt 0.804196 0.000000
vt 0.727273 0.000000
vt 0.041958 0.000000
vt 0.776224 0.000000
vt 0.797203 0.000000
vt 0.783217 0.000000
vt 0.790210 0.000000
vt 0.048951 0.000000
vt 0.720280 0.000000
vt 0.244755 0.000000
vt 0.615385 0.000000
vt 0.986014 0.000000
vt 1.000000 0.000000
vt 0.993007 0.000000
vt 0.958042 0.000000
vt 0.979021 0.000000
vt 0.965035 0.000000
vt 0.713287 0.000000
vt 0.055944 0.000000
vt 0.972028 0.000000
vt 0.237762 0.000000
vt 0.622378 0.000000
vt 0.230769 0.000000
vt 0.706294 0.000000
vt 0.629371 0.000000
vt 0.062937 0.000000
vt 0.223776 0.000000
vt 0.216783 0.000000
vt 0.069930 0.000000
vt 0.209790 0.000000
vt 0.636364 0.000000
vt 0.076923 0.000000
vt 0.699301 0.000000
vt 0.643357 0.000000
vt 0.083916 0.000000
vt 0.202797 0.000000
vt 0.090909 0.000000
vt 0.692308 0.000000
vt 0.650350 0.000000
vt 0.195804 0.000000
vt 0.097902 0.000000
vt 0.685315 0.000000
vt 0.657343 0.000000
vt 0.678322 0.000000
vt 0.671329 0.000000
vt 0.664336 0.000000
vt 0.188811 0.000000
vt 0.104895 0.000000
vt 0.111888 0.000000
vt 0.118881 0.000000
vt 0.181818 0.000000
vt 0.125874 0.000000
vt 0.174825 0.000000
vt 0.132867 0.000000
vt 0.167832 0.000000
vt 0.139860 0.000000
vt 0.160839 0.000000
vt 0.153846 0.000000
vt 0.146853 0.000000
s 0
usemtl Material.005
f 214/157/2 216/158/2 215/159/2
f 216/158/2 218/160/2 217/161/2
f 214/157/2 218/160/2 216/158/2
f 213/162/2 218/160/2 214/157/2
f 213/162/2 219/163/2 218/160/2
f 213/162/2 220/164/2 219/163/2
f 212/165/2 220/164/2 213/162/2
f 212/165/2 221/166/2 220/164/2
f 211/167/2 221/166/2 212/165/2
f 211/167/2 222/168/2 221/166/2
f 211/167/2 223/169/2 222/168/2
f 211/167/2 224/170/2 223/169/2
f 210/171/2 224/170/2 211/167/2
f 210/171/2 225/172/2 224/170/2
f 209/173/2 225/172/2 210/171/2
f 209/173/2 226/174/2 225/172/2
f 208/175/2 226/174/2 209/173/2
f 207/176/2 226/174/2 208/175/2
f 207/176/2 227/177/2 226/174/2
f 206/178/2 227/177/2 207/176/2
f 205/179/2 227/177/2 206/178/2
f 205/179/2 228/180/2 227/177/2
f 205/179/2 229/181/2 228/180/2
f 204/182/2 229/181/2 205/179/2
f 204/182/2 230/183/2 229/181/2
f 203/184/2 230/183/2 204/182/2
f 203/184/2 231/185/2 230/183/2
f 202/186/2 231/185/2 203/184/2
f 201/187/2 231/185/2 202/186/2
f 201/187/2 232/188/2 231/185/2
f 200/189/2 232/188/2 201/187/2
f 199/190/2 232/188/2 200/189/2
f 199/190/2 233/191/2 232/188/2
f 199/190/2 234/192/2 233/191/2
f 199/190/2 235/193/2 234/192/2
f 198/194/2 235/193/2 199/190/2
f 198/194/2 236/195/2 235/193/2
f 198/194/2 237/196/2 236/195/2
f 197/197/2 237/196/2 198/194/2
f 197/197/2 238/198/2 237/196/2
f 197/197/2 239/199/2 238/198/2
f 197/197/2 240/200/2 239/199/2
f 196/201/2 240/200/2 197/197/2
f 159/202/2 161/203/2 160/204/2
f 159/202/2 157/205/2 161/203/2
f 158/206/2 157/205/2 159/202/2
f 196/201/2 241/207/2 240/200/2
f 281/208/2 283/209/2 282/210/2
f 280/211/2 283/209/2 281/208/2
f 280/211/2 284/212/2 283/209/2
f 280/211/2 285/213/2 284/212/2
f 195/214/2 241/207/2 196/201/2
f 279/215/2 285/213/2 280/211/2
f 279/215/2 286/216/2 285/213/2
f 278/217/2 286/216/2 279/215/2
f 195/214/2 242/218/2 241/207/2
f 278/217/2 287/219/2 286/216/2
f 278/217/2 288/220/2 287/219/2
f 277/221/2 288/220/2 278/217/2
f 277/221/2 289/222/2 288/220/2
f 194/223/2 242/218/2 195/214/2
f 277/221/2 290/224/2 289/222/2
f 276/225/2 290/224/2 277/221/2
f 276/225/2 291/226/2 290/224/2
f 275/227/2 291/226/2 276/225/2
f 275/227/2 292/228/2 291/226/2
f 194/223/2 243/229/2 242/218/2
f 275/227/2 264/230/2 292/228/2
f 264/230/2 293/231/2 292/228/2
f 274/232/2 264/230/2 275/227/2
f 274/232/2 265/233/2 264/230/2
f 263/234/2 293/231/2 264/230/2
f 274/232/2 266/235/2 265/233/2
f 194/223/2 244/236/2 243/229/2
f 262/237/2 293/231/2 263/234/2
f 273/238/2 266/235/2 274/232/2
f 262/237/2 162/239/2 293/231/2
f 273/238/2 267/240/2 266/235/2
f 193/241/2 244/236/2 194/223/2
f 272/242/2 267/240/2 273/238/2
f 261/243/2 162/239/2 262/237/2
f 261/243/2 163/244/2 162/239/2
f 272/242/2 268/245/2 267/240/2
f 271/246/2 268/245/2 272/242/2
f 271/246/2 269/247/2 268/245/2
f 270/248/2 269/247/2 271/246/2
f 261/243/2 164/249/2 163/244/2
f 260/250/2 164/249/2 261/243/2
f 192/251/2 244/236/2 193/241/2
f 192/251/2 245/252/2 244/236/2
f 298/253/2 300/254/2 299/255/2
f 298/253/2 294/256/2 300/254/2
f 297/257/2 294/256/2 298/253/2
f 297/257/2 295/258/2 294/256/2
f 259/259/2 164/249/2 260/250/2
f 259/259/2 165/260/2 164/249/2
f 296/261/2 295/258/2 297/257/2
f 191/262/2 245/252/2 192/251/2
f 191/262/2 246/263/2 245/252/2
f 190/264/2 246/263/2 191/262/2
f 258/265/2 165/260/2 259/259/2
f 190/264/2 247/266/2 246/263/2
f 258/265/2 166/267/2 165/260/2
f 189/268/2 247/266/2 190/264/2
f 188/269/2 247/266/2 189/268/2
f 258/265/2 167/270/2 166/267/2
f 187/271/2 247/266/2 188/269/2
f 187/271/2 248/272/2 247/266/2
f 258/265/2 168/273/2 167/270/2
f 257/274/2 168/273/2 258/265/2
f 187/271/2 249/275/2 248/272/2
f 257/274/2 169/276/2 168/273/2
f 186/277/2 249/275/2 187/271/2
f 257/274/2 170/278/2 169/276/2
f 256/279/2 170/278/2 257/274/2
f 186/277/2 250/280/2 249/275/2
f 185/281/2 250/280/2 186/277/2
f 256/279/2 171/282/2 170/278/2
f 255/283/2 171/282/2 256/279/2
f 185/281/2 251/284/2 250/280/2
f 254/285/2 171/282/2 255/283/2
f 253/286/2 171/282/2 254/285/2
f 185/281/2 252/287/2 251/284/2
f 185/281/2 253/286/2 252/287/2
f 185/281/2 171/282/2 253/286/2
f 184/288/2 171/282/2 185/281/2
f 184/288/2 172/289/2 171/282/2
f 184/288/2 173/290/2 172/289/2
f 184/288/2 174/291/2 173/290/2
f 183/292/2 174/291/2 184/288/2
f 183/292/2 175/293/2 174/291/2
f 182/294/2 175/293/2 183/292/2
f 182/294/2 176/295/2 175/293/2
f 181/296/2 176/295/2 182/294/2
f 181/296/2 177/297/2 176/295/2
f 180/298/2 179/299/2 181/296/2
f 179/299/2 177/297/2 181/296/2
f 179/299/2 178/300/2 177/297/2
