# Blender 4.0.2
# www.blender.org
mtllib Floor_BricksSeparate_Cube.mtl
o Floor_BricksSeparate_Cube.032
v 0.209891 0.231895 0.354945
v 0.228891 0.221135 0.354945
v 0.209891 0.221135 0.335945
v 0.209891 0.221135 0.725523
v 0.228891 0.221135 0.706523
v 0.209891 0.231895 0.706523
v -0.479415 0.221135 0.335945
v -0.498415 0.221135 0.354945
v -0.479415 0.231895 0.354945
v -0.498415 0.221135 0.706523
v -0.479415 0.221135 0.725523
v -0.479415 0.231895 0.706523
v 0.433908 0.162313 0.197241
v 0.437945 0.151553 0.215807
v 0.452475 0.151553 0.193204
v 0.081137 0.151553 0.273942
v 0.103740 0.151553 0.288472
v 0.099703 0.162313 0.269906
v 0.310496 0.151553 -0.459792
v 0.287893 0.151553 -0.474322
v 0.291930 0.162313 -0.455756
v -0.046312 0.151553 -0.401657
v -0.060841 0.151553 -0.379054
v -0.042275 0.162313 -0.383091
v 0.336047 0.151553 -0.342278
v 0.317481 0.162313 -0.338241
v -0.035291 0.151553 -0.261540
v -0.016724 0.162313 -0.265577
v 0.332165 0.162313 -0.270703
v -0.017639 0.151553 -0.194647
v 0.350731 0.151553 -0.274740
v 0.020702 0.162313 -0.202983
v 0.341863 0.162313 -0.226100
v -0.010908 0.151553 -0.149398
v 0.360429 0.151553 -0.230137
v 0.007658 0.162313 -0.153435
v -0.113636 0.221135 0.338773
v -0.113636 0.231895 0.363565
v -0.151346 0.221135 0.725523
v -0.151346 0.231895 0.706523
v -0.173243 0.221135 0.335945
v -0.210954 0.231895 0.690361
v -0.173243 0.231895 0.354945
v -0.210954 0.221135 0.725345
v 0.411157 0.162313 0.092601
v 0.415584 0.162313 0.112963
v 0.420011 0.162313 0.133325
v 0.058386 0.151553 0.169303
v 0.062640 0.151553 0.189702
v 0.067240 0.151553 0.210026
v 0.438578 0.151553 0.129288
v 0.434150 0.151553 0.108926
v 0.429723 0.151553 0.088564
v 0.085806 0.162313 0.205989
v 0.092785 0.162313 0.183148
v 0.076952 0.162313 0.165266
v 0.209891 -0.018433 0.354945
v 0.228891 -0.007673 0.354945
v 0.209891 -0.007673 0.335945
v 0.209891 -0.007673 0.725523
v 0.228891 -0.007673 0.706523
v 0.209891 -0.018433 0.706523
v -0.479415 -0.007673 0.335945
v -0.498415 -0.007673 0.354945
v -0.479415 -0.018433 0.354945
v -0.498415 -0.007673 0.706523
v -0.479415 -0.007673 0.725523
v -0.479415 -0.018433 0.706523
v 0.433908 -0.024190 0.197241
v 0.437945 -0.013430 0.215807
v 0.452475 -0.013430 0.193204
v 0.081137 -0.013430 0.273942
v 0.103740 -0.013430 0.288472
v 0.099703 -0.024190 0.269906
v 0.310496 -0.013430 -0.459792
v 0.287893 -0.013430 -0.474322
v 0.291930 -0.024190 -0.455756
v -0.046312 -0.013430 -0.401657
v -0.060841 -0.013430 -0.379054
v -0.042275 -0.024190 -0.383091
v 0.336047 -0.013430 -0.342278
v 0.317481 -0.024190 -0.338241
v -0.035290 -0.013430 -0.261540
v -0.016724 -0.024190 -0.265577
v 0.332165 -0.024190 -0.270703
v -0.017639 -0.013430 -0.194647
v 0.350731 -0.013430 -0.274740
v 0.020702 -0.024190 -0.202983
v 0.341863 -0.024190 -0.226100
v -0.010908 -0.013430 -0.149398
v 0.360429 -0.013430 -0.230137
v 0.007658 -0.024190 -0.153435
v -0.113636 -0.007673 0.338774
v -0.113635 -0.018433 0.363565
v -0.151346 -0.007673 0.725523
v -0.151346 -0.018433 0.706523
v -0.173243 -0.007673 0.335945
v -0.210953 -0.018433 0.690361
v -0.173243 -0.018433 0.354945
v -0.210953 -0.007673 0.725345
v 0.411157 -0.024190 0.092601
v 0.415584 -0.024190 0.112963
v 0.420011 -0.024190 0.133325
v 0.058386 -0.013430 0.169303
v 0.062640 -0.013430 0.189702
v 0.067240 -0.013430 0.210026
v 0.438578 -0.013430 0.129288
v 0.434150 -0.013430 0.108926
v 0.429723 -0.013430 0.088564
v 0.085806 -0.024190 0.205989
v 0.092785 -0.024190 0.183148
v 0.076952 -0.024190 0.165266
v -0.164922 0.001397 -0.145014
v -0.429882 0.001397 -0.145014
v -0.164922 0.001397 -0.442719
v -0.429882 0.001397 -0.442719
v -0.137140 0.006273 -0.263424
v -0.457663 0.006273 -0.263424
v -0.214910 0.106955 -0.199277
v -0.197611 0.109991 -0.273008
v -0.214910 0.106955 -0.384650
v -0.379893 0.106955 -0.199277
v -0.397192 0.109991 -0.273008
v -0.379893 0.106955 -0.384650
vn -0.0030 -0.0000 1.0000
vn -1.0000 -0.0000 -0.0000
vn -0.0000 0.9996 -0.0272
vn -0.0000 -0.0000 1.0000
vn 0.9772 -0.0000 -0.2125
vn -0.2125 -0.0000 -0.9772
vn 0.4420 0.7805 -0.4420
vn 0.4420 0.7805 0.4420
vn -0.4420 0.7805 -0.4420
vn -0.4420 0.7805 0.4420
vn 0.5258 0.7805 0.3380
vn -0.3380 0.7805 0.5259
vn 0.3380 0.7805 -0.5259
vn -0.5259 0.7805 -0.3380
vn 0.7071 -0.0000 -0.7071
vn -0.0000 0.8702 -0.4928
vn 0.7071 -0.0000 0.7071
vn -0.0000 0.8702 0.4928
vn 0.4928 0.8702 -0.0000
vn -0.4928 0.8702 -0.0000
vn 0.2125 -0.0000 0.9772
vn 0.4815 0.8702 -0.1047
vn -0.8412 -0.0000 -0.5407
vn -0.4815 0.8702 0.1047
vn 0.1047 0.8702 0.4815
vn -0.1047 0.8702 -0.4815
vn 0.5407 -0.0000 -0.8412
vn -0.9772 -0.0000 0.2125
vn -0.4768 0.8700 0.1258
vn -0.9669 -0.0000 0.2552
vn -0.2845 0.9557 -0.0749
vn -0.0795 0.9528 0.2930
vn -0.0043 0.8701 -0.4928
vn -0.0087 -0.0000 -1.0000
vn 0.0007 -0.0000 1.0000
vn -0.0000 1.0000 -0.0000
vn 0.0474 -0.0000 -0.9989
vn 0.0003 0.8702 0.4928
vn 0.0575 0.9158 -0.3975
vn -0.9753 -0.0000 0.2207
vn -0.9891 -0.0000 0.1471
vn -0.4824 0.8701 0.1006
vn -0.3550 0.9285 -0.1085
vn -0.9789 -0.0000 0.2041
vn 1.0000 -0.0000 -0.0000
vn -0.7071 -0.0000 -0.7071
vn -0.5407 -0.0000 0.8412
vn 0.8412 -0.0000 0.5407
vn -0.0000 -0.0000 -1.0000
vn 0.4420 -0.7805 -0.4420
vn 0.4420 -0.7805 0.4420
vn -0.4420 -0.7805 -0.4420
vn -0.4420 -0.7805 0.4420
vn 0.5258 -0.7805 0.3380
vn -0.3380 -0.7805 0.5259
vn 0.3380 -0.7805 -0.5259
vn -0.5259 -0.7805 -0.3380
vn -0.0000 -0.8702 -0.4928
vn -0.0000 -0.8702 0.4928
vn 0.4928 -0.8702 -0.0000
vn -0.4928 -0.8702 -0.0000
vn 0.4815 -0.8702 -0.1047
vn -0.4815 -0.8702 0.1047
vn 0.1047 -0.8702 0.4815
vn -0.1047 -0.8702 -0.4815
vn -0.4768 -0.8699 0.1258
vn -0.4882 -0.8697 0.0726
vn -0.0015 -0.8702 0.4928
vn -0.0043 -0.8701 -0.4928
vn -0.0000 -1.0000 -0.0000
vn 0.0003 -0.8702 0.4928
vn 0.0234 -0.8699 -0.4926
vn -0.4824 -0.8701 0.1006
vn -0.4806 -0.8701 0.1088
vn -0.7071 -0.0000 0.7071
vn -0.0000 0.9992 0.0411
vn -0.0000 -0.9996 0.0272
vn -0.0000 -0.9992 -0.0411
vn 0.8345 0.5066 0.2167
vn 0.8604 0.4881 -0.1466
vn -0.0000 0.4820 -0.8762
vn -0.8345 0.5066 0.2167
vn -0.0000 0.4572 0.8894
vn -0.8604 0.4881 -0.1466
vn 0.4815 0.8701 -0.1047
vn -0.4815 0.8701 0.1047
vn -0.2386 0.9606 0.1426
vn -0.9669 -0.0000 0.2551
vn -0.4882 0.8697 0.0726
vn -0.0015 0.8702 0.4928
vn -0.0106 0.9173 -0.3981
vn 0.0177 0.9557 0.2939
vn 0.0234 0.8699 -0.4926
vn -0.9753 -0.0000 0.2208
vn -0.0000 0.9999 -0.0104
vn -0.0000 1.0000 -0.0024
vn -0.2779 0.9285 0.2461
vn -0.4806 0.8701 0.1088
vn 0.4815 -0.8701 -0.1047
vn -0.4815 -0.8701 0.1047
vn -0.2386 -0.9606 0.1426
vn -0.2845 -0.9557 -0.0749
vn -0.0795 -0.9528 0.2930
vn -0.0106 -0.9173 -0.3981
vn 0.0177 -0.9557 0.2939
vn 0.0575 -0.9158 -0.3975
vn -0.0000 -1.0000 -0.0010
vn -0.0000 -1.0000 0.0007
vn -0.2779 -0.9285 0.2461
vn -0.3550 -0.9285 -0.1085
s 0
usemtl Grey_Floor.008
f 100//1 39//1 44//1
f 10//2 64//2 66//2
f 123//3 121//3 124//3
f 95//4 4//4 39//4
f 81//5 19//5 25//5
f 22//6 76//6 78//6
f 1//7 2//7 3//7
f 4//8 5//8 6//8
f 7//9 8//9 9//9
f 10//10 11//10 12//10
f 13//11 14//11 15//11
f 16//12 17//12 18//12
f 19//13 20//13 21//13
f 22//14 23//14 24//14
f 58//15 3//15 2//15
f 7//16 43//16 41//16
f 61//17 4//17 60//17
f 4//18 40//18 39//18
f 6//19 2//19 1//19
f 9//20 10//20 12//20
f 73//21 14//21 17//21
f 19//22 26//22 25//22
f 78//23 23//23 22//23
f 16//24 54//24 50//24
f 13//25 17//25 14//25
f 24//26 20//26 22//26
f 23//24 28//24 24//24
f 31//22 26//22 29//22
f 76//27 19//27 75//27
f 79//28 27//28 23//28
f 87//5 25//5 31//5
f 35//22 29//22 33//22
f 30//29 28//29 27//29
f 91//5 31//5 35//5
f 53//22 33//22 45//22
f 83//30 30//30 27//30
f 30//31 36//31 32//31
f 109//5 35//5 53//5
f 44//32 40//32 42//32
f 37//33 1//33 3//33
f 59//34 37//34 3//34
f 67//35 44//35 11//35
f 38//36 42//36 6//36
f 93//37 41//37 37//37
f 44//38 12//38 11//38
f 37//39 43//39 38//39
f 105//40 50//40 49//40
f 86//41 34//41 30//41
f 71//5 51//5 15//5
f 107//5 52//5 51//5
f 29//36 55//36 18//36
f 15//22 47//22 13//22
f 52//22 47//22 51//22
f 52//22 45//22 46//22
f 34//24 56//24 36//24
f 49//42 56//42 48//42
f 49//43 54//43 55//43
f 108//5 53//5 52//5
f 90//28 48//28 34//28
f 104//44 49//44 48//44
f 61//45 2//45 5//45
f 64//46 7//46 63//46
f 73//47 16//47 72//47
f 70//48 15//48 14//48
f 97//49 7//49 41//49
f 106//28 16//28 50//28
f 57//50 59//50 58//50
f 60//51 62//51 61//51
f 63//52 65//52 64//52
f 66//53 68//53 67//53
f 69//54 71//54 70//54
f 72//55 74//55 73//55
f 75//56 77//56 76//56
f 78//57 80//57 79//57
f 99//58 63//58 97//58
f 96//59 60//59 95//59
f 58//60 62//60 57//60
f 66//61 65//61 68//61
f 82//62 75//62 81//62
f 110//63 72//63 106//63
f 69//64 73//64 74//64
f 80//65 76//65 77//65
f 79//63 84//63 83//63
f 87//62 82//62 81//62
f 91//62 85//62 87//62
f 84//66 86//66 83//66
f 109//62 89//62 91//62
f 86//67 92//67 90//67
f 100//68 96//68 95//68
f 57//69 93//69 59//69
f 94//70 98//70 65//70
f 68//71 100//71 67//71
f 93//72 99//72 97//72
f 88//70 77//70 85//70
f 71//62 103//62 107//62
f 103//62 108//62 107//62
f 108//62 101//62 109//62
f 90//63 112//63 104//63
f 112//73 105//73 104//73
f 105//74 110//74 106//74
f 66//75 11//75 10//75
f 122//76 120//76 123//76
f 115//77 118//77 116//77
f 118//78 113//78 114//78
f 119//79 117//79 120//79
f 121//80 117//80 115//80
f 124//81 115//81 116//81
f 122//82 118//82 114//82
f 122//83 113//83 119//83
f 124//84 118//84 123//84
f 100//1 95//1 39//1
f 10//2 8//2 64//2
f 123//3 120//3 121//3
f 95//4 60//4 4//4
f 81//5 75//5 19//5
f 22//6 20//6 76//6
f 58//15 59//15 3//15
f 7//16 9//16 43//16
f 61//17 5//17 4//17
f 4//18 6//18 40//18
f 6//19 5//19 2//19
f 9//20 8//20 10//20
f 73//21 70//21 14//21
f 19//85 21//85 26//85
f 78//23 79//23 23//23
f 16//86 18//86 54//86
f 13//25 18//25 17//25
f 24//26 21//26 20//26
f 23//24 27//24 28//24
f 31//22 25//22 26//22
f 76//27 20//27 19//27
f 79//28 83//28 27//28
f 87//5 81//5 25//5
f 35//22 31//22 29//22
f 30//87 32//87 28//87
f 91//5 87//5 31//5
f 53//85 35//85 33//85
f 83//88 86//88 30//88
f 30//89 34//89 36//89
f 109//5 91//5 35//5
f 44//90 39//90 40//90
f 37//91 38//91 1//91
f 59//34 93//34 37//34
f 67//35 100//35 44//35
f 38//36 43//36 9//36
f 9//36 12//36 42//36
f 42//36 40//36 6//36
f 6//36 1//36 38//36
f 38//36 9//36 42//36
f 93//37 97//37 41//37
f 44//92 42//92 12//92
f 37//93 41//93 43//93
f 105//94 106//94 50//94
f 86//41 90//41 34//41
f 71//5 107//5 51//5
f 107//5 108//5 52//5
f 46//36 45//36 33//36
f 29//95 26//95 21//95
f 46//96 33//96 29//96
f 18//36 13//36 47//36
f 47//36 46//36 29//36
f 29//36 21//36 24//36
f 24//36 28//36 32//36
f 32//36 36//36 56//36
f 55//36 54//36 18//36
f 32//36 56//36 55//36
f 29//36 24//36 32//36
f 18//36 47//36 29//36
f 29//36 32//36 55//36
f 15//22 51//22 47//22
f 52//22 46//22 47//22
f 52//22 53//22 45//22
f 34//24 48//24 56//24
f 49//97 55//97 56//97
f 49//98 50//98 54//98
f 108//5 109//5 53//5
f 90//28 104//28 48//28
f 104//44 105//44 49//44
f 61//45 58//45 2//45
f 64//46 8//46 7//46
f 73//47 17//47 16//47
f 70//48 71//48 15//48
f 97//49 63//49 7//49
f 106//28 72//28 16//28
f 99//58 65//58 63//58
f 96//59 62//59 60//59
f 58//60 61//60 62//60
f 66//61 64//61 65//61
f 82//99 77//99 75//99
f 110//100 74//100 72//100
f 69//64 70//64 73//64
f 80//65 78//65 76//65
f 79//63 80//63 84//63
f 87//62 85//62 82//62
f 91//62 89//62 85//62
f 84//101 88//101 86//101
f 109//62 101//62 89//62
f 86//102 88//102 92//102
f 100//103 98//103 96//103
f 57//104 94//104 93//104
f 94//70 57//70 62//70
f 62//70 96//70 98//70
f 98//70 68//70 65//70
f 65//70 99//70 94//70
f 94//70 62//70 98//70
f 68//105 98//105 100//105
f 93//106 94//106 99//106
f 103//70 69//70 74//70
f 74//70 110//70 111//70
f 111//70 112//70 92//70
f 88//70 84//70 80//70
f 111//70 92//70 88//70
f 103//70 74//70 111//70
f 89//107 101//107 102//107
f 102//70 103//70 111//70
f 88//70 80//70 77//70
f 102//70 111//70 88//70
f 85//70 89//70 102//70
f 77//108 82//108 85//108
f 85//70 102//70 88//70
f 71//62 69//62 103//62
f 103//62 102//62 108//62
f 108//62 102//62 101//62
f 90//63 92//63 112//63
f 112//109 111//109 105//109
f 105//110 111//110 110//110
f 66//75 67//75 11//75
f 122//76 119//76 120//76
f 115//77 117//77 118//77
f 118//78 117//78 113//78
f 119//79 113//79 117//79
f 121//80 120//80 117//80
f 124//81 121//81 115//81
f 122//82 123//82 118//82
f 122//83 114//83 113//83
f 124//84 116//84 118//84
