# Blender 4.0.2
# www.blender.org
mtllib CrystalOrange.mtl
o CrystalOrange
v 0.676916 -1.000000 -0.633548
v 0.676916 1.000000 -0.633548
v 0.676916 -1.000000 0.633548
v 0.676916 1.000000 0.633548
v -0.676916 -1.000000 -0.633548
v -0.676916 1.000000 -0.633548
v -0.676916 -1.000000 0.633548
v -0.676916 1.000000 0.633548
v 1.210083 -1.000000 0.000000
v 0.900977 0.000000 -0.910191
v 1.210083 1.000000 0.000000
v 0.900977 0.000000 0.910191
v 0.000000 -1.000000 1.277760
v 0.000000 1.000000 1.277760
v -0.900977 0.000000 0.910191
v -1.210083 -1.000000 0.000000
v -1.210083 1.000000 0.000000
v -0.900977 0.000000 -0.910191
v 0.000000 -1.000000 -1.277760
v 0.000000 1.000000 -1.277760
v 0.000000 2.251405 0.000000
v 0.000000 -2.251405 0.000000
v 0.000000 0.000000 -1.505697
v -1.493669 0.000000 0.000000
v 0.000000 0.000000 1.505697
v 1.493669 0.000000 0.000000
vn 0.8153 0.2312 0.5309
vn -0.5417 0.1868 0.8196
vn -0.8153 0.2312 -0.5309
vn 0.5417 0.1868 -0.8196
vn -0.5543 -0.5947 -0.5824
vn 0.5543 0.5947 -0.5824
vn -0.6151 0.5948 -0.5176
vn -0.6151 0.5948 0.5176
vn 0.5543 0.5947 0.5824
vn 0.6151 -0.5948 -0.5176
vn 0.6151 -0.5948 0.5176
vn -0.5543 -0.5947 0.5824
vn 0.6497 -0.3344 -0.6827
vn -0.6497 -0.3344 -0.6827
vn -0.5417 0.1868 -0.8196
vn -0.7223 -0.3300 -0.6078
vn -0.7223 -0.3300 0.6078
vn -0.8153 0.2312 0.5309
vn -0.6497 -0.3344 0.6827
vn 0.6497 -0.3344 0.6827
vn 0.5417 0.1868 0.8196
vn 0.7223 -0.3300 0.6078
vn 0.7223 -0.3300 -0.6078
vn 0.8153 0.2312 -0.5309
vn 0.7223 0.3300 0.6078
vn -0.6497 0.3344 0.6827
vn -0.7223 0.3300 -0.6078
vn 0.6497 0.3344 -0.6827
vn -0.6151 -0.5948 -0.5176
vn 0.6151 0.5948 -0.5176
vn -0.5543 0.5947 -0.5824
vn -0.5543 0.5947 0.5824
vn 0.6151 0.5948 0.5176
vn 0.5543 -0.5947 -0.5824
vn 0.5543 -0.5947 0.5824
vn -0.6151 -0.5948 0.5176
vn 0.5417 -0.1868 -0.8196
vn -0.5417 -0.1868 -0.8196
vn -0.6497 0.3344 -0.6827
vn -0.8153 -0.2312 -0.5309
vn -0.8153 -0.2312 0.5309
vn -0.7223 0.3300 0.6078
vn -0.5417 -0.1868 0.8196
vn 0.5417 -0.1868 0.8196
vn 0.6497 0.3344 0.6827
vn 0.8153 -0.2312 0.5309
vn 0.8153 -0.2312 -0.5309
vn 0.7223 0.3300 -0.6078
vt 0.625000 0.125000
vt 0.500000 0.250000
vt 0.500000 0.125000
vt 0.625000 0.375000
vt 0.500000 0.500000
vt 0.500000 0.375000
vt 0.625000 0.625000
vt 0.500000 0.750000
vt 0.500000 0.625000
vt 0.625000 0.875000
vt 0.500000 1.000000
vt 0.500000 0.875000
vt 0.250000 0.625000
vt 0.375000 0.750000
vt 0.250000 0.750000
vt 0.750000 0.625000
vt 0.875000 0.750000
vt 0.750000 0.750000
vt 0.625000 0.750000
vt 0.625000 0.500000
vt 0.875000 0.500000
vt 0.750000 0.500000
vt 0.125000 0.750000
vt 0.125000 0.625000
vt 0.125000 0.500000
vt 0.375000 0.500000
vt 0.250000 0.500000
vt 0.375000 0.875000
vt 0.375000 1.000000
vt 0.375000 0.625000
vt 0.375000 0.375000
vt 0.375000 0.250000
vt 0.375000 0.125000
vt 0.500000 0.000000
vt 0.375000 0.000000
vt 0.625000 0.250000
vt 0.625000 1.000000
vt 0.875000 0.625000
vt 0.625000 0.000000
s 0
usemtl CrystalOrangeSurf
f 11/1/1 12/2/1 26/3/1
f 14/4/2 15/5/2 25/6/2
f 17/7/3 18/8/3 24/9/3
f 20/10/4 10/11/4 23/12/4
f 22/13/5 5/14/5 19/15/5
f 21/16/6 2/17/6 20/18/6
f 21/16/7 6/19/7 17/7/7
f 8/20/8 21/16/8 17/7/8
f 4/21/9 21/16/9 14/22/9
f 22/13/10 1/23/10 9/24/10
f 3/25/11 22/13/11 9/24/11
f 7/26/12 22/13/12 13/27/12
f 19/28/13 10/11/13 1/29/13
f 18/8/14 19/28/14 5/14/14
f 18/8/15 20/10/15 23/12/15
f 16/30/16 18/8/16 5/14/16
f 15/5/17 16/30/17 7/26/17
f 15/5/18 17/7/18 24/9/18
f 13/31/19 15/5/19 7/26/19
f 12/2/20 13/31/20 3/32/20
f 12/2/21 14/4/21 25/6/21
f 9/33/22 12/2/22 3/32/22
f 10/34/23 9/33/23 1/35/23
f 10/34/24 11/1/24 26/3/24
f 11/1/25 4/36/25 12/2/25
f 14/4/26 8/20/26 15/5/26
f 17/7/27 6/19/27 18/8/27
f 20/10/28 2/37/28 10/11/28
f 22/13/29 16/30/29 5/14/29
f 21/16/30 11/38/30 2/17/30
f 21/16/31 20/18/31 6/19/31
f 8/20/32 14/22/32 21/16/32
f 4/21/33 11/38/33 21/16/33
f 22/13/34 19/15/34 1/23/34
f 3/25/35 13/27/35 22/13/35
f 7/26/36 16/30/36 22/13/36
f 19/28/37 23/12/37 10/11/37
f 18/8/38 23/12/38 19/28/38
f 18/8/39 6/19/39 20/10/39
f 16/30/40 24/9/40 18/8/40
f 15/5/41 24/9/41 16/30/41
f 15/5/42 8/20/42 17/7/42
f 13/31/43 25/6/43 15/5/43
f 12/2/44 25/6/44 13/31/44
f 12/2/45 4/36/45 14/4/45
f 9/33/46 26/3/46 12/2/46
f 10/34/47 26/3/47 9/33/47
f 10/34/48 2/39/48 11/1/48
